<svg width="132" height="97" viewBox="0 0 132 97" fill="none" xmlns="http://www.w3.org/2000/svg">
<path fill-rule="evenodd" clip-rule="evenodd" d="M5.37499 3.11308L2.50803 0.204091L2.48701 3.09207L2.466 5.98004L5.37499 3.11308ZM5.37499 75.2285L2.50803 72.3195L2.48701 75.2075L2.466 78.0955L5.37499 75.2285ZM2.50803 36.2619L5.37499 39.1709L2.466 42.0378L2.48701 39.1498L2.50803 36.2619ZM23.403 3.11308L20.5361 0.204091L20.5151 3.09207L20.494 5.98004L23.403 3.11308ZM20.5361 72.3195L23.403 75.2285L20.494 78.0955L20.5151 75.2075L20.5361 72.3195ZM23.403 39.1709L20.5361 36.2619L20.5151 39.1498L20.494 42.0378L23.403 39.1709ZM38.5647 0.204091L41.4316 3.11308L38.5227 5.98004L38.5437 3.09207L38.5647 0.204091ZM41.4316 75.2285L38.5647 72.3195L38.5437 75.2075L38.5227 78.0955L41.4316 75.2285ZM38.5647 36.2619L41.4316 39.1709L38.5227 42.0378L38.5437 39.1498L38.5647 36.2619ZM59.4603 3.11308L56.5933 0.204091L56.5723 3.09207L56.5513 5.98004L59.4603 3.11308ZM56.5933 72.3195L59.4603 75.2285L56.5513 78.0955L56.5723 75.2075L56.5933 72.3195ZM59.4603 39.1709L56.5933 36.2619L56.5723 39.1498L56.5513 42.0378L59.4603 39.1709ZM74.6219 0.204091L77.4889 3.11308L74.5799 5.98004L74.6009 3.09207L74.6219 0.204091ZM77.4889 75.2285L74.6219 72.3195L74.6009 75.2075L74.5799 78.0955L77.4889 75.2285ZM74.6219 36.2619L77.4889 39.1709L74.5799 42.0378L74.6009 39.1498L74.6219 36.2619ZM95.5169 3.11308L92.6499 0.204091L92.6289 3.09207L92.6079 5.98004L95.5169 3.11308ZM92.6499 72.3195L95.5169 75.2285L92.6079 78.0955L92.6289 75.2075L92.6499 72.3195ZM95.5169 39.1709L92.6499 36.2619L92.6289 39.1498L92.6079 42.0378L95.5169 39.1709ZM110.679 0.204091L113.546 3.11308L110.637 5.98004L110.658 3.09207L110.679 0.204091ZM113.546 75.2285L110.679 72.3195L110.658 75.2075L110.637 78.0955L113.546 75.2285ZM110.679 36.2619L113.546 39.1709L110.637 42.0378L110.658 39.1498L110.679 36.2619ZM131.574 3.11308L128.707 0.204091L128.686 3.09207L128.665 5.98004L131.574 3.11308ZM128.707 72.3195L131.574 75.2285L128.665 78.0955L128.686 75.2075L128.707 72.3195ZM131.574 39.1709L128.707 36.2619L128.686 39.1498L128.665 42.0378L131.574 39.1709ZM129.066 24.0089L126.199 21.0999L129.108 18.2329L129.087 21.1209L129.066 24.0089ZM126.199 93.2153L129.066 96.1243L129.087 93.2363L129.108 90.3483L126.199 93.2153ZM129.066 60.0667L126.199 57.1577L129.108 54.2907L129.087 57.1787L129.066 60.0667ZM108.171 21.0999L111.038 24.0089L111.059 21.1209L111.08 18.2329L108.171 21.0999ZM111.038 96.1243L108.171 93.2153L111.08 90.3483L111.059 93.2363L111.038 96.1243ZM108.171 57.1577L111.038 60.0667L111.059 57.1787L111.08 54.2907L108.171 57.1577ZM93.009 24.0089L90.1421 21.0999L93.0511 18.2329L93.03 21.1209L93.009 24.0089ZM90.1421 93.2153L93.009 96.1243L93.03 93.2363L93.0511 90.3483L90.1421 93.2153ZM93.009 60.0667L90.1421 57.1577L93.0511 54.2907L93.03 57.1787L93.009 60.0667ZM72.114 21.0999L74.981 24.0089L75.002 21.1209L75.023 18.2329L72.114 21.0999ZM74.981 96.1243L72.114 93.2153L75.023 90.3483L75.002 93.2363L74.981 96.1243ZM72.114 57.1577L74.981 60.0667L75.002 57.1787L75.023 54.2907L72.114 57.1577ZM56.9524 24.0089L54.0854 21.0999L56.9944 18.2329L56.9734 21.1209L56.9524 24.0089ZM54.0854 93.2153L56.9524 96.1243L56.9734 93.2363L56.9944 90.3483L54.0854 93.2153ZM56.9524 60.0667L54.0854 57.1577L56.9944 54.2907L56.9734 57.1787L56.9524 60.0667ZM36.0568 21.0999L38.9238 24.0089L38.9448 21.1209L38.9658 18.2329L36.0568 21.0999ZM38.9238 96.1243L36.0568 93.2153L38.9658 90.3483L38.9448 93.2363L38.9238 96.1243ZM36.0568 57.1577L38.9238 60.0667L38.9448 57.1787L38.9658 54.2907L36.0568 57.1577ZM20.8952 24.0089L18.0282 21.0999L20.9372 18.2329L20.9162 21.1209L20.8952 24.0089ZM18.0282 93.2153L20.8952 96.1243L20.9162 93.2363L20.9372 90.3483L18.0282 93.2153ZM20.8952 60.0667L18.0282 57.1577L20.9372 54.2907L20.9162 57.1787L20.8952 60.0667ZM0.00015522 21.0999L2.86712 24.0089L2.88813 21.1209L2.90915 18.2329L0.00015522 21.0999ZM2.86712 96.1243L0.00015522 93.2153L2.90915 90.3483L2.88813 93.2363L2.86712 96.1243ZM0.00015522 57.1577L2.86712 60.0667L2.88813 57.1787L2.90915 54.2907L0.00015522 57.1577Z" fill="url(#paint0_linear_1_900)"/>
<defs>
<linearGradient id="paint0_linear_1_900" x1="131.515" y1="-12.8657" x2="-23.6891" y2="116.199" gradientUnits="userSpaceOnUse">
<stop stop-color="#0C257C" stop-opacity="0"/>
<stop offset="0.03125" stop-color="#102880" stop-opacity="0"/>
<stop offset="1" stop-color="#859CEF"/>
<stop offset="1" stop-color="#859CEF" stop-opacity="0.5"/>
</linearGradient>
</defs>
</svg>
