<svg width="117" height="131" viewBox="0 0 117 131" fill="none" xmlns="http://www.w3.org/2000/svg">
<path fill-rule="evenodd" clip-rule="evenodd" d="M12.5626 1.47798C12.5626 2.29424 13.2243 2.95595 14.0406 2.95595C14.8568 2.95595 15.5185 2.29424 15.5185 1.47798C15.5185 0.661719 14.8568 8.84401e-06 14.0406 8.91537e-06C13.2243 8.98673e-06 12.5626 0.66172 12.5626 1.47798ZM26.605 2.95595C25.7887 2.95595 25.127 2.29424 25.127 1.47798C25.127 0.66172 25.7887 1.00811e-05 26.605 1.00097e-05C27.4213 9.93833e-06 28.083 0.661719 28.083 1.47798C28.083 2.29424 27.4213 2.95595 26.605 2.95595ZM37.6895 1.47798C37.6895 2.29424 38.3512 2.95595 39.1675 2.95595C39.9838 2.95595 40.6455 2.29424 40.6455 1.47798C40.6455 0.661719 39.9838 9.93835e-06 39.1675 1.00097e-05C38.3512 1.00811e-05 37.6895 0.66172 37.6895 1.47798ZM51.7281 2.95595C50.9118 2.95595 50.2501 2.29424 50.2501 1.47798C50.2501 0.66172 50.9118 1.00811e-05 51.7281 1.00097e-05C52.5443 9.93836e-06 53.206 0.661719 53.206 1.47798C53.206 2.29424 52.5443 2.95595 51.7281 2.95595ZM62.8145 1.47798C62.8145 2.29424 63.4762 2.95595 64.2925 2.95595C65.1088 2.95595 65.7705 2.29424 65.7705 1.47798C65.7705 0.661719 65.1088 9.93834e-06 64.2925 1.00097e-05C63.4762 1.00811e-05 62.8145 0.66172 62.8145 1.47798ZM76.855 2.95595C76.0387 2.95595 75.377 2.29424 75.377 1.47798C75.377 0.66172 76.0387 1.00811e-05 76.855 1.00097e-05C77.6713 9.93836e-06 78.333 0.661719 78.333 1.47798C78.333 2.29424 77.6713 2.95595 76.855 2.95595ZM87.9376 1.47798C87.9376 2.29424 88.5993 2.95595 89.4156 2.95595C90.2318 2.95595 90.8935 2.29424 90.8935 1.47798C90.8935 0.661719 90.2318 9.93834e-06 89.4156 1.00097e-05C88.5993 1.00811e-05 87.9376 0.66172 87.9376 1.47798ZM101.98 2.95595C101.164 2.95595 100.502 2.29424 100.502 1.47798C100.502 0.66172 101.164 1.00811e-05 101.98 1.00097e-05C102.796 9.93836e-06 103.458 0.661719 103.458 1.47798C103.458 2.29424 102.796 2.95595 101.98 2.95595ZM114.543 2.95595C113.726 2.95595 113.065 2.29424 113.065 1.47798C113.065 0.66172 113.726 1.00811e-05 114.543 1.00097e-05C115.359 9.93834e-06 116.02 0.661719 116.02 1.47798C116.02 2.29424 115.359 2.95595 114.543 2.95595ZM114.542 18.8442C113.726 18.8442 113.064 18.1825 113.064 17.3662C113.064 16.5499 113.726 15.8882 114.542 15.8882C115.359 15.8882 116.02 16.5499 116.02 17.3662C116.02 18.1825 115.359 18.8442 114.542 18.8442ZM113.064 33.2549C113.064 34.0711 113.726 34.7328 114.542 34.7328C115.359 34.7328 116.02 34.0711 116.02 33.2549C116.02 32.4386 115.359 31.7769 114.542 31.7769C113.726 31.7769 113.064 32.4386 113.064 33.2549ZM114.543 50.62C113.726 50.62 113.065 49.9583 113.065 49.142C113.065 48.3258 113.726 47.6641 114.543 47.6641C115.359 47.6641 116.02 48.3258 116.02 49.142C116.02 49.9583 115.359 50.62 114.543 50.62ZM113.065 65.0307C113.065 65.847 113.726 66.5087 114.543 66.5087C115.359 66.5087 116.02 65.847 116.02 65.0307C116.02 64.2145 115.359 63.5527 114.543 63.5527C113.726 63.5527 113.065 64.2145 113.065 65.0307ZM114.542 82.3969C113.726 82.3969 113.064 81.7352 113.064 80.9189C113.064 80.1027 113.726 79.441 114.542 79.441C115.359 79.441 116.02 80.1027 116.02 80.9189C116.02 81.7352 115.359 82.3969 114.542 82.3969ZM113.065 96.8061C113.065 97.6224 113.726 98.2841 114.543 98.2841C115.359 98.2841 116.02 97.6224 116.02 96.8061C116.02 95.9898 115.359 95.3281 114.543 95.3281C113.726 95.3281 113.065 95.9898 113.065 96.8061ZM114.543 114.173C113.726 114.173 113.065 113.511 113.065 112.695C113.065 111.879 113.726 111.217 114.543 111.217C115.359 111.217 116.02 111.879 116.02 112.695C116.02 113.511 115.359 114.173 114.543 114.173ZM113.065 128.583C113.065 129.4 113.726 130.061 114.543 130.061C115.359 130.061 116.02 129.4 116.02 128.583C116.02 127.767 115.359 127.105 114.543 127.105C113.726 127.105 113.065 127.767 113.065 128.583ZM100.502 17.3662C100.502 18.1825 101.164 18.8442 101.98 18.8442C102.796 18.8442 103.458 18.1825 103.458 17.3662C103.458 16.5499 102.796 15.8882 101.98 15.8882C101.164 15.8882 100.502 16.5499 100.502 17.3662ZM101.98 34.7329C101.164 34.7329 100.502 34.0711 100.502 33.2549C100.502 32.4386 101.164 31.7769 101.98 31.7769C102.796 31.7769 103.458 32.4386 103.458 33.2549C103.458 34.0711 102.796 34.7329 101.98 34.7329ZM100.502 49.142C100.502 49.9583 101.164 50.62 101.98 50.62C102.796 50.62 103.458 49.9583 103.458 49.142C103.458 48.3258 102.796 47.6641 101.98 47.6641C101.164 47.6641 100.502 48.3258 100.502 49.142ZM101.98 66.5087C101.164 66.5087 100.502 65.847 100.502 65.0307C100.502 64.2145 101.164 63.5527 101.98 63.5527C102.796 63.5527 103.458 64.2145 103.458 65.0307C103.458 65.847 102.796 66.5087 101.98 66.5087ZM100.502 80.9189C100.502 81.7352 101.164 82.3969 101.98 82.3969C102.796 82.3969 103.458 81.7352 103.458 80.9189C103.458 80.1027 102.796 79.441 101.98 79.441C101.164 79.441 100.502 80.1027 100.502 80.9189ZM101.98 98.2856C101.164 98.2856 100.502 97.6239 100.502 96.8076C100.502 95.9914 101.164 95.3296 101.98 95.3296C102.796 95.3296 103.458 95.9914 103.458 96.8076C103.458 97.6239 102.796 98.2856 101.98 98.2856ZM100.502 112.695C100.502 113.511 101.164 114.173 101.98 114.173C102.796 114.173 103.458 113.511 103.458 112.695C103.458 111.879 102.796 111.217 101.98 111.217C101.164 111.217 100.502 111.879 100.502 112.695ZM101.98 130.061C101.164 130.061 100.502 129.4 100.502 128.583C100.502 127.767 101.164 127.105 101.98 127.105C102.796 127.105 103.458 127.767 103.458 128.583C103.458 129.4 102.796 130.061 101.98 130.061ZM89.4155 18.8442C88.5992 18.8442 87.9375 18.1825 87.9375 17.3662C87.9375 16.5499 88.5992 15.8882 89.4155 15.8882C90.2317 15.8882 90.8934 16.5499 90.8934 17.3662C90.8934 18.1825 90.2317 18.8442 89.4155 18.8442ZM87.9375 33.2549C87.9375 34.0711 88.5992 34.7329 89.4155 34.7329C90.2317 34.7329 90.8934 34.0711 90.8934 33.2549C90.8934 32.4386 90.2317 31.7769 89.4155 31.7769C88.5992 31.7769 87.9375 32.4386 87.9375 33.2549ZM89.4156 50.62C88.5993 50.62 87.9376 49.9583 87.9376 49.142C87.9376 48.3258 88.5993 47.6641 89.4156 47.6641C90.2318 47.6641 90.8935 48.3258 90.8935 49.142C90.8935 49.9583 90.2318 50.62 89.4156 50.62ZM87.9376 65.0307C87.9376 65.847 88.5993 66.5087 89.4156 66.5087C90.2318 66.5087 90.8935 65.847 90.8935 65.0307C90.8935 64.2145 90.2318 63.5527 89.4156 63.5527C88.5993 63.5527 87.9376 64.2145 87.9376 65.0307ZM89.4155 82.3969C88.5992 82.3969 87.9375 81.7352 87.9375 80.9189C87.9375 80.1027 88.5992 79.441 89.4155 79.441C90.2317 79.441 90.8934 80.1027 90.8934 80.9189C90.8934 81.7352 90.2317 82.3969 89.4155 82.3969ZM87.9375 96.8076C87.9375 97.6239 88.5992 98.2856 89.4155 98.2856C90.2317 98.2856 90.8934 97.6239 90.8934 96.8076C90.8934 95.9914 90.2317 95.3296 89.4155 95.3296C88.5992 95.3296 87.9375 95.9914 87.9375 96.8076ZM89.4156 114.173C88.5993 114.173 87.9376 113.511 87.9376 112.695C87.9376 111.879 88.5993 111.217 89.4156 111.217C90.2318 111.217 90.8935 111.879 90.8935 112.695C90.8935 113.511 90.2318 114.173 89.4156 114.173ZM87.9376 128.583C87.9376 129.4 88.5993 130.061 89.4156 130.061C90.2318 130.061 90.8935 129.4 90.8935 128.583C90.8935 127.767 90.2318 127.105 89.4156 127.105C88.5993 127.105 87.9376 127.767 87.9376 128.583ZM75.377 17.3662C75.377 18.1825 76.0387 18.8442 76.8549 18.8442C77.6712 18.8442 78.3329 18.1825 78.3329 17.3662C78.3329 16.5499 77.6712 15.8882 76.8549 15.8882C76.0387 15.8882 75.377 16.5499 75.377 17.3662ZM76.8549 34.7328C76.0387 34.7328 75.377 34.0711 75.377 33.2549C75.377 32.4386 76.0387 31.7769 76.8549 31.7769C77.6712 31.7769 78.3329 32.4386 78.3329 33.2549C78.3329 34.0711 77.6712 34.7328 76.8549 34.7328ZM75.377 49.142C75.377 49.9583 76.0387 50.62 76.855 50.62C77.6713 50.62 78.333 49.9583 78.333 49.142C78.333 48.3258 77.6713 47.6641 76.855 47.6641C76.0387 47.6641 75.377 48.3258 75.377 49.142ZM76.855 66.5087C76.0387 66.5087 75.377 65.847 75.377 65.0307C75.377 64.2145 76.0387 63.5527 76.855 63.5527C77.6713 63.5527 78.333 64.2145 78.333 65.0307C78.333 65.847 77.6713 66.5087 76.855 66.5087ZM75.377 80.9189C75.377 81.7352 76.0387 82.3969 76.8549 82.3969C77.6712 82.3969 78.3329 81.7352 78.3329 80.9189C78.3329 80.1027 77.6712 79.441 76.8549 79.441C76.0387 79.441 75.377 80.1027 75.377 80.9189ZM76.8549 98.2856C76.0387 98.2856 75.377 97.6239 75.377 96.8076C75.377 95.9914 76.0387 95.3296 76.8549 95.3296C77.6712 95.3296 78.3329 95.9914 78.3329 96.8076C78.3329 97.6239 77.6712 98.2856 76.8549 98.2856ZM75.377 112.695C75.377 113.511 76.0387 114.173 76.855 114.173C77.6713 114.173 78.333 113.511 78.333 112.695C78.333 111.879 77.6713 111.217 76.855 111.217C76.0387 111.217 75.377 111.879 75.377 112.695ZM76.855 130.061C76.0387 130.061 75.377 129.4 75.377 128.583C75.377 127.767 76.0387 127.105 76.855 127.105C77.6713 127.105 78.333 127.767 78.333 128.583C78.333 129.4 77.6713 130.061 76.855 130.061ZM64.2924 18.8442C63.4762 18.8442 62.8145 18.1825 62.8145 17.3662C62.8145 16.5499 63.4762 15.8882 64.2924 15.8882C65.1087 15.8882 65.7704 16.5499 65.7704 17.3662C65.7704 18.1825 65.1087 18.8442 64.2924 18.8442ZM62.8145 33.2549C62.8145 34.0711 63.4762 34.7328 64.2924 34.7328C65.1087 34.7328 65.7704 34.0711 65.7704 33.2549C65.7704 32.4386 65.1087 31.7769 64.2924 31.7769C63.4762 31.7769 62.8145 32.4386 62.8145 33.2549ZM64.2925 50.62C63.4762 50.62 62.8145 49.9583 62.8145 49.142C62.8145 48.3258 63.4762 47.6641 64.2925 47.6641C65.1088 47.6641 65.7705 48.3258 65.7705 49.142C65.7705 49.9583 65.1088 50.62 64.2925 50.62ZM62.8145 65.0307C62.8145 65.847 63.4762 66.5087 64.2925 66.5087C65.1088 66.5087 65.7705 65.847 65.7705 65.0307C65.7705 64.2145 65.1088 63.5527 64.2925 63.5527C63.4762 63.5527 62.8145 64.2145 62.8145 65.0307ZM64.2924 82.3969C63.4762 82.3969 62.8145 81.7352 62.8145 80.9189C62.8145 80.1027 63.4762 79.441 64.2924 79.441C65.1087 79.441 65.7704 80.1027 65.7704 80.9189C65.7704 81.7352 65.1087 82.3969 64.2924 82.3969ZM62.8145 96.8076C62.8145 97.6239 63.4762 98.2856 64.2924 98.2856C65.1087 98.2856 65.7704 97.6239 65.7704 96.8076C65.7704 95.9914 65.1087 95.3296 64.2924 95.3296C63.4762 95.3296 62.8145 95.9914 62.8145 96.8076ZM64.2925 114.173C63.4762 114.173 62.8145 113.511 62.8145 112.695C62.8145 111.879 63.4762 111.217 64.2925 111.217C65.1088 111.217 65.7705 111.879 65.7705 112.695C65.7705 113.511 65.1088 114.173 64.2925 114.173ZM62.8145 128.583C62.8145 129.4 63.4762 130.061 64.2925 130.061C65.1088 130.061 65.7705 129.4 65.7705 128.583C65.7705 127.767 65.1088 127.105 64.2925 127.105C63.4762 127.105 62.8145 127.767 62.8145 128.583ZM50.25 17.3662C50.25 18.1825 50.9117 18.8442 51.728 18.8442C52.5442 18.8442 53.2059 18.1825 53.2059 17.3662C53.2059 16.5499 52.5442 15.8882 51.728 15.8882C50.9117 15.8882 50.25 16.5499 50.25 17.3662ZM51.728 34.7329C50.9117 34.7329 50.25 34.0711 50.25 33.2549C50.25 32.4386 50.9117 31.7769 51.728 31.7769C52.5442 31.7769 53.2059 32.4386 53.2059 33.2549C53.2059 34.0711 52.5442 34.7329 51.728 34.7329ZM50.2501 49.142C50.2501 49.9583 50.9118 50.62 51.7281 50.62C52.5443 50.62 53.206 49.9583 53.206 49.142C53.206 48.3258 52.5443 47.6641 51.7281 47.6641C50.9118 47.6641 50.2501 48.3258 50.2501 49.142ZM51.7281 66.5087C50.9118 66.5087 50.2501 65.847 50.2501 65.0307C50.2501 64.2145 50.9118 63.5527 51.7281 63.5527C52.5443 63.5527 53.206 64.2145 53.206 65.0307C53.206 65.847 52.5443 66.5087 51.7281 66.5087ZM50.25 80.9189C50.25 81.7352 50.9117 82.3969 51.728 82.3969C52.5442 82.3969 53.2059 81.7352 53.2059 80.9189C53.2059 80.1027 52.5442 79.441 51.728 79.441C50.9117 79.441 50.25 80.1027 50.25 80.9189ZM51.728 98.2856C50.9117 98.2856 50.25 97.6239 50.25 96.8076C50.25 95.9914 50.9117 95.3296 51.728 95.3296C52.5442 95.3296 53.2059 95.9914 53.2059 96.8076C53.2059 97.6239 52.5442 98.2856 51.728 98.2856ZM50.2501 112.695C50.2501 113.511 50.9118 114.173 51.7281 114.173C52.5443 114.173 53.206 113.511 53.206 112.695C53.206 111.879 52.5443 111.217 51.7281 111.217C50.9118 111.217 50.2501 111.879 50.2501 112.695ZM51.7281 130.061C50.9118 130.061 50.2501 129.4 50.2501 128.583C50.2501 127.767 50.9118 127.105 51.7281 127.105C52.5443 127.105 53.206 127.767 53.206 128.583C53.206 129.4 52.5443 130.061 51.7281 130.061ZM39.1674 18.8442C38.3512 18.8442 37.6895 18.1825 37.6895 17.3662C37.6895 16.5499 38.3512 15.8882 39.1674 15.8882C39.9837 15.8882 40.6454 16.5499 40.6454 17.3662C40.6454 18.1825 39.9837 18.8442 39.1674 18.8442ZM37.6895 33.2549C37.6895 34.0711 38.3512 34.7328 39.1674 34.7328C39.9837 34.7328 40.6454 34.0711 40.6454 33.2549C40.6454 32.4386 39.9837 31.7769 39.1674 31.7769C38.3512 31.7769 37.6895 32.4386 37.6895 33.2549ZM39.1675 50.62C38.3512 50.62 37.6895 49.9583 37.6895 49.142C37.6895 48.3258 38.3512 47.6641 39.1675 47.6641C39.9838 47.6641 40.6455 48.3258 40.6455 49.142C40.6455 49.9583 39.9838 50.62 39.1675 50.62ZM37.6895 65.0307C37.6895 65.847 38.3512 66.5087 39.1675 66.5087C39.9838 66.5087 40.6455 65.847 40.6455 65.0307C40.6455 64.2145 39.9838 63.5527 39.1675 63.5527C38.3512 63.5527 37.6895 64.2145 37.6895 65.0307ZM39.1674 82.3969C38.3512 82.3969 37.6895 81.7352 37.6895 80.9189C37.6895 80.1027 38.3512 79.441 39.1674 79.441C39.9837 79.441 40.6454 80.1027 40.6454 80.9189C40.6454 81.7352 39.9837 82.3969 39.1674 82.3969ZM37.6895 96.8076C37.6895 97.6239 38.3512 98.2856 39.1674 98.2856C39.9837 98.2856 40.6454 97.6239 40.6454 96.8076C40.6454 95.9914 39.9837 95.3296 39.1674 95.3296C38.3512 95.3296 37.6895 95.9914 37.6895 96.8076ZM39.1675 114.173C38.3512 114.173 37.6895 113.511 37.6895 112.695C37.6895 111.879 38.3512 111.217 39.1675 111.217C39.9838 111.217 40.6455 111.879 40.6455 112.695C40.6455 113.511 39.9838 114.173 39.1675 114.173ZM37.6895 128.583C37.6895 129.4 38.3512 130.061 39.1675 130.061C39.9838 130.061 40.6455 129.4 40.6455 128.583C40.6455 127.767 39.9838 127.105 39.1675 127.105C38.3512 127.105 37.6895 127.767 37.6895 128.583ZM25.127 17.3662C25.127 18.1825 25.7887 18.8442 26.6049 18.8442C27.4212 18.8442 28.0829 18.1825 28.0829 17.3662C28.0829 16.5499 27.4212 15.8882 26.6049 15.8882C25.7887 15.8882 25.127 16.5499 25.127 17.3662ZM26.6049 34.7328C25.7887 34.7328 25.127 34.0711 25.127 33.2549C25.127 32.4386 25.7887 31.7769 26.6049 31.7769C27.4212 31.7769 28.0829 32.4386 28.0829 33.2549C28.0829 34.0711 27.4212 34.7328 26.6049 34.7328ZM25.127 49.142C25.127 49.9583 25.7887 50.62 26.605 50.62C27.4213 50.62 28.083 49.9583 28.083 49.142C28.083 48.3258 27.4213 47.6641 26.605 47.6641C25.7887 47.6641 25.127 48.3258 25.127 49.142ZM26.605 66.5087C25.7887 66.5087 25.127 65.847 25.127 65.0307C25.127 64.2145 25.7887 63.5527 26.605 63.5527C27.4213 63.5527 28.083 64.2145 28.083 65.0307C28.083 65.847 27.4213 66.5087 26.605 66.5087ZM25.127 80.9189C25.127 81.7352 25.7887 82.3969 26.6049 82.3969C27.4212 82.3969 28.0829 81.7352 28.0829 80.9189C28.0829 80.1027 27.4212 79.441 26.6049 79.441C25.7887 79.441 25.127 80.1027 25.127 80.9189ZM26.6049 98.2856C25.7887 98.2856 25.127 97.6239 25.127 96.8076C25.127 95.9914 25.7887 95.3296 26.6049 95.3296C27.4212 95.3296 28.0829 95.9914 28.0829 96.8076C28.0829 97.6239 27.4212 98.2856 26.6049 98.2856ZM25.127 112.695C25.127 113.511 25.7887 114.173 26.605 114.173C27.4213 114.173 28.083 113.511 28.083 112.695C28.083 111.879 27.4213 111.217 26.605 111.217C25.7887 111.217 25.127 111.879 25.127 112.695ZM26.605 130.061C25.7887 130.061 25.127 129.4 25.127 128.583C25.127 127.767 25.7887 127.105 26.605 127.105C27.4213 127.105 28.083 127.767 28.083 128.583C28.083 129.4 27.4213 130.061 26.605 130.061ZM14.0405 18.8442C13.2242 18.8442 12.5625 18.1825 12.5625 17.3662C12.5625 16.5499 13.2242 15.8882 14.0405 15.8882C14.8567 15.8882 15.5184 16.5499 15.5184 17.3662C15.5184 18.1825 14.8567 18.8442 14.0405 18.8442ZM12.5625 33.2549C12.5625 34.0711 13.2242 34.7329 14.0405 34.7329C14.8567 34.7329 15.5184 34.0711 15.5184 33.2549C15.5184 32.4386 14.8567 31.7769 14.0405 31.7769C13.2242 31.7769 12.5625 32.4386 12.5625 33.2549ZM14.0406 50.62C13.2243 50.62 12.5626 49.9583 12.5626 49.142C12.5626 48.3258 13.2243 47.6641 14.0406 47.6641C14.8568 47.6641 15.5185 48.3258 15.5185 49.142C15.5185 49.9583 14.8568 50.62 14.0406 50.62ZM12.5626 65.0307C12.5626 65.847 13.2243 66.5087 14.0406 66.5087C14.8568 66.5087 15.5185 65.847 15.5185 65.0307C15.5185 64.2145 14.8568 63.5527 14.0406 63.5527C13.2243 63.5527 12.5626 64.2145 12.5626 65.0307ZM14.0405 82.3969C13.2242 82.3969 12.5625 81.7352 12.5625 80.9189C12.5625 80.1027 13.2242 79.441 14.0405 79.441C14.8567 79.441 15.5184 80.1027 15.5184 80.9189C15.5184 81.7352 14.8567 82.3969 14.0405 82.3969ZM12.5625 96.8076C12.5625 97.6239 13.2242 98.2856 14.0405 98.2856C14.8567 98.2856 15.5184 97.6239 15.5184 96.8076C15.5184 95.9914 14.8567 95.3296 14.0405 95.3296C13.2242 95.3296 12.5625 95.9914 12.5625 96.8076ZM14.0406 114.173C13.2243 114.173 12.5626 113.511 12.5626 112.695C12.5626 111.879 13.2243 111.217 14.0406 111.217C14.8568 111.217 15.5185 111.879 15.5185 112.695C15.5185 113.511 14.8568 114.173 14.0406 114.173ZM12.5626 128.583C12.5626 129.4 13.2243 130.061 14.0406 130.061C14.8568 130.061 15.5185 129.4 15.5185 128.583C15.5185 127.767 14.8568 127.105 14.0406 127.105C13.2243 127.105 12.5626 127.767 12.5626 128.583ZM1.50095 3.00001C0.672516 3.00001 0.000946248 2.32844 0.000946176 1.50001C0.000946104 0.671583 0.672516 1.0084e-05 1.50095 1.00116e-05C2.32938 9.93919e-06 3.00095 0.671583 3.00095 1.50001C3.00095 2.32844 2.32938 3.00001 1.50095 3.00001ZM1.5182e-06 17.3662C1.58956e-06 18.1825 0.661714 18.8442 1.47798 18.8442C2.29423 18.8442 2.95594 18.1825 2.95594 17.3662C2.95594 16.5499 2.29423 15.8882 1.47798 15.8882C0.661714 15.8882 1.44684e-06 16.5499 1.5182e-06 17.3662ZM1.47798 34.7329C0.661716 34.7329 2.97859e-06 34.0711 2.90723e-06 33.2549C2.83587e-06 32.4386 0.661715 31.7769 1.47798 31.7769C2.29423 31.7769 2.95594 32.4386 2.95594 33.2549C2.95594 34.0711 2.29423 34.7329 1.47798 34.7329ZM8.05901e-05 49.142C8.06614e-05 49.9583 0.661793 50.62 1.47805 50.62C2.29431 50.62 2.95602 49.9583 2.95602 49.142C2.95602 48.3258 2.29431 47.6641 1.47805 47.6641C0.661793 47.6641 8.05187e-05 48.3258 8.05901e-05 49.142ZM1.47806 66.5087C0.661795 66.5087 8.20505e-05 65.847 8.19791e-05 65.0307C8.19078e-05 64.2145 0.661794 63.5527 1.47806 63.5527C2.29431 63.5527 2.95602 64.2145 2.95602 65.0307C2.95602 65.847 2.29431 66.5087 1.47806 66.5087ZM-5.55237e-07 80.9189C-4.83877e-07 81.7352 0.661712 82.3969 1.47797 82.3969C2.29423 82.3969 2.95594 81.7352 2.95594 80.9189C2.95594 80.1027 2.29423 79.441 1.47797 79.441C0.661712 79.441 -6.26596e-07 80.1027 -5.55237e-07 80.9189ZM1.47797 98.2856C0.661714 98.2856 9.05155e-07 97.6239 8.33795e-07 96.8076C7.62436e-07 95.9914 0.661713 95.3296 1.47797 95.3296C2.29423 95.3296 2.95594 95.9914 2.95594 96.8076C2.95594 97.6239 2.29423 98.2856 1.47797 98.2856ZM7.85166e-05 112.695C7.8588e-05 113.511 0.661791 114.173 1.47805 114.173C2.29431 114.173 2.95602 113.511 2.95602 112.695C2.95602 111.879 2.29431 111.217 1.47805 111.217C0.661791 111.217 7.84453e-05 111.879 7.85166e-05 112.695ZM1.47805 130.061C0.661793 130.061 7.9977e-05 129.4 7.99057e-05 128.583C7.98343e-05 127.767 0.661792 127.105 1.47805 127.105C2.29431 127.105 2.95602 127.767 2.95602 128.583C2.95602 129.4 2.29431 130.061 1.47805 130.061Z" fill="url(#paint0_linear_1_308)"/>
<defs>
<linearGradient id="paint0_linear_1_308" x1="101.645" y1="-19.5509" x2="-42.6866" y2="187.074" gradientUnits="userSpaceOnUse">
<stop stop-color="#009ECB" stop-opacity="0"/>
<stop offset="1" stop-color="#009ECB" stop-opacity="0.5"/>
</linearGradient>
</defs>
</svg>
