<svg width="107" height="119" viewBox="0 0 107 119" fill="none" xmlns="http://www.w3.org/2000/svg">
<g opacity="0.4">
<circle cx="1.35192" cy="1.35058" r="1.35058" fill="#009ECB"/>
<circle cx="1.35192" cy="15.8694" r="1.35058" fill="#009ECB"/>
<circle cx="1.35192" cy="30.3881" r="1.35058" fill="#009ECB"/>
<circle cx="1.35192" cy="44.9069" r="1.35058" fill="#009ECB"/>
<circle cx="1.35192" cy="59.4255" r="1.35058" fill="#009ECB"/>
<circle cx="1.35192" cy="73.9443" r="1.35058" fill="#009ECB"/>
<circle cx="1.35192" cy="88.463" r="1.35058" fill="#009ECB"/>
<circle cx="1.35192" cy="102.982" r="1.35058" fill="#009ECB"/>
<circle cx="1.35192" cy="117.5" r="1.35058" fill="#009ECB"/>
<circle cx="12.8312" cy="1.35058" r="1.35058" fill="#009ECB"/>
<circle cx="12.8312" cy="15.8694" r="1.35058" fill="#009ECB"/>
<circle cx="12.8312" cy="30.3881" r="1.35058" fill="#009ECB"/>
<circle cx="12.8312" cy="44.9069" r="1.35058" fill="#009ECB"/>
<circle cx="12.8312" cy="59.4255" r="1.35058" fill="#009ECB"/>
<circle cx="12.8312" cy="73.9443" r="1.35058" fill="#009ECB"/>
<circle cx="12.8312" cy="88.463" r="1.35058" fill="#009ECB"/>
<circle cx="12.8312" cy="102.982" r="1.35058" fill="#009ECB"/>
<circle cx="12.8312" cy="117.5" r="1.35058" fill="#009ECB"/>
<circle cx="24.3122" cy="1.35058" r="1.35058" fill="#009ECB"/>
<circle cx="24.3122" cy="15.8694" r="1.35058" fill="#009ECB"/>
<circle cx="24.3122" cy="30.3881" r="1.35058" fill="#009ECB"/>
<circle cx="24.3122" cy="44.9069" r="1.35058" fill="#009ECB"/>
<circle cx="24.3122" cy="59.4255" r="1.35058" fill="#009ECB"/>
<circle cx="24.3122" cy="73.9443" r="1.35058" fill="#009ECB"/>
<circle cx="24.3122" cy="88.463" r="1.35058" fill="#009ECB"/>
<circle cx="24.3122" cy="102.982" r="1.35058" fill="#009ECB"/>
<circle cx="24.3122" cy="117.5" r="1.35058" fill="#009ECB"/>
<circle cx="35.7915" cy="1.35058" r="1.35058" fill="#009ECB"/>
<circle cx="35.7915" cy="15.8694" r="1.35058" fill="#009ECB"/>
<circle cx="35.7915" cy="30.3881" r="1.35058" fill="#009ECB"/>
<circle cx="35.7915" cy="44.9069" r="1.35058" fill="#009ECB"/>
<circle cx="35.7915" cy="59.4255" r="1.35058" fill="#009ECB"/>
<circle cx="35.7915" cy="73.9443" r="1.35058" fill="#009ECB"/>
<circle cx="35.7915" cy="88.463" r="1.35058" fill="#009ECB"/>
<circle cx="35.7915" cy="102.982" r="1.35058" fill="#009ECB"/>
<circle cx="35.7915" cy="117.5" r="1.35058" fill="#009ECB"/>
<circle cx="47.2713" cy="1.35058" r="1.35058" fill="#009ECB"/>
<circle cx="47.2713" cy="15.8694" r="1.35058" fill="#009ECB"/>
<circle cx="47.2713" cy="30.3881" r="1.35058" fill="#009ECB"/>
<circle cx="47.2713" cy="44.9069" r="1.35058" fill="#009ECB"/>
<circle cx="47.2713" cy="59.4255" r="1.35058" fill="#009ECB"/>
<circle cx="47.2713" cy="73.9443" r="1.35058" fill="#009ECB"/>
<circle cx="47.2713" cy="88.463" r="1.35058" fill="#009ECB"/>
<circle cx="47.2713" cy="102.982" r="1.35058" fill="#009ECB"/>
<circle cx="47.2713" cy="117.5" r="1.35058" fill="#009ECB"/>
<circle cx="58.7522" cy="1.35058" r="1.35058" fill="#009ECB"/>
<circle cx="58.7522" cy="15.8694" r="1.35058" fill="#009ECB"/>
<circle cx="58.7522" cy="30.3881" r="1.35058" fill="#009ECB"/>
<circle cx="58.7522" cy="44.9069" r="1.35058" fill="#009ECB"/>
<circle cx="58.7522" cy="59.4255" r="1.35058" fill="#009ECB"/>
<circle cx="58.7522" cy="73.9443" r="1.35058" fill="#009ECB"/>
<circle cx="58.7522" cy="88.463" r="1.35058" fill="#009ECB"/>
<circle cx="58.7522" cy="102.982" r="1.35058" fill="#009ECB"/>
<circle cx="58.7522" cy="117.5" r="1.35058" fill="#009ECB"/>
<circle cx="70.2315" cy="1.35058" r="1.35058" fill="#009ECB"/>
<circle cx="70.2315" cy="15.8694" r="1.35058" fill="#009ECB"/>
<circle cx="70.2315" cy="30.3881" r="1.35058" fill="#009ECB"/>
<circle cx="70.2315" cy="44.9069" r="1.35058" fill="#009ECB"/>
<circle cx="70.2315" cy="59.4255" r="1.35058" fill="#009ECB"/>
<circle cx="70.2315" cy="73.9443" r="1.35058" fill="#009ECB"/>
<circle cx="70.2315" cy="88.463" r="1.35058" fill="#009ECB"/>
<circle cx="70.2315" cy="102.982" r="1.35058" fill="#009ECB"/>
<circle cx="70.2315" cy="117.5" r="1.35058" fill="#009ECB"/>
<circle cx="81.7114" cy="1.35058" r="1.35058" fill="#009ECB"/>
<circle cx="81.7114" cy="15.8694" r="1.35058" fill="#009ECB"/>
<circle cx="81.7114" cy="30.3881" r="1.35058" fill="#009ECB"/>
<circle cx="81.7114" cy="44.9069" r="1.35058" fill="#009ECB"/>
<circle cx="81.7114" cy="59.4255" r="1.35058" fill="#009ECB"/>
<circle cx="81.7114" cy="73.9443" r="1.35058" fill="#009ECB"/>
<circle cx="81.7114" cy="88.463" r="1.35058" fill="#009ECB"/>
<circle cx="81.7114" cy="102.982" r="1.35058" fill="#009ECB"/>
<circle cx="81.7114" cy="117.5" r="1.35058" fill="#009ECB"/>
<circle cx="93.1918" cy="1.35058" r="1.35058" fill="#009ECB"/>
<circle cx="93.1918" cy="15.8694" r="1.35058" fill="#009ECB"/>
<circle cx="93.1918" cy="30.3881" r="1.35058" fill="#009ECB"/>
<circle cx="93.1918" cy="44.9069" r="1.35058" fill="#009ECB"/>
<circle cx="93.1918" cy="59.4255" r="1.35058" fill="#009ECB"/>
<circle cx="93.1918" cy="73.9443" r="1.35058" fill="#009ECB"/>
<circle cx="93.1918" cy="88.463" r="1.35058" fill="#009ECB"/>
<circle cx="93.1918" cy="102.982" r="1.35058" fill="#009ECB"/>
<circle cx="93.1918" cy="117.5" r="1.35058" fill="#009ECB"/>
<circle cx="104.672" cy="1.35058" r="1.35058" fill="#009ECB"/>
<circle cx="104.672" cy="15.8694" r="1.35058" fill="#009ECB"/>
<circle cx="104.672" cy="30.3881" r="1.35058" fill="#009ECB"/>
<circle cx="104.672" cy="44.9069" r="1.35058" fill="#009ECB"/>
<circle cx="104.672" cy="59.4255" r="1.35058" fill="#009ECB"/>
<circle cx="104.672" cy="73.9443" r="1.35058" fill="#009ECB"/>
<circle cx="104.672" cy="88.463" r="1.35058" fill="#009ECB"/>
<circle cx="104.672" cy="102.982" r="1.35058" fill="#009ECB"/>
<circle cx="104.672" cy="117.5" r="1.35058" fill="#009ECB"/>
</g>
</svg>
