<svg width="156" height="35" viewBox="0 0 156 35" fill="none" xmlns="http://www.w3.org/2000/svg">
<g clip-path="url(#clip0_1_685)">
<path d="M148.243 25.0065V16.0366H143.777V13.1967H155.809V16.0366H151.345V25.0065H148.243ZM138.878 20.7718V13.1967H141.983V25.0065H138.878L132.837 17.4293V25.0065H129.735V13.1967H132.837L138.878 20.7718ZM127.447 13.1967V20.0494C127.447 22.9458 126.141 25.2851 121.57 25.2851H120.97C116.398 25.2851 115.09 22.8892 115.09 20.0494V13.1967H118.193V19.6033C118.193 21.1069 118.193 22.4997 121.297 22.4997C124.4 22.4997 124.4 21.1069 124.4 19.6033V13.1967H127.447ZM103.659 13.1967V17.7644H109.647V13.1967H112.749V25.0065H109.647V20.6064H103.659V25.0065H100.556V13.1967H103.659ZM58.3139 20.0494L56.5724 16.0366L54.8308 20.0494H58.3139ZM49.9316 25.0065V24.2819L55.0477 13.1967H58.1522L63.2682 24.2819V25.0065H60.4914L59.5132 22.7216H53.6869L52.7087 25.0065H49.9316ZM42.9635 25.0065V16.0366H38.5002V13.1967H50.5313V16.0366H46.0659V25.0065H42.9635ZM28.2659 25.0065V13.1967H31.3683V22.1645H39.3167V25.0065H28.2659ZM26.2522 16.0366H18.3038V17.821H24.5107V20.6608H18.3038V22.2211H26.2522V25.0631H15.2014V13.1967H26.197L26.2522 16.0366ZM9.75786 19.1006C9.75786 17.0963 9.75786 15.647 5.67522 15.647C5.07771 15.647 4.31434 15.647 3.55309 15.7037V22.4997C4.31434 22.5562 5.07771 22.5562 5.67522 22.5562C9.75786 22.5562 9.75786 21.1069 9.75786 19.1006ZM12.9155 19.5467C12.9155 22.7216 11.4462 25.3417 6.16644 25.3417H5.56678C3.82527 25.3417 2.08376 25.2285 0.450699 25.0065V13.1967C2.08376 12.9726 3.82527 12.8072 5.56678 12.8072H6.16644C11.4462 12.8072 12.9155 15.4251 12.9155 18.6001V19.5467Z" fill="white"/>
<path d="M68.0592 22.3887L70.1814 25.507L80.1432 7.06872L87.003 19.3791L90.486 19.4356L79.818 0.605652L68.0592 22.3887Z" fill="#DEDEDE"/>
<path d="M83.6262 0.605652H79.8156L90.486 19.4356H76.3884L74.8638 22.1645H95.7126L83.6262 0.605652Z" fill="#A1A1A1"/>
<path d="M93.2634 25.5071H70.1814L80.1432 7.06879L81.7212 9.96519L74.8638 22.1645H95.7126L93.2634 25.5071Z" fill="#616160"/>
<path d="M152.326 34.7555V31.0779H153.304V33.8634H155.753V34.7555H152.326ZM141.491 33.2519L140.947 32.0267L140.403 33.2519H141.491ZM138.878 34.7555V34.5336L140.458 31.0779H141.439L143.016 34.5336V34.7555H142.144L141.819 34.0309H140.022L139.695 34.7555H138.878ZM128.646 33.4738V31.1345H129.624V34.8122H128.646L126.794 32.4707V34.8122H125.814V31.1345H126.794L128.646 33.4738ZM114.329 33.9765C115.471 33.9765 115.471 33.4738 115.471 32.9168C115.471 32.3596 115.471 31.8591 114.329 31.8591C113.185 31.8591 113.185 32.3596 113.185 32.9168C113.185 33.4738 113.185 33.9765 114.329 33.9765ZM112.26 32.8057C112.26 31.8026 112.696 31.0235 114.221 31.0235H114.437C115.962 31.0235 116.398 31.8026 116.398 32.8057V33.0843C116.398 34.0875 115.962 34.8666 114.437 34.8666H114.221C112.696 34.8666 112.26 34.0875 112.26 33.0843V32.8057ZM102.79 34.7555H101.809V31.0779H102.79V34.7555ZM90.2136 34.7555V31.9702H88.8528V31.0779H92.6082V31.9702H91.194V34.7555H90.2136ZM78.7824 33.2519L78.2382 32.0267L77.694 33.2519H78.7824ZM76.1694 34.7555V34.5336L77.7492 31.0779H78.7272L80.307 34.5336V34.7555H79.4352L79.11 34.0309H77.313L76.9854 34.7555H76.1694ZM65.8818 33.4738V31.1345H66.8622V34.8122H65.8818L64.0296 32.4163V34.7555H63.0516V31.0779H64.0296L65.8818 33.4738ZM50.9119 31.9135V32.6948C51.2372 32.7492 51.5647 32.7492 51.7285 32.7492C52.5982 32.7492 52.5982 32.5838 52.5982 32.2487C52.5982 32.0267 52.5982 31.8591 51.8922 31.8591C51.6731 31.8591 51.2372 31.8591 50.9119 31.9135ZM52.7087 34.7555L52.0006 33.5848C51.62 33.5848 51.2926 33.5848 50.9119 33.5304V34.7555H49.9316V31.0779C50.5313 31.0235 51.2372 30.9669 51.8922 30.9669H52.0538C53.2531 30.9669 53.5784 31.524 53.5784 32.1921V32.4163C53.5784 32.8624 53.4147 33.2519 52.9809 33.4738L53.6337 34.5336V34.7555H52.7087ZM40.5692 31.9702H38.1196V32.5272H40.0249V33.4194H38.1196V33.92H40.5692V34.8122H37.1393V31.1345H40.5692V31.9702ZM25.5442 34.7555V31.9702H24.1833V31.0779H27.9406V31.9702H26.4691V34.7555H25.5442ZM13.8958 33.4738V31.1345H14.8761V34.8122H13.8958L11.9906 32.4163V34.7555H11.0103V31.0779H11.9906L13.8958 33.4738ZM1.59257 34.7555H0.612305V31.0779H1.59257V34.7555Z" fill="white"/>
</g>
<defs>
<clipPath id="clip0_1_685">
<rect width="156" height="35" fill="white"/>
</clipPath>
</defs>
</svg>
