<svg width="104" height="29" viewBox="0 0 104 29" fill="none" xmlns="http://www.w3.org/2000/svg">
<path d="M0.710004 28C0.710004 27.907 0.723004 27.833 0.750004 27.78C0.783004 27.727 0.823004 27.697 0.870004 27.69L1.53 27.52L1.39 27.66V21.93L1.54 22.09L0.710004 21.9C0.705152 21.8342 0.719019 21.7683 0.750004 21.71C0.786241 21.6553 0.838696 21.6133 0.900004 21.59H2.76C2.76349 21.6654 2.74981 21.7406 2.72 21.81C2.70745 21.8326 2.69027 21.8523 2.66959 21.8678C2.64892 21.8833 2.62521 21.8943 2.6 21.9L1.92 22.07L2.06 21.92V27.66L1.91 27.5L2.76 27.69C2.76 27.77 2.75 27.833 2.73 27.88C2.71 27.92 2.663 27.96 2.59 28H0.710004ZM11.03 28.02C10.9793 28.0213 10.9286 28.0145 10.88 28C10.8464 27.9946 10.8131 27.988 10.78 27.98L6.72 22.28L6.82 22.23V27.74L6.76 27.53L7.59 27.69C7.59 27.77 7.577 27.833 7.55 27.88C7.53 27.927 7.483 27.967 7.41 28H5.71C5.71 27.907 5.723 27.833 5.75 27.78C5.783 27.727 5.823 27.697 5.87 27.69L6.53 27.54L6.44 27.79V21.91L6.54 22.07L5.71 21.9C5.70515 21.8342 5.71902 21.7683 5.75 21.71C5.78375 21.657 5.83248 21.6152 5.89 21.59H7.04L11.14 27.34L10.91 27.39V21.86L10.96 22.06L10.13 21.9C10.1252 21.8342 10.139 21.7683 10.17 21.71C10.2038 21.657 10.2525 21.6152 10.31 21.59H12.02C12.0235 21.6654 12.0098 21.7406 11.98 21.81C11.9674 21.8326 11.9503 21.8523 11.9296 21.8678C11.9089 21.8833 11.8852 21.8943 11.86 21.9L11.19 22.05L11.29 21.85V27.82C11.2886 27.857 11.2745 27.8923 11.25 27.92C11.2181 27.9501 11.1808 27.9738 11.14 27.99C11.1062 28.0084 11.0685 28.0186 11.03 28.02V28.02ZM15.92 28C15.92 27.907 15.933 27.833 15.96 27.78C15.9703 27.7558 15.9869 27.7347 16.0079 27.7189C16.029 27.7031 16.0539 27.6931 16.08 27.69L16.89 27.49L16.75 27.66V21.93L16.86 22.06L14.81 21.93L14.95 21.84L14.7 22.72C14.6953 22.7469 14.6849 22.7725 14.6693 22.7949C14.6538 22.8174 14.6335 22.8362 14.61 22.85C14.5444 22.8806 14.4722 22.8944 14.4 22.89V21.59H19.78V22.89C19.7046 22.8935 19.6294 22.8798 19.56 22.85C19.5343 22.8377 19.5119 22.8195 19.4945 22.7969C19.4772 22.7743 19.4653 22.748 19.46 22.72L19.22 21.84L19.36 21.93L17.31 22.06L17.42 21.93V27.66L17.28 27.5L18.38 27.68C18.3838 27.749 18.3701 27.8178 18.34 27.88C18.32 27.92 18.273 27.96 18.2 28H15.92V28ZM21.71 28C21.71 27.907 21.723 27.833 21.75 27.78C21.783 27.727 21.823 27.697 21.87 27.69L22.53 27.52L22.39 27.66V21.93L22.52 22.09L21.71 21.91C21.71 21.817 21.723 21.75 21.75 21.71C21.7863 21.6554 21.8387 21.6134 21.9 21.59H26.01V22.77C25.9346 22.7735 25.8594 22.7598 25.79 22.73C25.7414 22.7009 25.7057 22.6544 25.69 22.6L25.44 21.84L25.58 21.93L22.95 22.06L23.06 21.93V24.63L22.96 24.56H25.17L25.05 24.63L25.19 23.94C25.25 23.94 25.307 23.95 25.36 23.97C25.42 23.983 25.47 24.02 25.51 24.08V25.43C25.4935 25.4573 25.4717 25.4811 25.446 25.5C25.4203 25.5189 25.391 25.5325 25.36 25.54C25.3044 25.5536 25.2473 25.5603 25.19 25.56L25.04 24.85L25.17 24.94H22.96L23.06 24.85V27.59L22.96 27.48L25.86 27.66L25.73 27.78L26 26.6C26.087 26.6 26.153 26.613 26.2 26.64C26.2476 26.6675 26.2885 26.705 26.32 26.75V28H21.71V28ZM69.71 28C69.71 27.907 69.723 27.833 69.75 27.78C69.783 27.727 69.823 27.697 69.87 27.69L70.53 27.52L70.39 27.66V21.93L70.52 22.09L69.71 21.91C69.71 21.817 69.723 21.75 69.75 21.71C69.7863 21.6554 69.8387 21.6134 69.9 21.59H74.01V22.77C73.9346 22.7735 73.8594 22.7598 73.79 22.73C73.7414 22.7009 73.7057 22.6544 73.69 22.6L73.44 21.84L73.58 21.93L70.95 22.06L71.06 21.93V24.63L70.96 24.56H73.17L73.05 24.63L73.19 23.94C73.25 23.94 73.307 23.95 73.36 23.97C73.42 23.983 73.47 24.02 73.51 24.08V25.43C73.4935 25.4573 73.4717 25.4811 73.446 25.5C73.4203 25.5189 73.391 25.5325 73.36 25.54C73.3044 25.5536 73.2473 25.5603 73.19 25.56L73.04 24.85L73.17 24.94H70.96L71.06 24.85V27.59L70.96 27.48L73.86 27.66L73.73 27.78L74 26.6C74.087 26.6 74.153 26.613 74.2 26.64C74.2476 26.6675 74.2885 26.705 74.32 26.75V28H69.71V28ZM78.69 28.12C78.497 28.12 78.277 28.1 78.03 28.06C77.7834 28.0184 77.5396 27.9617 77.3 27.89C77.0667 27.8218 76.8393 27.7349 76.62 27.63L76.78 26.35C76.827 26.25 76.9 26.2 77 26.2C77.0303 26.2004 77.0604 26.2037 77.09 26.21C77.123 26.21 77.15 26.217 77.17 26.23L77.24 27.63L77.06 27.24C77.2 27.333 77.363 27.42 77.55 27.5C77.743 27.573 77.94 27.633 78.14 27.68C78.347 27.727 78.54 27.75 78.72 27.75C79.127 27.75 79.457 27.63 79.71 27.39C79.963 27.15 80.09 26.84 80.09 26.46C80.0953 26.2685 80.0505 26.0789 79.96 25.91C79.873 25.757 79.72 25.61 79.5 25.47C79.2005 25.2813 78.8862 25.1175 78.56 24.98C78.2087 24.8315 77.8735 24.6472 77.56 24.43C77.3396 24.2734 77.1582 24.0681 77.03 23.83C76.9194 23.5993 76.8646 23.3458 76.87 23.09C76.87 22.597 77.037 22.2 77.37 21.9C77.71 21.6 78.157 21.45 78.71 21.45C78.97 21.45 79.25 21.487 79.55 21.56C79.85 21.627 80.153 21.733 80.46 21.88L80.32 23.12C80.2447 23.1222 80.1697 23.1085 80.1 23.08C80.047 23.047 80.017 23.007 80.01 22.96L79.89 21.98L80.08 22.31C79.9069 22.1449 79.6982 22.0217 79.47 21.95C79.2171 21.8568 78.9496 21.8093 78.68 21.81C78.3 21.81 77.997 21.91 77.77 22.11C77.55 22.303 77.44 22.567 77.44 22.9C77.44 23.107 77.483 23.29 77.57 23.45C77.663 23.61 77.823 23.763 78.05 23.91C78.283 24.05 78.603 24.21 79.01 24.39C79.443 24.577 79.787 24.763 80.04 24.95C80.293 25.13 80.473 25.327 80.58 25.54C80.693 25.747 80.75 25.993 80.75 26.28C80.75 26.647 80.663 26.97 80.49 27.25C80.3139 27.5259 80.0646 27.7474 79.77 27.89C79.463 28.043 79.103 28.12 78.69 28.12V28.12ZM28.71 28C28.71 27.907 28.723 27.833 28.75 27.78C28.783 27.727 28.823 27.697 28.87 27.69L29.55 27.52L29.4 27.66V21.93L29.53 22.09L28.73 21.9C28.73 21.813 28.74 21.747 28.76 21.7C28.7927 21.6484 28.8421 21.6096 28.9 21.59H31.34C31.773 21.59 32.133 21.667 32.42 21.82C32.713 21.967 32.93 22.163 33.07 22.41C33.217 22.657 33.29 22.923 33.29 23.21C33.29 23.543 33.197 23.86 33.01 24.16C32.83 24.453 32.567 24.693 32.22 24.88C31.873 25.067 31.453 25.16 30.96 25.16C30.793 25.16 30.617 25.15 30.43 25.13C30.2636 25.1142 30.0993 25.0807 29.94 25.03H30.08V27.7L29.9 27.5L30.84 27.69C30.84 27.777 30.83 27.843 30.81 27.89C30.79 27.937 30.743 27.973 30.67 28H28.71V28ZM30.08 24.8L29.95 24.64C30.05 24.68 30.2 24.713 30.4 24.74C30.607 24.76 30.81 24.77 31.01 24.77C31.357 24.77 31.64 24.703 31.86 24.57C32.087 24.437 32.257 24.263 32.37 24.05C32.483 23.837 32.54 23.607 32.54 23.36C32.54 22.907 32.407 22.56 32.14 22.32C31.873 22.073 31.513 21.95 31.06 21.95C30.84 21.95 30.633 21.967 30.44 22C30.2784 22.0207 30.1181 22.0507 29.96 22.09L30.08 21.95V24.8V24.8ZM33.75 28.11C33.617 28.11 33.45 28.037 33.25 27.89C33.0119 27.6995 32.7941 27.4851 32.6 27.25C32.346 26.9386 32.1122 26.6113 31.9 26.27C31.66 25.883 31.43 25.457 31.21 24.99L31.7 24.81C32 25.317 32.307 25.78 32.62 26.2C32.933 26.62 33.23 26.973 33.51 27.26C33.797 27.54 34.04 27.73 34.24 27.83C34.1832 27.9065 34.1118 27.9711 34.03 28.02C33.9492 28.0802 33.8507 28.1119 33.75 28.11V28.11ZM49.71 28C49.71 27.907 49.723 27.833 49.75 27.78C49.783 27.727 49.823 27.697 49.87 27.69L50.55 27.52L50.4 27.66V21.93L50.53 22.09L49.73 21.9C49.73 21.813 49.74 21.747 49.76 21.7C49.7927 21.6484 49.8421 21.6096 49.9 21.59H52.34C52.773 21.59 53.133 21.667 53.42 21.82C53.713 21.967 53.93 22.163 54.07 22.41C54.217 22.657 54.29 22.923 54.29 23.21C54.29 23.543 54.197 23.86 54.01 24.16C53.83 24.453 53.567 24.693 53.22 24.88C52.873 25.067 52.453 25.16 51.96 25.16C51.793 25.16 51.617 25.15 51.43 25.13C51.2636 25.1142 51.0993 25.0807 50.94 25.03H51.08V27.7L50.9 27.5L51.84 27.69C51.84 27.777 51.83 27.843 51.81 27.89C51.79 27.937 51.743 27.973 51.67 28H49.71V28ZM51.08 24.8L50.95 24.64C51.05 24.68 51.2 24.713 51.4 24.74C51.607 24.76 51.81 24.77 52.01 24.77C52.357 24.77 52.64 24.703 52.86 24.57C53.087 24.437 53.257 24.263 53.37 24.05C53.483 23.837 53.54 23.607 53.54 23.36C53.54 22.907 53.407 22.56 53.14 22.32C52.873 22.073 52.513 21.95 52.06 21.95C51.84 21.95 51.633 21.967 51.44 22C51.2784 22.0207 51.1181 22.0507 50.96 22.09L51.08 21.95V24.8V24.8ZM54.75 28.11C54.617 28.11 54.45 28.037 54.25 27.89C54.0119 27.6995 53.7941 27.4851 53.6 27.25C53.346 26.9386 53.1122 26.6113 52.9 26.27C52.66 25.883 52.43 25.457 52.21 24.99L52.7 24.81C53 25.317 53.307 25.78 53.62 26.2C53.933 26.62 54.23 26.973 54.51 27.26C54.797 27.54 55.04 27.73 55.24 27.83C55.1832 27.9065 55.1118 27.9711 55.03 28.02C54.9492 28.0802 54.8507 28.1119 54.75 28.11V28.11ZM61.71 28C61.71 27.907 61.723 27.833 61.75 27.78C61.783 27.727 61.823 27.697 61.87 27.69L62.53 27.52L62.39 27.66V21.93L62.52 22.09L61.71 21.9C61.71 21.813 61.72 21.75 61.74 21.71C61.7738 21.657 61.8225 21.6152 61.88 21.59H64.65C65.137 21.59 65.56 21.673 65.92 21.84C66.287 22 66.59 22.22 66.83 22.5C67.07 22.773 67.25 23.087 67.37 23.44C67.49 23.793 67.55 24.163 67.55 24.55C67.55 24.957 67.48 25.367 67.34 25.78C67.2023 26.1825 66.996 26.558 66.73 26.89C66.4622 27.2242 66.1287 27.4999 65.75 27.7C65.37 27.9 64.933 28 64.44 28H61.71V28ZM64.42 27.62C64.7611 27.6273 65.0991 27.5542 65.4066 27.4065C65.7141 27.2589 65.9825 27.0408 66.19 26.77C66.39 26.503 66.54 26.203 66.64 25.87C66.747 25.537 66.8 25.19 66.8 24.83C66.8 24.317 66.707 23.84 66.52 23.4C66.34 22.96 66.07 22.61 65.71 22.35C65.35 22.083 64.907 21.95 64.38 21.95C64.073 21.95 63.8 21.967 63.56 22C63.32 22.033 63.113 22.073 62.94 22.12L63.06 21.98V27.6L62.96 27.46C63.16 27.513 63.387 27.553 63.64 27.58C63.9 27.607 64.16 27.62 64.42 27.62V27.62ZM36.71 28C36.71 27.907 36.723 27.833 36.75 27.78C36.783 27.727 36.823 27.697 36.87 27.69L37.53 27.52L37.39 27.66V21.93L37.54 22.09L36.71 21.9C36.7052 21.8342 36.719 21.7683 36.75 21.71C36.7863 21.6554 36.8387 21.6134 36.9 21.59H38.76C38.7635 21.6654 38.7498 21.7406 38.72 21.81C38.7074 21.8326 38.6903 21.8523 38.6696 21.8678C38.6489 21.8833 38.6252 21.8943 38.6 21.9L37.92 22.07L38.06 21.92V27.66L37.91 27.5L38.76 27.69C38.76 27.77 38.75 27.833 38.73 27.88C38.71 27.92 38.663 27.96 38.59 28H36.71V28ZM83.71 28C83.71 27.907 83.723 27.833 83.75 27.78C83.783 27.727 83.823 27.697 83.87 27.69L84.53 27.52L84.39 27.66V21.93L84.54 22.09L83.71 21.9C83.7052 21.8342 83.719 21.7683 83.75 21.71C83.7863 21.6554 83.8387 21.6134 83.9 21.59H85.76C85.7635 21.6654 85.7498 21.7406 85.72 21.81C85.7074 21.8326 85.6903 21.8523 85.6696 21.8678C85.6489 21.8833 85.6252 21.8943 85.6 21.9L84.92 22.07L85.06 21.92V27.66L84.91 27.5L85.76 27.69C85.76 27.77 85.75 27.833 85.73 27.88C85.71 27.92 85.663 27.96 85.59 28H83.71ZM91.54 28.12C90.953 28.12 90.44 27.993 90 27.74C89.5619 27.4886 89.2046 27.1174 88.97 26.67C88.723 26.21 88.6 25.673 88.6 25.06C88.6 24.54 88.683 24.063 88.85 23.63C89.017 23.19 89.247 22.807 89.54 22.48C89.84 22.153 90.19 21.9 90.59 21.72C90.99 21.54 91.427 21.45 91.9 21.45C92.227 21.45 92.547 21.493 92.86 21.58C93.18 21.66 93.467 21.78 93.72 21.94L93.54 23.28C93.454 23.2736 93.3696 23.2533 93.29 23.22C93.2672 23.204 93.2482 23.1831 93.2344 23.1589C93.2206 23.1347 93.2123 23.1078 93.21 23.08L93.14 22.18L93.27 22.35C93.123 22.217 92.903 22.11 92.61 22.03C92.3145 21.943 92.008 21.8992 91.7 21.9C91.22 21.9 90.803 22.017 90.45 22.25C90.097 22.477 89.823 22.807 89.63 23.24C89.443 23.667 89.35 24.173 89.35 24.76C89.35 25.353 89.447 25.87 89.64 26.31C89.833 26.75 90.107 27.09 90.46 27.33C90.82 27.57 91.243 27.69 91.73 27.69C92.323 27.69 92.813 27.497 93.2 27.11L93.09 27.38V25.42L93.23 25.61L92.26 25.43C92.26 25.337 92.273 25.27 92.3 25.23C92.3392 25.1805 92.391 25.1425 92.45 25.12H94.23C94.2338 25.189 94.2201 25.2578 94.19 25.32C94.1657 25.3708 94.1227 25.4102 94.07 25.43L93.58 25.61L93.75 25.41V27.42C93.1008 27.8709 92.3304 28.1149 91.54 28.12V28.12ZM102.03 28.02C101.979 28.0213 101.929 28.0145 101.88 28C101.846 27.9946 101.813 27.9879 101.78 27.98L97.72 22.28L97.82 22.23V27.74L97.76 27.53L98.59 27.69C98.59 27.77 98.577 27.833 98.55 27.88C98.53 27.927 98.483 27.967 98.41 28H96.71C96.71 27.907 96.723 27.833 96.75 27.78C96.783 27.727 96.823 27.697 96.87 27.69L97.53 27.54L97.44 27.79V21.91L97.54 22.07L96.71 21.9C96.7052 21.8342 96.719 21.7683 96.75 21.71C96.7838 21.657 96.8325 21.6152 96.89 21.59H98.04L102.14 27.34L101.91 27.39V21.86L101.96 22.06L101.13 21.9C101.13 21.813 101.143 21.75 101.17 21.71C101.204 21.657 101.252 21.6152 101.31 21.59H103.02C103.024 21.6654 103.01 21.7407 102.98 21.81C102.967 21.8325 102.95 21.8522 102.93 21.8677C102.909 21.8832 102.885 21.8942 102.86 21.9L102.19 22.05L102.29 21.85V27.82C102.289 27.857 102.275 27.8924 102.25 27.92C102.218 27.9501 102.181 27.9738 102.14 27.99C102.106 28.0083 102.068 28.0186 102.03 28.02V28.02ZM44.47 28.12C43.903 28.12 43.403 27.987 42.97 27.72C42.5418 27.445 42.1934 27.0622 41.96 26.61C41.7146 26.12 41.5911 25.578 41.6 25.03C41.6 24.517 41.683 24.043 41.85 23.61C42.023 23.177 42.26 22.8 42.56 22.48C42.867 22.153 43.217 21.9 43.61 21.72C44.003 21.54 44.423 21.45 44.87 21.45C45.437 21.45 45.937 21.587 46.37 21.86C46.803 22.127 47.14 22.493 47.38 22.96C47.62 23.42 47.74 23.943 47.74 24.53C47.74 25.017 47.657 25.48 47.49 25.92C47.33 26.353 47.1 26.737 46.8 27.07C46.5116 27.393 46.1614 27.6548 45.77 27.84C45.377 28.027 44.943 28.12 44.47 28.12ZM44.76 27.68C45.193 27.68 45.577 27.56 45.91 27.32C46.2525 27.0685 46.5217 26.7302 46.69 26.34C46.877 25.92 46.97 25.443 46.97 24.91C46.97 23.977 46.757 23.243 46.33 22.71C45.903 22.17 45.313 21.9 44.56 21.9C44.167 21.9 43.8 22.013 43.46 22.24C43.1115 22.4845 42.8324 22.8153 42.65 23.2C42.45 23.613 42.35 24.1 42.35 24.66C42.35 25.6 42.563 26.34 42.99 26.88C43.423 27.413 44.013 27.68 44.76 27.68V27.68ZM0.242004 16C0.242004 15.663 0.272004 15.394 0.334004 15.195C0.411004 14.995 0.503004 14.873 0.610004 14.827L2.22 14.321L1.806 14.804V2.522L2.22 3.005L0.242004 2.522C0.242004 2.262 0.265004 2.039 0.311004 1.855C0.372004 1.655 0.480004 1.456 0.633004 1.257H7.924C9.059 1.257 10.048 1.449 10.891 1.832C11.734 2.2 12.432 2.706 12.984 3.35C13.551 3.979 13.965 4.7 14.226 5.512C14.502 6.325 14.64 7.176 14.64 8.065C14.64 9.015 14.479 9.966 14.157 10.917C13.8403 11.8426 13.3656 12.7064 12.754 13.47C12.1415 14.236 11.3732 14.8632 10.5 15.31C9.626 15.77 8.622 16 7.487 16H0.242004V16ZM7.188 14.436C7.908 14.436 8.53801 14.283 9.07401 13.976C9.61092 13.6538 10.0672 13.2133 10.408 12.688C10.771 12.1123 11.0425 11.4839 11.213 10.825C11.4009 10.0885 11.4936 9.33103 11.489 8.571C11.489 7.544 11.32 6.593 10.983 5.719C10.661 4.829 10.178 4.124 9.53401 3.603C8.90501 3.066 8.116 2.798 7.165 2.798C6.598 2.798 6.069 2.844 5.578 2.936C5.16783 2.9948 4.76626 3.10291 4.382 3.258L4.773 2.844V14.344L4.543 14.022C4.911 14.175 5.325 14.282 5.785 14.344C6.245 14.405 6.713 14.436 7.188 14.436V14.436ZM36.188 16.276C34.731 16.276 33.458 15.985 32.37 15.402C31.3161 14.8384 30.446 13.9843 29.863 12.941C29.265 11.883 28.966 10.649 28.966 9.238C28.966 8.042 29.166 6.946 29.564 5.949C29.9422 4.96973 30.5043 4.07191 31.22 3.304C31.9361 2.55583 32.7969 1.96112 33.75 1.556C34.716 1.142 35.782 0.934998 36.947 0.934998C37.79 0.934998 38.626 1.035 39.454 1.234C40.282 1.434 40.987 1.709 41.57 2.062L41.133 5.719C40.75 5.704 40.451 5.658 40.236 5.581C40.021 5.489 39.899 5.366 39.868 5.213L39.684 3.212L39.983 3.649C39.676 3.358 39.201 3.112 38.557 2.913C37.9013 2.71191 37.2189 2.61111 36.533 2.614C35.598 2.614 34.8 2.852 34.141 3.327C33.481 3.787 32.968 4.462 32.6 5.351C32.247 6.225 32.071 7.291 32.071 8.548C32.071 9.836 32.255 10.932 32.623 11.837C32.991 12.742 33.52 13.432 34.21 13.907C34.915 14.382 35.751 14.62 36.717 14.62C37.882 14.62 38.795 14.26 39.454 13.539L38.879 14.689V9.974L39.27 10.756L36.924 10.25C36.924 9.974 36.954 9.752 37.016 9.583C37.093 9.399 37.216 9.207 37.384 9.008H42.881C42.881 9.345 42.851 9.614 42.789 9.813C42.728 9.997 42.636 10.12 42.513 10.181L41.133 10.687L41.708 9.905V14.666C40.9113 15.2012 40.0338 15.605 39.109 15.862C38.143 16.138 37.169 16.276 36.188 16.276V16.276ZM18.242 16C18.242 15.663 18.272 15.394 18.334 15.195C18.411 14.995 18.503 14.873 18.61 14.827L20.22 14.321L19.806 14.804V2.522L20.243 3.005L18.242 2.522C18.242 2.262 18.272 2.039 18.334 1.855C18.395 1.655 18.518 1.456 18.702 1.257H24.383C24.383 1.594 24.353 1.87 24.291 2.085C24.23 2.285 24.138 2.399 24.015 2.43L22.244 2.936L22.773 2.453V14.735L22.221 14.252L24.383 14.735C24.383 14.98 24.353 15.203 24.291 15.402C24.245 15.586 24.13 15.785 23.946 16H18.242V16ZM47.242 16C47.242 15.663 47.272 15.394 47.334 15.195C47.411 14.995 47.503 14.873 47.61 14.827L49.22 14.321L48.806 14.804V2.522L49.243 3.005L47.242 2.522C47.242 2.262 47.272 2.039 47.334 1.855C47.395 1.655 47.518 1.456 47.702 1.257H53.383C53.383 1.594 53.353 1.87 53.291 2.085C53.23 2.285 53.138 2.399 53.015 2.43L51.244 2.936L51.773 2.453V14.735L51.221 14.252L53.383 14.735C53.383 14.98 53.353 15.203 53.291 15.402C53.245 15.586 53.13 15.785 52.946 16H47.242ZM60.841 16C60.841 15.663 60.871 15.394 60.933 15.195C60.994 14.995 61.086 14.873 61.209 14.827L63.348 14.16L62.934 14.804V2.798L63.187 3.097L59.415 2.729L59.737 2.522L59.093 4.454C59.063 4.592 58.963 4.699 58.794 4.776C58.625 4.853 58.334 4.891 57.92 4.891V1.257H70.892V4.891C70.509 4.891 70.225 4.853 70.041 4.776C69.857 4.699 69.742 4.592 69.696 4.454L69.098 2.522L69.42 2.729L65.648 3.097L65.901 2.798V14.735L65.395 14.183L68.316 14.735C68.316 14.98 68.286 15.203 68.224 15.402C68.1437 15.6195 68.0271 15.8217 67.879 16H60.841V16ZM72.069 16C72.069 15.663 72.099 15.394 72.161 15.195C72.238 14.995 72.33 14.873 72.437 14.827L74.047 14.252L73.219 15.103L78.164 1.556C78.225 1.387 78.356 1.257 78.555 1.165C78.755 1.073 78.969 1.012 79.199 0.980998C79.429 0.950998 79.621 0.934998 79.774 0.934998C79.943 0.934998 80.111 0.942998 80.28 0.957998C80.449 0.972998 80.617 1.004 80.786 1.05L86.191 15.011L85.294 14.252L87.479 14.735C87.479 14.98 87.449 15.203 87.387 15.402C87.326 15.586 87.195 15.785 86.996 16H81.269C81.269 15.663 81.299 15.394 81.361 15.195C81.438 14.995 81.53 14.873 81.637 14.827L83.27 14.321L83.086 14.988L78.463 3.074L79.337 3.051L74.944 15.057L74.783 14.183L77.221 14.735C77.221 14.98 77.191 15.203 77.129 15.402C77.068 15.586 76.937 15.785 76.738 16H72.069V16ZM75.772 11.354L76.094 9.882H81.821L82.166 11.354H75.772ZM91.242 16C91.242 15.663 91.272 15.394 91.334 15.195C91.411 14.995 91.503 14.873 91.61 14.827L93.22 14.321L92.806 14.804V2.522L93.243 3.005L91.242 2.522C91.242 2.262 91.272 2.039 91.334 1.855C91.395 1.655 91.518 1.456 91.702 1.257H97.544C97.544 1.594 97.514 1.87 97.452 2.085C97.391 2.285 97.299 2.399 97.176 2.43L95.405 2.936L95.773 2.453V14.344L95.543 14.091L100.948 14.505L100.649 14.896L101.27 11.998C101.531 11.998 101.761 12.036 101.96 12.113C102.175 12.174 102.382 12.282 102.581 12.435V16H91.242Z" fill="white"/>
</svg>
