<svg width="95" height="39" viewBox="0 0 95 39" fill="none" xmlns="http://www.w3.org/2000/svg">
<path d="M4.692 33.248L4.068 33.716C3.948 33.476 3.764 33.284 3.516 33.14C3.268 32.996 2.992 32.924 2.688 32.924C2.36 32.924 2.08 33 1.848 33.152C1.616 33.296 1.5 33.512 1.5 33.8C1.5 34.056 1.604 34.256 1.812 34.4C2.02 34.544 2.364 34.664 2.844 34.76C3.508 34.896 3.996 35.096 4.308 35.36C4.628 35.624 4.788 35.972 4.788 36.404C4.788 36.996 4.58 37.436 4.164 37.724C3.756 38.004 3.26 38.144 2.676 38.144C1.692 38.144 0.952 37.78 0.456 37.052L1.104 36.572C1.256 36.828 1.472 37.04 1.752 37.208C2.04 37.368 2.344 37.448 2.664 37.448C3.048 37.448 3.364 37.372 3.612 37.22C3.86 37.06 3.984 36.808 3.984 36.464C3.984 36.184 3.852 35.968 3.588 35.816C3.332 35.664 2.912 35.52 2.328 35.384C2.12 35.336 1.94 35.284 1.788 35.228C1.636 35.172 1.468 35.088 1.284 34.976C1.108 34.864 0.968 34.716 0.864 34.532C0.768 34.34 0.72 34.12 0.72 33.872C0.72 33.336 0.912 32.932 1.296 32.66C1.688 32.38 2.164 32.24 2.724 32.24C3.124 32.24 3.508 32.332 3.876 32.516C4.244 32.692 4.516 32.936 4.692 33.248ZM13.54 33.08C14.108 33.64 14.392 34.344 14.392 35.192C14.392 36.04 14.108 36.744 13.54 37.304C12.98 37.864 12.264 38.144 11.392 38.144C10.528 38.144 9.81203 37.864 9.24403 37.304C8.68403 36.744 8.40403 36.04 8.40403 35.192C8.40403 34.344 8.68403 33.64 9.24403 33.08C9.81203 32.52 10.528 32.24 11.392 32.24C12.264 32.24 12.98 32.52 13.54 33.08ZM12.94 36.812C13.332 36.38 13.528 35.84 13.528 35.192C13.528 34.544 13.332 34.004 12.94 33.572C12.548 33.14 12.032 32.924 11.392 32.924C10.76 32.924 10.248 33.14 9.85603 33.572C9.46403 34.004 9.26803 34.544 9.26803 35.192C9.26803 35.832 9.46403 36.368 9.85603 36.8C10.248 37.232 10.76 37.448 11.392 37.448C12.032 37.448 12.548 37.236 12.94 36.812ZM19.388 28.928V38H18.572V28.928H19.388ZM28.8314 38H28.0514C28.0194 37.6 28.0034 37.28 28.0034 37.04H27.9794C27.8274 37.36 27.5674 37.624 27.1994 37.832C26.8394 38.04 26.4594 38.144 26.0594 38.144C25.3634 38.144 24.8314 37.936 24.4634 37.52C24.1034 37.104 23.9234 36.54 23.9234 35.828V32.384H24.7394V35.492C24.7394 36.124 24.8514 36.612 25.0754 36.956C25.3074 37.292 25.7034 37.46 26.2634 37.46C26.7354 37.46 27.1354 37.272 27.4634 36.896C27.7994 36.512 27.9674 35.968 27.9674 35.264V32.384H28.7834V36.764C28.7834 37.244 28.7994 37.656 28.8314 38ZM35.8761 32.384V33.068H34.2921V36.344C34.2921 36.736 34.3641 37.008 34.5081 37.16C34.6521 37.304 34.8601 37.376 35.1321 37.376C35.3641 37.376 35.6001 37.316 35.8401 37.196L35.8761 37.904C35.5801 38.016 35.2601 38.072 34.9161 38.072C34.5321 38.072 34.1961 37.96 33.9081 37.736C33.6201 37.512 33.4761 37.124 33.4761 36.572V33.068H32.3121V32.384H33.4761V30.8H34.2921V32.384H35.8761ZM40.3807 32.384V38H39.5647V32.384H40.3807ZM40.3687 29.816C40.4887 29.928 40.5487 30.064 40.5487 30.224C40.5487 30.384 40.4887 30.52 40.3687 30.632C40.2567 30.744 40.1247 30.8 39.9727 30.8C39.8207 30.8 39.6847 30.744 39.5647 30.632C39.4527 30.52 39.3967 30.384 39.3967 30.224C39.3967 30.064 39.4527 29.928 39.5647 29.816C39.6847 29.704 39.8207 29.648 39.9727 29.648C40.1247 29.648 40.2567 29.704 40.3687 29.816ZM49.6807 33.08C50.2487 33.64 50.5327 34.344 50.5327 35.192C50.5327 36.04 50.2487 36.744 49.6807 37.304C49.1207 37.864 48.4047 38.144 47.5327 38.144C46.6687 38.144 45.9527 37.864 45.3847 37.304C44.8247 36.744 44.5447 36.04 44.5447 35.192C44.5447 34.344 44.8247 33.64 45.3847 33.08C45.9527 32.52 46.6687 32.24 47.5327 32.24C48.4047 32.24 49.1207 32.52 49.6807 33.08ZM49.0807 36.812C49.4727 36.38 49.6687 35.84 49.6687 35.192C49.6687 34.544 49.4727 34.004 49.0807 33.572C48.6887 33.14 48.1727 32.924 47.5327 32.924C46.9007 32.924 46.3887 33.14 45.9967 33.572C45.6047 34.004 45.4087 34.544 45.4087 35.192C45.4087 35.832 45.6047 36.368 45.9967 36.8C46.3887 37.232 46.9007 37.448 47.5327 37.448C48.1727 37.448 48.6887 37.236 49.0807 36.812ZM54.6406 32.384H55.4206C55.4526 32.784 55.4686 33.104 55.4686 33.344H55.4926C55.6446 33.024 55.9006 32.76 56.2606 32.552C56.6286 32.344 57.0126 32.24 57.4126 32.24C58.1086 32.24 58.6366 32.448 58.9966 32.864C59.3646 33.28 59.5486 33.844 59.5486 34.556V38H58.7326V34.892C58.7326 34.26 58.6166 33.776 58.3846 33.44C58.1606 33.096 57.7686 32.924 57.2086 32.924C56.7366 32.924 56.3326 33.116 55.9966 33.5C55.6686 33.876 55.5046 34.416 55.5046 35.12V38H54.6886V33.62C54.6886 33.14 54.6726 32.728 54.6406 32.384ZM67.6733 33.248L67.0493 33.716C66.9293 33.476 66.7453 33.284 66.4973 33.14C66.2493 32.996 65.9733 32.924 65.6693 32.924C65.3413 32.924 65.0613 33 64.8293 33.152C64.5973 33.296 64.4813 33.512 64.4813 33.8C64.4813 34.056 64.5853 34.256 64.7933 34.4C65.0013 34.544 65.3453 34.664 65.8253 34.76C66.4893 34.896 66.9773 35.096 67.2893 35.36C67.6093 35.624 67.7693 35.972 67.7693 36.404C67.7693 36.996 67.5613 37.436 67.1453 37.724C66.7373 38.004 66.2413 38.144 65.6573 38.144C64.6733 38.144 63.9333 37.78 63.4373 37.052L64.0853 36.572C64.2373 36.828 64.4533 37.04 64.7333 37.208C65.0213 37.368 65.3253 37.448 65.6453 37.448C66.0293 37.448 66.3453 37.372 66.5933 37.22C66.8413 37.06 66.9653 36.808 66.9653 36.464C66.9653 36.184 66.8333 35.968 66.5693 35.816C66.3133 35.664 65.8933 35.52 65.3093 35.384C65.1013 35.336 64.9213 35.284 64.7693 35.228C64.6173 35.172 64.4493 35.088 64.2653 34.976C64.0893 34.864 63.9493 34.716 63.8453 34.532C63.7493 34.34 63.7013 34.12 63.7013 33.872C63.7013 33.336 63.8933 32.932 64.2773 32.66C64.6693 32.38 65.1453 32.24 65.7053 32.24C66.1053 32.24 66.4893 32.332 66.8573 32.516C67.2253 32.692 67.4973 32.936 67.6733 33.248Z" fill="#009ECB"/>
<path d="M7.588 11.4H7.418L7.792 25H0.244V0.928H10.818L15.17 13.882H15.34L19.114 0.928H30.028V25H22.174L22.412 11.468L22.208 11.434L17.72 25H12.008L7.588 11.4ZM33.8296 25V0.928H41.9896V25H33.8296ZM44.712 12.964C44.712 9.17867 45.9587 6.11867 48.452 3.784C50.968 1.42667 54.0847 0.247998 57.802 0.247998C59.638 0.247998 61.3833 0.553999 63.038 1.166C64.7153 1.75533 66.1093 2.56 67.22 3.58L62.256 9.564C61.372 8.36267 60.046 7.762 58.278 7.762C56.8953 7.762 55.7393 8.238 54.81 9.19C53.8807 10.142 53.416 11.4 53.416 12.964C53.416 14.4827 53.8807 15.718 54.81 16.67C55.762 17.622 56.918 18.098 58.278 18.098C60.0233 18.098 61.3493 17.452 62.256 16.16L67.22 22.11C64.84 24.49 61.7007 25.68 57.802 25.68C54.1073 25.68 51.002 24.5013 48.486 22.144C45.97 19.764 44.712 16.704 44.712 12.964ZM67.3074 12.828C67.3074 9.04267 68.5654 6.00533 71.0814 3.716C73.5974 1.404 76.7934 0.247998 80.6694 0.247998C84.5454 0.247998 87.7414 1.404 90.2574 3.716C92.7961 6.00533 94.0654 9.04267 94.0654 12.828C94.0654 16.636 92.7961 19.73 90.2574 22.11C87.7187 24.49 84.5227 25.68 80.6694 25.68C76.8161 25.68 73.6201 24.49 71.0814 22.11C68.5654 19.73 67.3074 16.636 67.3074 12.828ZM75.9094 12.828C75.9094 14.392 76.3514 15.684 77.2354 16.704C78.1421 17.7013 79.2867 18.2 80.6694 18.2C82.0294 18.2 83.1627 17.7013 84.0694 16.704C84.9761 15.684 85.4294 14.392 85.4294 12.828C85.4294 11.2867 84.9761 10.04 84.0694 9.088C83.1854 8.136 82.0521 7.66 80.6694 7.66C79.2867 7.66 78.1421 8.136 77.2354 9.088C76.3514 10.04 75.9094 11.2867 75.9094 12.828Z" fill="#ffffff"/>
</svg>
