<svg width="832" height="200" fill="none" xmlns="http://www.w3.org/2000/svg"><path d="M53.6 36 43.3 76h-24L0 5.2h25.2L32.8 45h.4l8.2-39.8h24.9L75.2 45h.4l7.7-39.8h24.4L88 76H64L54 36h-.4ZM128.502 42.7h15.9c0-1.867-.7-3.4-2.1-4.6-1.4-1.2-3.234-1.8-5.5-1.8-2.334 0-4.267.667-5.8 2-1.467 1.267-2.3 2.733-2.5 4.4Zm35.8 7.5c0 1.667-.067 3.3-.2 4.9h-35.4c.2 1.8 1.2 3.267 3 4.4 1.8 1.067 3.8 1.6 6 1.6 3.8 0 6.666-1.233 8.6-3.7l16.4 8.3c-2.334 3.8-5.734 6.8-10.2 9-4.467 2.2-9.6 3.3-15.4 3.3-5.267 0-10.134-1.033-14.6-3.1-4.4-2.067-8.034-5.3-10.9-9.7-2.867-4.4-4.3-9.567-4.3-15.5 0-8.467 2.8-15.3 8.4-20.5 5.6-5.2 12.566-7.8 20.9-7.8 8.2 0 14.866 2.733 20 8.2 5.133 5.4 7.7 12.267 7.7 20.6ZM233.29 49.5c0 7.467-2.133 14-6.4 19.6-4.267 5.533-10.133 8.3-17.6 8.3-3.267 0-6.4-.633-9.4-1.9-2.933-1.267-5.133-2.933-6.6-5h-.2V76h-20.7V.4h23v27.2h.2c1.533-1.733 3.533-3.1 6-4.1 2.533-1 5.1-1.5 7.7-1.5 7.4 0 13.233 2.767 17.5 8.3 4.333 5.467 6.5 11.867 6.5 19.2Zm-21.4 0c0-2.4-.767-4.433-2.3-6.1-1.533-1.733-3.633-2.6-6.3-2.6-2.6 0-4.767.867-6.5 2.6-1.667 1.667-2.5 3.7-2.5 6.1 0 2.533.833 4.667 2.5 6.4 1.667 1.667 3.833 2.5 6.5 2.5s4.767-.833 6.3-2.5c1.533-1.667 2.3-3.8 2.3-6.4ZM160 176h-28.4v-70.8H158c4.667 0 9 .333 13 1a43.55 43.55 0 0 1 11.5 3.6c3.733 1.667 6.867 3.8 9.4 6.4 2.6 2.533 4.667 5.867 6.2 10 1.533 4.067 2.3 8.733 2.3 14 0 6-1.1 11.367-3.3 16.1-2.2 4.667-5.233 8.4-9.1 11.2-3.8 2.8-8.067 4.933-12.8 6.4-4.733 1.4-9.8 2.1-15.2 2.1Zm-.2-50.6h-5.3v30.2h4.4c11.6 0 17.4-5.2 17.4-15.6 0-4.533-1.5-8.1-4.5-10.7-2.933-2.6-6.933-3.9-12-3.9ZM228.209 142.7h15.9c0-1.867-.7-3.4-2.1-4.6-1.4-1.2-3.234-1.8-5.5-1.8-2.334 0-4.267.667-5.8 2-1.467 1.267-2.3 2.733-2.5 4.4Zm35.8 7.5c0 1.667-.067 3.3-.2 4.9h-35.4c.2 1.8 1.2 3.267 3 4.4 1.8 1.067 3.8 1.6 6 1.6 3.8 0 6.666-1.233 8.6-3.7l16.4 8.3c-2.334 3.8-5.734 6.8-10.2 9-4.467 2.2-9.6 3.3-15.4 3.3-5.267 0-10.134-1.033-14.6-3.1-4.4-2.067-8.034-5.3-10.9-9.7-2.867-4.4-4.3-9.567-4.3-15.5 0-8.467 2.8-15.3 8.4-20.5 5.6-5.2 12.566-7.8 20.9-7.8 8.2 0 14.866 2.733 20 8.2 5.133 5.4 7.7 12.267 7.7 20.6ZM285.997 176l-20-52.6h25.6l7.5 28.4h.4l7.2-28.4h24.7l-20.3 52.6h-25.1ZM354.966 142.7h15.9c0-1.867-.7-3.4-2.1-4.6-1.4-1.2-3.233-1.8-5.5-1.8-2.333 0-4.266.667-5.8 2-1.466 1.267-2.3 2.733-2.5 4.4Zm35.8 7.5c0 1.667-.066 3.3-.2 4.9h-35.4c.2 1.8 1.2 3.267 3 4.4 1.8 1.067 3.8 1.6 6 1.6 3.8 0 6.667-1.233 8.6-3.7l16.4 8.3c-2.333 3.8-5.733 6.8-10.2 9-4.466 2.2-9.6 3.3-15.4 3.3-5.266 0-10.133-1.033-14.6-3.1-4.4-2.067-8.033-5.3-10.9-9.7-2.866-4.4-4.3-9.567-4.3-15.5 0-8.467 2.8-15.3 8.4-20.5 5.6-5.2 12.567-7.8 20.9-7.8 8.2 0 14.867 2.733 20 8.2 5.134 5.4 7.7 12.267 7.7 20.6ZM398.855 176v-75.6h23.6V176h-23.6ZM490.934 149.5c0 8.733-2.933 15.667-8.8 20.8-5.866 5.133-12.966 7.7-21.3 7.7-8.333 0-15.4-2.567-21.2-7.7-5.8-5.133-8.7-12.067-8.7-20.8 0-8.667 2.9-15.5 8.7-20.5 5.8-5.067 12.867-7.6 21.2-7.6 8.334 0 15.434 2.533 21.3 7.6 5.867 5 8.8 11.833 8.8 20.5Zm-23.9-6.1c-1.666-1.733-3.733-2.6-6.2-2.6-2.466 0-4.5.867-6.1 2.6-1.6 1.733-2.4 3.767-2.4 6.1 0 2.467.8 4.567 2.4 6.3 1.667 1.733 3.734 2.6 6.2 2.6 2.467 0 4.5-.867 6.1-2.6 1.667-1.733 2.5-3.833 2.5-6.3 0-2.333-.833-4.367-2.5-6.1ZM536.441 177.4c-2.667 0-5.267-.467-7.8-1.4-2.467-1-4.5-2.367-6.1-4.1h-.2V200h-22.9v-76.6h21.7v5.3h.2c1.866-2.133 4.166-3.767 6.9-4.9 2.733-1.2 5.433-1.8 8.1-1.8 7.4 0 13.233 2.767 17.5 8.3 4.333 5.467 6.5 11.867 6.5 19.2 0 7.467-2.134 14-6.4 19.6-4.267 5.533-10.1 8.3-17.5 8.3Zm2.5-27.9c0-2.4-.767-4.433-2.3-6.1-1.534-1.733-3.634-2.6-6.3-2.6-2.6 0-4.767.867-6.5 2.6-1.667 1.667-2.5 3.7-2.5 6.1 0 2.533.833 4.667 2.5 6.4 1.666 1.667 3.833 2.5 6.5 2.5 2.666 0 4.766-.833 6.3-2.5 1.533-1.667 2.3-3.8 2.3-6.4ZM624.174 176h-23.1v-27.6c0-2.667-.333-4.6-1-5.8-.666-1.2-1.766-1.8-3.3-1.8-1.266 0-2.4.6-3.4 1.8-.933 1.133-1.4 2.967-1.4 5.5V176h-23.1v-52.6h22.5v5.8h.2c1.534-2 3.567-3.7 6.1-5.1 2.6-1.4 5.534-2.1 8.8-2.1 7.2 0 12.2 2.533 15 7.6 4-5.067 9.334-7.6 16-7.6 3.534 0 6.6.733 9.2 2.2 2.6 1.4 4.567 3.267 5.9 5.6 1.334 2.333 2.3 4.7 2.9 7.1.6 2.333.9 4.7.9 7.1v32h-23.1v-28c0-2.733-.333-4.6-1-5.6-.666-1.067-1.766-1.6-3.3-1.6-1.4 0-2.566.633-3.5 1.9-.866 1.267-1.3 3.067-1.3 5.4V176ZM685.533 142.7h15.9c0-1.867-.7-3.4-2.1-4.6-1.4-1.2-3.234-1.8-5.5-1.8-2.334 0-4.267.667-5.8 2-1.467 1.267-2.3 2.733-2.5 4.4Zm35.8 7.5c0 1.667-.067 3.3-.2 4.9h-35.4c.2 1.8 1.2 3.267 3 4.4 1.8 1.067 3.8 1.6 6 1.6 3.8 0 6.666-1.233 8.6-3.7l16.4 8.3c-2.334 3.8-5.733 6.8-10.2 9s-9.6 3.3-15.4 3.3c-5.267 0-10.133-1.033-14.6-3.1-4.4-2.067-8.034-5.3-10.9-9.7-2.867-4.4-4.3-9.567-4.3-15.5 0-8.467 2.8-15.3 8.4-20.5 5.6-5.2 12.566-7.8 20.9-7.8 8.2 0 14.866 2.733 20 8.2 5.133 5.4 7.7 12.267 7.7 20.6ZM729.421 176v-52.6h22.5v5.8h.2c1.4-2.067 3.433-3.767 6.1-5.1 2.733-1.4 5.7-2.1 8.9-2.1 3.533 0 6.567.633 9.1 1.9 2.6 1.267 4.567 3.033 5.9 5.3a24.7 24.7 0 0 1 2.9 7c.6 2.4.9 5 .9 7.8v32h-23.2v-28c0-4.8-1.667-7.2-5-7.2-1.533 0-2.8.633-3.8 1.9-.933 1.267-1.4 3.033-1.4 5.3v28h-23.1ZM818.923 177.4c-7 0-12.234-1.533-15.7-4.6-3.4-3.067-5.1-7.767-5.1-14.1v-18.8h-7.4v-16.5h7.3v-11.8h22.4v11.8h11.4v16.5h-11.4v14c0 2.4.5 4.1 1.5 5.1 1.066.933 2.633 1.4 4.7 1.4 1.6 0 3-.2 4.2-.6v15.8c-2.867 1.2-6.834 1.8-11.9 1.8Z" fill="#08629E" fill-opacity=".03"/></svg>