<svg width="661" height="179" fill="none" xmlns="http://www.w3.org/2000/svg"><path d="M51.74 78.492h-1.197l2.635 95.722H0V4.786h74.497l30.661 91.175h1.198l26.589-91.175h76.892v169.428h-55.334l1.677-95.243-1.437-.24-31.619 95.483H82.881L51.74 78.492Zm184.881 95.722V4.786h57.489v169.428h-57.489Zm76.67-84.714c0-26.643 8.783-48.18 26.349-64.612C357.366 8.296 379.324 0 405.514 0c12.935 0 25.231 2.154 36.889 6.461 11.817 4.148 21.638 9.812 29.463 16.99L436.893 65.57c-6.228-8.456-15.57-12.684-28.026-12.684-9.741 0-17.886 3.35-24.433 10.051-6.547 6.7-9.821 15.555-9.821 26.563 0 10.689 3.274 19.384 9.821 26.084 6.707 6.701 14.851 10.051 24.433 10.051 12.296 0 21.639-4.547 28.026-13.64l34.973 41.878C455.098 170.624 432.981 179 405.514 179c-26.031 0-47.909-8.296-65.635-24.888-17.725-16.751-26.588-38.288-26.588-64.612Zm159.191-.957c0-26.643 8.863-48.02 26.589-64.134C516.797 8.136 539.314 0 566.621 0c27.308 0 49.824 8.136 67.551 24.41C652.057 40.521 661 61.9 661 88.542c0 26.802-8.943 48.579-26.828 65.33C616.286 170.624 593.769 179 566.621 179c-27.148 0-49.665-8.376-67.55-25.127-17.726-16.751-26.589-38.528-26.589-65.33Zm60.604 0c0 11.008 3.114 20.101 9.342 27.281 6.387 7.019 14.452 10.529 24.193 10.529 9.582 0 17.566-3.51 23.954-10.529 6.388-7.18 9.582-16.273 9.582-27.281 0-10.849-3.194-19.623-9.582-26.324-6.228-6.7-14.213-10.05-23.954-10.05-9.741 0-17.806 3.35-24.193 10.05-6.228 6.7-9.342 15.475-9.342 26.324Z" fill="#08629E" fill-opacity=".03"/></svg>