<svg width="100" height="42" viewBox="0 0 100 42" fill="none" xmlns="http://www.w3.org/2000/svg">
<path d="M19.0254 13.7239H17.1425C17.0318 12.3268 16.0966 11.622 14.349 11.622C13.7525 11.5912 13.1606 11.7419 12.6508 12.0547C12.4533 12.1661 12.2901 12.33 12.1794 12.5286C12.0687 12.7271 12.0146 12.9524 12.0232 13.1798C12.0104 13.3114 12.0104 13.4439 12.0232 13.5755C12.0506 13.6999 12.11 13.8151 12.1954 13.9093L12.417 14.1689C12.5122 14.2613 12.6253 14.3328 12.7493 14.3792L13.0938 14.5399C13.2345 14.6084 13.3834 14.6582 13.5369 14.6882L13.9922 14.7996L14.5213 14.9232L15.0136 15.0345C15.5551 15.1457 15.9735 15.2446 16.2442 15.3188C16.6291 15.4329 17.0071 15.569 17.3764 15.7268C17.7699 15.8826 18.1389 16.095 18.4716 16.3573C18.7526 16.6072 18.9825 16.9095 19.1485 17.2475C19.3441 17.6299 19.4454 18.054 19.4438 18.484C19.459 19.0026 19.3495 19.5172 19.1246 19.9843C18.8996 20.4514 18.5659 20.857 18.1516 21.1669C17.1766 21.9 15.985 22.2831 14.7675 22.2549C13.4912 22.3426 12.2246 21.9796 11.1863 21.2287C10.7563 20.8609 10.4128 20.4017 10.1808 19.8842C9.94888 19.3668 9.83418 18.8041 9.845 18.2366H11.6909C11.8017 19.8563 12.8354 20.7094 14.7921 20.7094C15.5055 20.7459 16.2134 20.5649 16.8226 20.1901C17.0605 20.0449 17.2563 19.8394 17.3902 19.5942C17.5241 19.349 17.5915 19.0727 17.5856 18.793C17.592 18.6153 17.5601 18.4381 17.4922 18.2738C17.4242 18.1095 17.3217 17.9619 17.1918 17.8411C16.9363 17.6011 16.6349 17.4159 16.3057 17.297C15.9735 17.1858 15.5181 17.0498 14.9028 16.9014H14.706L13.8568 16.7159L12.9093 16.481L12.0847 16.073C11.7963 15.9815 11.5227 15.8482 11.2725 15.6774C11.07 15.5067 10.8769 15.3251 10.6941 15.1333C10.4768 14.9283 10.3194 14.6675 10.2388 14.3792C10.1398 14.0592 10.094 13.725 10.1034 13.3901C10.0934 12.9085 10.2002 12.4317 10.4146 12.0008C10.629 11.57 10.9446 11.1981 11.334 10.9173C12.2634 10.2709 13.3804 9.95337 14.509 10.0147C15.6829 9.95704 16.8427 10.2918 17.8071 10.9668C18.22 11.2903 18.5472 11.7113 18.7596 12.1922C18.9722 12.673 19.0634 13.1991 19.0254 13.7239Z" fill="white"/>
<path d="M26.5198 10.3856V11.9435H24.2308V18.6323C24.2308 19.0032 24.2308 19.2505 24.2308 19.3742C24.2531 19.5351 24.2944 19.6928 24.3539 19.844C24.38 19.9365 24.4284 20.0211 24.495 20.0901C24.5617 20.1591 24.6442 20.2105 24.7354 20.2396C24.9794 20.3088 25.2328 20.3379 25.4861 20.3262C25.7691 20.3262 26.1014 20.3262 26.5075 20.2644V21.884C26.0296 21.9404 25.5489 21.9693 25.0677 21.9705C24.6181 21.9874 24.169 21.9289 23.7386 21.7974C23.4481 21.7111 23.1738 21.5774 22.9264 21.4018C22.7095 21.1891 22.567 20.9114 22.5203 20.6105C22.4349 20.2953 22.3813 19.9722 22.3603 19.6461C22.3603 19.3865 22.3603 18.9538 22.3603 18.348V11.9435H20.4282V10.3856H22.348V6.97321H24.2308V10.3856H26.5198Z" fill="white"/>
<path d="M38.3707 18.2367C38.2194 19.4245 37.6155 20.507 36.6859 21.2565C35.7563 22.0059 34.5736 22.3639 33.3867 22.2549C32.6517 22.2936 31.917 22.1721 31.2331 21.899C30.5491 21.6259 29.932 21.2074 29.424 20.6723C28.4137 19.4476 27.9036 17.8835 27.9966 16.2956C27.9368 14.6482 28.4846 13.0368 29.5348 11.7703C30.0043 11.2115 30.5935 10.7665 31.2584 10.4688C31.9234 10.1712 32.6468 10.0286 33.3743 10.0518C34.124 9.99678 34.8753 10.1321 35.5592 10.4454C36.2431 10.7588 36.8375 11.2399 37.2877 11.8446C38.1655 13.1835 38.5965 14.7684 38.5183 16.3697V16.6294H29.904V16.7654C29.8423 17.8103 30.1864 18.8385 30.8639 19.6338C31.1959 19.9899 31.6015 20.2685 32.0523 20.4501C32.503 20.6316 32.9879 20.7118 33.4728 20.6847C34.172 20.7213 34.8625 20.5162 35.4295 20.1036C35.9805 19.608 36.3706 18.9576 36.5493 18.2367H38.3707ZM36.5493 15.0962C36.5234 14.1489 36.1711 13.24 35.5525 12.5245C35.252 12.2146 34.889 11.9726 34.4879 11.8149C34.0868 11.6571 33.6568 11.5871 33.2267 11.6097C32.802 11.5963 32.3792 11.6719 31.9852 11.8315C31.5911 11.9912 31.2344 12.2314 30.9377 12.5369C30.3031 13.2451 29.922 14.1458 29.8548 15.0962H36.5493Z" fill="white"/>
<path d="M46.4558 10.1136V12.0671H45.9636C45.4258 12.053 44.8906 12.1455 44.3884 12.3391C43.9883 12.4977 43.6302 12.7474 43.3424 13.0686C43.0663 13.3993 42.8497 13.7758 42.7025 14.1813C42.5439 14.6122 42.4365 15.0604 42.3825 15.5166C42.3302 16.0177 42.3056 16.5212 42.3086 17.025V21.8716H40.4258V10.3856H42.2225V12.8584C42.5373 12.0021 43.1201 11.2716 43.8836 10.7767C44.6469 10.2817 45.5495 10.049 46.4558 10.1136Z" fill="white"/>
<path d="M49.8646 6.02118V21.8593H47.9941V6.02118H49.8646Z" fill="white"/>
<path d="M54.7748 6.02118V8.33319H52.9166V6.02118H54.7748ZM54.7748 10.3856V21.8593H52.9166V10.3856H54.7748Z" fill="white"/>
<path d="M59.4758 10.3856V12.166C59.8883 11.5054 60.4649 10.9641 61.149 10.5955C61.8331 10.227 62.601 10.0438 63.3769 10.0642C63.9092 10.014 64.4459 10.0834 64.9482 10.2673C65.4505 10.4512 65.9058 10.745 66.2812 11.1274C66.9404 12.0207 67.2591 13.1217 67.1795 14.2308V21.8593H65.2966V15.0962C65.3199 14.6556 65.3199 14.214 65.2966 13.7733C65.2479 13.4202 65.1528 13.0751 65.0137 12.7471C64.8738 12.3963 64.605 12.1129 64.2629 11.9558C63.8288 11.783 63.3636 11.703 62.8969 11.7209C60.7187 11.7209 59.6358 13.0933 59.6358 15.8504V21.8593H57.7037V10.3856H59.4758Z" fill="white"/>
<path d="M79.9164 10.3856V20.6229C79.9321 21.3922 79.8828 22.1616 79.7686 22.9226C79.6649 23.4592 79.4686 23.9738 79.1903 24.4433C78.6963 25.1698 78.0149 25.7479 77.2201 26.1158C76.4246 26.4838 75.5448 26.6279 74.6739 26.5328C73.5247 26.5774 72.3849 26.3082 71.3758 25.7538C70.9299 25.4768 70.5565 25.0965 70.2868 24.6448C70.017 24.1931 69.8588 23.6831 69.8252 23.1575H71.7573C71.9788 24.3938 72.9879 25.0739 74.6985 25.0739C75.1597 25.118 75.6254 25.0614 76.0634 24.9077C76.5007 24.754 76.9 24.5071 77.2336 24.1837C77.8351 23.3492 78.1306 22.3314 78.0701 21.3029V19.9058C77.7321 20.5838 77.2 21.145 76.5425 21.5172C75.8843 21.8896 75.1313 22.056 74.3785 21.9953C73.684 22.0296 72.9909 21.9051 72.3513 21.6309C71.7118 21.3568 71.1425 20.9402 70.6867 20.4127C69.735 19.2127 69.2535 17.7041 69.333 16.1719C69.2877 14.6215 69.7646 13.101 70.6867 11.8569C71.1221 11.2731 71.6925 10.8047 72.3487 10.4924C73.0048 10.18 73.7269 10.033 74.4524 10.0642C75.1948 10.0523 75.9276 10.231 76.5813 10.5835C77.2067 10.9175 77.7201 11.4292 78.0582 12.0547V10.3856H79.9164ZM74.6739 11.7209C74.1932 11.702 73.7155 11.8054 73.2852 12.0215C72.8549 12.2377 72.486 12.5595 72.2127 12.9573C71.6051 13.9187 71.3125 15.0472 71.3758 16.1843C71.3248 17.2728 71.6462 18.3461 72.2865 19.2258C72.5803 19.5989 72.9542 19.9004 73.3805 20.1077C73.8068 20.315 74.2742 20.4226 74.7478 20.4226C75.2216 20.4226 75.6888 20.315 76.1149 20.1077C76.541 19.9004 76.9149 19.5989 77.2089 19.2258C77.8589 18.2534 78.1746 17.094 78.1075 15.9246C78.1739 14.8322 77.856 13.7511 77.2089 12.8708C76.9075 12.491 76.5201 12.1887 76.0791 11.9888C75.6388 11.7889 75.1567 11.6971 74.6739 11.7209Z" fill="white"/>
<path d="M59.6112 24.9873V40.8007H57.7037V24.9873H59.6112Z" fill="white"/>
<path d="M72.6065 39.317V40.8007C72.2127 40.9478 71.796 41.0231 71.3758 41.0232C71.1492 41.0496 70.9195 41.0237 70.7043 40.9475C70.4891 40.8713 70.294 40.7468 70.1338 40.5835C69.9737 40.4202 69.8526 40.2225 69.78 40.0051C69.7073 39.7878 69.6849 39.5567 69.7145 39.3294C69.1995 39.9217 68.5609 40.3928 67.8441 40.7091C67.1273 41.0253 66.3499 41.179 65.5673 41.1592C64.5998 41.2077 63.6487 40.895 62.8969 40.2814C62.5675 39.9841 62.3081 39.6168 62.1378 39.2062C61.9675 38.7955 61.8905 38.3519 61.9124 37.9076C61.9124 35.8552 63.266 34.6682 65.9734 34.322C66.1457 34.322 66.4042 34.2602 66.7487 34.2355C67.5605 34.2027 68.3602 34.0269 69.1115 33.7162C69.2957 33.5717 69.44 33.3822 69.5304 33.1657C69.621 32.9493 69.6547 32.7131 69.6284 32.4798C69.6284 31.2434 68.7546 30.5881 67.0318 30.5881C66.3177 30.5403 65.6079 30.7316 65.0136 31.1322C64.7631 31.3591 64.5618 31.6354 64.4221 31.9438C64.2824 32.2522 64.2072 32.5861 64.2013 32.9249H62.3554C62.3445 32.3791 62.456 31.8378 62.6819 31.3412C62.9078 30.8446 63.242 30.4055 63.6598 30.0565C64.6695 29.3239 65.899 28.9617 67.1425 29.0303C68.4378 28.926 69.7237 29.3242 70.7359 30.1431C70.9933 30.4068 71.1834 30.7292 71.2897 31.0827C71.388 31.3881 71.454 31.703 71.4866 32.0224C71.4866 32.2696 71.4866 32.6405 71.4866 33.1351C71.4866 33.6296 71.4866 34.5446 71.4866 35.6944C71.4866 36.8442 71.4866 37.685 71.4866 38.2537C71.4653 38.5566 71.5248 38.8595 71.6589 39.1316C71.729 39.2223 71.8216 39.2928 71.9275 39.3362C72.0333 39.3796 72.1487 39.3943 72.2619 39.3788C72.3784 39.3695 72.4939 39.3488 72.6065 39.317ZM69.5791 34.8661C69.4431 34.9683 69.299 35.0592 69.1484 35.1381C68.9676 35.2191 68.7775 35.2772 68.5823 35.3111L68.127 35.41L67.5363 35.4966L67.044 35.5584L66.158 35.682L65.3581 35.8675C65.0571 35.9262 64.7719 36.0484 64.5213 36.2261C64.3325 36.3905 64.1742 36.5872 64.0537 36.8071C63.8899 37.0878 63.8089 37.4093 63.8198 37.7344C63.8067 38 63.8542 38.2651 63.9587 38.5094C64.0632 38.7537 64.222 38.9707 64.4228 39.1439C64.9043 39.505 65.4967 39.6844 66.0965 39.6508C66.9837 39.6702 67.8513 39.3868 68.5578 38.8472C68.877 38.6444 69.1417 38.3657 69.3284 38.0358C69.5151 37.7059 69.6181 37.3349 69.6284 36.9555L69.5791 34.8661Z" fill="white"/>
<path d="M73.3941 29.3517H75.4739L78.0828 38.8101L80.409 29.3517H82.4515L84.9127 38.8101L87.497 29.3517H89.4537L85.7739 40.8007H83.7806L81.4298 31.7256L79.1045 40.8007H77.0612L73.3941 29.3517Z" fill="white"/>
<path d="M100 11.3253V40.8254H91.6567V38.909H98.0925V12.129L87.9276 1.91639H1.91976V38.909H49.8646V40.8254H0V0H88.7276L100 11.3253Z" fill="white"/>
</svg>
