<svg width="149" height="49" viewBox="0 0 149 49" fill="none" xmlns="http://www.w3.org/2000/svg">
<g clip-path="url(#clip0_1_660)">
<path d="M96.2104 8.76625H100.549C105.481 8.76625 105.183 11.7007 105.233 12.3693C105.32 13.4341 105.369 14.7342 105.369 16.2571C105.369 17.7677 105.357 18.8201 105.32 19.4516C105.295 20.0707 105.493 23.971 100.549 23.971H96.2104V8.76625ZM100.561 9.34814H98.0766V23.3147H100.573C103.478 23.3147 103.478 21.5317 103.453 20.4793C103.465 20.2564 103.478 13.1617 103.478 13.1617C103.478 12.7284 103.465 12.4064 103.453 12.2083C103.429 11.9978 103.465 9.34814 100.561 9.34814Z" fill="white"/>
<path d="M149 20.0707C149 21.4327 148.679 22.5099 148.024 23.3024C147.369 24.0824 146.306 24.4786 144.823 24.4786C143.352 24.4786 142.005 24.2062 140.768 23.6738L141.164 23.3024C142.313 23.7109 143.5 23.9091 144.711 23.9091C145.564 23.9091 146.182 23.6986 146.578 23.2776C146.985 22.8566 147.183 21.2346 147.183 20.3679C147.183 19.5012 147.072 18.8449 146.862 18.3868C146.639 17.9411 146.195 17.6686 145.502 17.5572L143.364 17.2477C142.351 17.0868 141.67 16.6782 141.325 16.0095C140.991 15.3409 140.831 14.338 140.831 12.9884C140.831 11.6388 141.176 10.5987 141.868 9.86822C142.573 9.11294 143.549 8.74145 144.773 8.74145C146.009 8.74145 147.257 8.97672 148.494 9.43484L148.098 9.76917C147.01 9.45964 146.034 9.31105 145.156 9.31105C144.291 9.31105 143.648 9.49673 143.253 9.85578C142.845 10.2025 142.647 11.8369 142.647 12.8026C142.647 13.7685 142.746 14.4618 142.956 14.8828C143.178 15.3038 143.599 15.5514 144.229 15.6381L146.268 15.9476C147.195 16.0962 147.876 16.4801 148.333 17.0991C148.765 17.7182 149 18.7087 149 20.0707Z" fill="white"/>
<path d="M133.648 18.1392H132.24V23.9586H130.373V8.76625H133.648C135.379 8.76625 136.615 9.12531 137.357 9.83106C138.098 10.5244 138.456 11.7378 138.456 13.4589C138.456 14.6475 138.284 15.5886 137.938 16.2819C137.604 16.9629 137.072 17.4458 136.33 17.7305L138.827 23.9586H136.924L134.539 18.1268C134.341 18.1268 134.056 18.1392 133.648 18.1392ZM136.566 13.9294V12.976C136.566 12.5674 136.553 12.2703 136.541 12.0845C136.528 11.8864 136.578 9.33578 133.661 9.33578H132.227V17.582H133.661C136.578 17.582 136.528 15.0438 136.541 14.8456C136.566 14.6352 136.566 14.3256 136.566 13.9294Z" fill="white"/>
<path d="M11.9517 8.76625H13.8181V23.9586H11.9517V8.76625Z" fill="white"/>
<path d="M5.48784 23.9462H3.54732L0 8.76625H0.865201L3.96756 22.7204H4.10352L7.20588 8.76625H9.04754L5.48784 23.9462Z" fill="white"/>
<path d="M81.6625 24.4787C79.6352 24.4415 76.7681 24.3053 76.7681 19.6622C76.7433 18.5602 76.7184 17.5325 76.7184 16.5544C76.7184 15.5762 76.7305 14.8581 76.7433 14.3628C76.7553 13.8675 76.7922 13.2732 76.8298 12.5799C76.8915 11.8865 77.1263 8.79105 81.4029 8.76625C86.4087 8.72916 86.2477 12.9265 86.2725 13.558C86.2973 14.1895 86.3101 15.1304 86.3101 16.3563C86.3101 17.5697 86.2973 18.424 86.2853 18.9193C86.2725 19.4146 86.2356 20.0089 86.1739 20.7023C86.1491 21.3956 86.4087 24.5529 81.6625 24.4787ZM84.4431 20.9994V12.2332C84.4431 11.0817 84.3197 10.3759 84.0729 10.1283C83.7139 9.73208 83.3188 9.50917 82.8861 9.43491C82.4655 9.36058 82.0207 9.32349 81.5391 9.32349C81.0568 9.32349 80.6489 9.34822 80.3027 9.41011C79.9566 9.472 79.6721 9.57106 79.4622 9.71964C79.2642 9.86822 79.0912 10.0044 78.9677 10.1283C78.8564 10.2644 78.7698 10.4626 78.7081 10.735C78.6464 11.0817 78.6216 11.577 78.6216 12.2332V20.9994C78.6216 22.1509 78.733 22.8567 78.9677 23.1043C79.3387 23.5005 79.7466 23.7234 80.1793 23.7976C80.612 23.872 81.0688 23.9091 81.5391 23.9091C82.0207 23.9091 82.4166 23.8843 82.7499 23.8224C83.0961 23.7606 83.3678 23.6615 83.5785 23.5129C83.8005 23.3643 83.9615 23.2281 84.0729 23.1043C84.2083 22.9681 84.2949 22.77 84.3325 22.4976C84.4062 22.1509 84.4431 21.6432 84.4431 20.9994Z" fill="white"/>
<path d="M66.7195 8.76625H68.4746L72.8253 21.4451H72.949V8.76625H73.8018V23.9586H72.0467L67.696 11.2797H67.56V23.9586H66.7072V8.76625H66.7195Z" fill="white"/>
<path d="M49.749 8.76625H51.6153V23.9586H49.749V8.76625Z" fill="white"/>
<path d="M40.0711 23.9462V8.76625H41.9375V23.4138H46.832V23.9586H40.0711V23.9462Z" fill="white"/>
<path d="M28.7123 23.9462H27.8718L31.3079 8.76625L33.5574 8.75389L37.1541 23.9462H35.2507L34.3608 20.1079H29.6022L28.7123 23.9462ZM33.99 18.5973L32.0371 10.153H31.9011L29.9236 18.5973H33.99Z" fill="white"/>
<path d="M55.7625 24.2385H54.9343L58.3704 9.05852L60.62 9.04616L64.2167 24.2385H62.3133L61.4234 20.4002H56.6524L55.7625 24.2385ZM61.0402 18.8896L59.0873 10.4453H58.9513L56.9861 18.8896H61.0402Z" fill="white"/>
<path d="M16.7356 10.2768V8.75389H24.9674V10.2768H21.7785V23.9462H19.912V10.2768H16.7356Z" fill="white"/>
<path d="M96.2104 29.617H97.2985L99.0406 34.6811H99.0903V29.617H99.8195V35.6964H98.7321L96.9892 30.6323H96.9396V35.6964H96.2104V29.617Z" fill="white"/>
<path d="M101.809 35.6964V29.617H104.689L104.603 30.2237H102.551V32.341H104.429V32.9477H102.551V35.0773H104.776V35.684H101.809V35.6964Z" fill="white"/>
<path d="M111.388 35.6964H110.214L109.238 30.7314H109.188L108.224 35.6964H107.05L106.024 29.617H106.766L107.643 35.2011H107.692L108.805 29.617H109.633L110.745 35.2011H110.795L111.673 29.617H112.414L111.388 35.6964Z" fill="white"/>
<path d="M118.335 35.6964H117.642V33.7401L116.134 29.617H116.9L117.964 32.9229H118.013L119.076 29.617H119.842L118.335 33.7401V35.6964Z" fill="white"/>
<path d="M128.148 33.3686H127.58V35.6964H126.838V29.617H128.148C128.841 29.617 129.335 29.7532 129.632 30.038C129.928 30.3103 130.076 30.7933 130.076 31.4866C130.076 31.9571 130.003 32.341 129.866 32.6133C129.73 32.8858 129.52 33.0839 129.224 33.1953L130.224 35.684H129.458L128.506 33.3439C128.42 33.3686 128.309 33.3686 128.148 33.3686ZM129.31 31.6848V31.3009C129.31 31.14 129.31 31.0161 129.298 30.9418C129.298 30.8552 129.273 30.7685 129.224 30.657C129.187 30.5456 129.137 30.4713 129.051 30.4094C128.853 30.2856 128.544 30.2237 128.136 30.2237H127.567V32.7372H128.136C128.544 32.7372 128.841 32.6752 129.051 32.5515C129.137 32.5019 129.187 32.4152 129.224 32.3038C129.261 32.1924 129.285 32.1057 129.298 32.0315C129.31 31.9695 129.31 31.8457 129.31 31.6848Z" fill="white"/>
<path d="M132.697 29.617V35.6964H131.955V29.617H132.697ZM132.919 32.6629L134.514 29.6294H135.305L133.71 32.6629L135.318 35.6964H134.527L132.919 32.6629Z" fill="white"/>
<path d="M91.6124 0V48.6724" stroke="white"/>
<path d="M112.265 24.2186C110.239 24.1815 107.371 24.0453 107.371 19.4021C107.346 18.3001 107.321 17.2725 107.321 16.2943C107.321 15.3162 107.334 14.598 107.346 14.1027C107.359 13.6075 107.396 13.0132 107.433 12.3198C107.494 11.6264 107.729 8.53098 112.006 8.50625C117.012 8.46909 116.851 12.6665 116.876 13.2979C116.901 13.9294 116.913 14.8704 116.913 16.0962C116.913 17.3096 116.901 18.1639 116.888 18.6592C116.876 19.1545 116.839 19.7488 116.777 20.4422C116.752 21.1356 117.012 24.3053 112.265 24.2186ZM115.047 20.7517V11.9855C115.047 10.834 114.923 10.1282 114.676 9.88059C114.318 9.48437 113.922 9.26153 113.489 9.1872C113.069 9.11295 112.624 9.07578 112.142 9.07578C111.66 9.07578 111.253 9.10058 110.906 9.16247C110.56 9.22436 110.276 9.32342 110.066 9.472C109.868 9.62059 109.695 9.75681 109.571 9.88059C109.46 10.0168 109.374 10.2149 109.312 10.4873C109.25 10.834 109.225 11.3293 109.225 11.9855V20.7517C109.225 21.9032 109.337 22.609 109.571 22.8566C109.942 23.2528 110.35 23.4757 110.782 23.55C111.215 23.6243 111.673 23.6614 112.142 23.6614C112.624 23.6614 113.02 23.6367 113.354 23.5747C113.7 23.5128 113.971 23.4138 114.181 23.2652C114.404 23.1166 114.564 22.9805 114.676 22.8566C114.812 22.7204 114.899 22.5223 114.935 22.2499C115.01 21.8909 115.047 21.3956 115.047 20.7517Z" fill="white"/>
<path d="M123.81 24.4787C121.783 24.4415 118.916 24.3053 118.916 19.6622C118.891 18.5602 118.866 17.5325 118.866 16.5544C118.866 15.5762 118.879 14.8581 118.891 14.3628C118.904 13.8675 118.94 13.2732 118.977 12.5799C119.039 11.8865 119.275 8.79105 123.55 8.76625C128.556 8.72916 128.396 12.9265 128.421 13.558C128.446 14.1895 128.458 15.1304 128.458 16.3563C128.458 17.5697 128.446 18.424 128.433 18.9193C128.421 19.4146 128.384 20.0089 128.321 20.7023C128.284 21.3956 128.556 24.5529 123.81 24.4787ZM126.579 20.9994V12.2332C126.579 11.0817 126.455 10.3759 126.208 10.1283C125.849 9.73208 125.454 9.50917 125.022 9.43491C124.602 9.36058 124.156 9.32349 123.675 9.32349C123.192 9.32349 122.784 9.34822 122.438 9.41011C122.092 9.472 121.808 9.57106 121.598 9.71964C121.4 9.86822 121.227 10.0044 121.103 10.1283C120.993 10.2644 120.906 10.4626 120.844 10.735C120.782 11.0817 120.757 11.577 120.757 12.2332V20.9994C120.757 22.1509 120.868 22.8567 121.103 23.1043C121.474 23.5005 121.882 23.7234 122.315 23.7976C122.747 23.872 123.205 23.9091 123.675 23.9091C124.144 23.9091 124.552 23.8843 124.885 23.8224C125.231 23.7606 125.504 23.6615 125.714 23.5129C125.936 23.3643 126.097 23.2281 126.208 23.1043C126.344 22.9681 126.43 22.77 126.468 22.4976C126.542 22.1509 126.579 21.6432 126.579 20.9994Z" fill="white"/>
<path d="M123.118 35.746C122.291 35.7335 121.116 35.6716 121.116 33.7772C121.104 33.3315 121.104 32.8982 121.104 32.5019C121.104 32.1057 121.104 31.8085 121.116 31.6104C121.116 31.4123 121.129 31.1647 121.153 30.88C121.178 30.5952 121.277 29.3322 123.02 29.3198C125.071 29.3074 125.009 31.0285 125.009 31.2885C125.022 31.5485 125.022 31.9324 125.022 32.44C125.022 32.9353 125.022 33.2819 125.009 33.4925C125.009 33.6906 124.985 33.9382 124.96 34.223C124.948 34.483 125.059 35.7707 123.118 35.746ZM124.255 34.322V30.7314C124.255 30.2608 124.206 29.9761 124.107 29.8646C123.959 29.7037 123.798 29.6046 123.625 29.5799C123.452 29.5551 123.267 29.5303 123.082 29.5303C122.884 29.5303 122.723 29.5427 122.574 29.5674C122.439 29.5922 122.315 29.6294 122.228 29.6913C122.142 29.7532 122.08 29.8027 122.018 29.8646C121.969 29.9141 121.932 30.0008 121.907 30.1122C121.883 30.2485 121.87 30.4589 121.87 30.7314V34.322C121.87 34.7926 121.92 35.0773 122.006 35.1888C122.154 35.3497 122.327 35.4488 122.501 35.4735C122.674 35.4983 122.859 35.523 123.057 35.523C123.255 35.523 123.415 35.5107 123.551 35.4859C123.687 35.4612 123.811 35.424 123.884 35.3621C123.971 35.3002 124.046 35.2507 124.095 35.1888C124.144 35.1393 124.181 35.0526 124.206 34.9412C124.231 34.7926 124.255 34.582 124.255 34.322Z" fill="white"/>
</g>
<defs>
<clipPath id="clip0_1_660">
<rect width="149" height="49" fill="white"/>
</clipPath>
</defs>
</svg>
