<?xml version="1.0" standalone="no"?>
<!DOCTYPE svg PUBLIC "-//W3C//DTD SVG 20010904//EN"
 "http://www.w3.org/TR/2001/REC-SVG-20010904/DTD/svg10.dtd">
<svg version="1.0" xmlns="http://www.w3.org/2000/svg"
 width="822.000000pt" height="822.000000pt" viewBox="0 0 822.000000 822.000000"
 preserveAspectRatio="xMidYMid meet">
<metadata>
Created by potrace 1.14, written by Peter Selinger 2001-2017
</metadata>
<g transform="translate(0.000000,822.000000) scale(0.100000,-0.100000)"
fill="#000000" stroke="none">
<path d="M8135 8072 c-3 -3 -11 -7 -18 -8 -7 -1 -42 -13 -79 -27 -38 -15 -68
-24 -68 -20 0 3 -6 1 -12 -5 -7 -5 -29 -14 -48 -20 -32 -9 -315 -105 -350
-119 -8 -3 -19 -7 -25 -9 -5 -1 -82 -28 -170 -58 -88 -31 -225 -79 -305 -106
-80 -27 -217 -74 -305 -105 -88 -31 -164 -58 -170 -59 -5 -2 -17 -6 -25 -9 -8
-3 -98 -33 -200 -68 -102 -34 -191 -67 -197 -72 -7 -5 -13 -7 -13 -4 0 3 -44
-10 -97 -29 -137 -49 -466 -162 -537 -184 -33 -11 -67 -22 -75 -26 -9 -4 -20
-8 -26 -10 -5 -1 -95 -32 -200 -69 -104 -36 -197 -68 -206 -70 -8 -2 -32 -10
-52 -19 -20 -8 -37 -12 -37 -9 0 3 -6 1 -12 -5 -14 -11 -98 -37 -110 -34 -5 1
-8 -3 -8 -8 0 -6 -8 -10 -19 -10 -10 0 -34 -6 -52 -14 -36 -14 -66 -25 -74
-26 -2 -1 -62 -22 -132 -46 -71 -25 -135 -47 -143 -49 -8 -2 -32 -11 -52 -19
-21 -9 -38 -14 -38 -11 0 3 -12 -1 -27 -8 -16 -8 -125 -46 -243 -86 -118 -40
-224 -76 -235 -81 -22 -10 -174 -61 -190 -63 -5 -1 -12 -4 -15 -7 -4 -4 -389
-137 -415 -143 -5 -2 -15 -6 -21 -9 -6 -4 -21 -9 -35 -12 -19 -4 -228 -75
-299 -102 -8 -3 -15 -5 -15 -4 0 0 -65 -22 -145 -51 -269 -94 -285 -100 -300
-103 -8 -3 -87 -30 -175 -61 -88 -31 -180 -63 -205 -70 -25 -7 -85 -27 -135
-45 -138 -49 -548 -191 -565 -195 -8 -2 -67 -23 -130 -45 -63 -23 -124 -44
-135 -47 -11 -3 -26 -10 -33 -16 -6 -5 -12 -7 -12 -4 0 3 -78 -21 -172 -55
-95 -33 -177 -61 -183 -62 -5 -2 -23 -8 -38 -14 -15 -7 -40 -15 -55 -18 -15
-4 -31 -9 -37 -13 -5 -3 -14 -6 -20 -8 -5 -1 -100 -33 -209 -71 -207 -71 -240
-90 -213 -124 6 -9 102 -62 212 -118 110 -56 263 -135 340 -175 77 -40 226
-116 330 -170 474 -244 541 -278 549 -286 6 -5 18 -9 27 -9 10 0 19 -3 21 -7
2 -5 53 -33 113 -64 61 -31 196 -100 300 -154 105 -54 226 -116 270 -138 126
-64 155 -84 148 -104 -6 -19 -29 -42 -187 -188 -110 -101 -121 -111 -266 -245
-56 -52 -115 -106 -130 -120 -83 -78 -242 -224 -260 -240 -30 -26 -228 -209
-261 -243 -16 -15 -34 -27 -40 -27 -7 0 -10 -3 -6 -6 3 -3 -20 -29 -51 -57
-31 -28 -72 -65 -91 -82 -18 -16 -50 -46 -71 -65 -21 -19 -82 -75 -136 -125
-54 -49 -115 -107 -136 -127 -21 -21 -39 -38 -41 -38 -2 0 -28 -24 -58 -52
-31 -29 -88 -82 -127 -118 -40 -36 -102 -93 -137 -128 -75 -71 -75 -72 1 -152
51 -55 84 -89 194 -210 95 -103 102 -110 250 -270 58 -63 126 -136 152 -164
84 -93 110 -120 167 -182 31 -33 99 -107 151 -164 52 -57 111 -121 131 -142
20 -21 71 -76 114 -123 50 -55 83 -84 95 -82 18 3 87 60 189 157 32 30 99 93
151 140 51 47 105 96 120 110 161 149 241 223 283 263 28 26 82 76 120 110 38
34 88 80 111 102 24 22 87 81 141 130 53 50 109 101 124 115 15 14 73 68 130
120 57 52 125 115 152 140 26 25 69 65 96 89 26 24 93 85 148 136 55 51 129
119 164 151 35 33 81 75 102 95 21 20 46 36 54 36 18 0 48 -32 51 -53 1 -9 10
-31 18 -50 24 -50 38 -84 106 -249 34 -82 67 -163 75 -180 7 -16 23 -55 35
-85 12 -30 28 -68 35 -85 8 -16 52 -122 99 -235 106 -256 109 -264 111 -270 1
-3 11 -27 23 -53 12 -27 22 -51 22 -53 0 -2 9 -23 19 -47 11 -23 43 -98 71
-167 28 -69 57 -138 64 -155 8 -16 35 -82 61 -145 26 -63 56 -134 66 -157 10
-24 19 -45 19 -48 0 -3 10 -27 21 -53 29 -65 43 -97 74 -172 37 -91 56 -133
67 -146 19 -25 49 -1 77 60 42 89 121 269 126 286 1 3 14 32 29 65 15 33 29
65 30 70 2 6 13 33 25 60 68 154 96 216 122 273 16 35 29 69 29 76 0 6 4 16 9
22 5 5 26 50 47 99 20 50 41 94 46 99 4 6 8 18 8 28 0 10 5 18 12 18 6 0 9 3
6 6 -3 3 15 53 42 112 26 59 77 177 114 262 85 193 99 225 122 275 10 22 19
42 19 45 2 7 19 46 46 105 12 28 23 52 24 55 0 3 11 27 23 54 12 27 22 50 22
52 0 1 16 37 35 78 19 42 35 78 35 81 0 2 13 33 29 67 15 35 43 97 61 138 18
41 40 93 50 115 57 128 211 483 215 495 2 7 32 73 65 147 16 34 26 64 22 67
-3 3 0 6 6 6 7 0 12 5 12 11 0 5 11 34 24 62 13 29 43 97 66 152 23 55 47 106
52 113 6 6 8 12 4 12 -3 0 3 17 13 38 21 40 520 1183 526 1202 1 5 31 72 71
158 13 29 24 59 24 67 0 8 4 15 9 15 5 0 12 11 15 24 3 14 20 55 37 93 16 37
34 77 39 88 5 11 21 47 35 80 15 33 46 105 70 160 40 94 79 183 110 250 7 16
11 33 9 37 -3 4 -1 8 4 8 5 0 17 21 27 48 17 43 34 82 96 217 12 28 24 55 25
61 1 7 18 46 38 89 20 42 36 78 36 80 0 2 14 33 30 68 17 36 30 68 30 72 0 3
18 44 40 91 22 47 40 87 40 89 0 3 11 28 24 57 13 29 79 179 145 333 67 154
128 294 136 310 7 17 37 84 65 150 29 66 61 140 73 165 69 154 84 206 58 211
-24 5 -51 5 -56 1z"/>
</g>
</svg>
