<svg xmlns="http://www.w3.org/2000/svg" width="40" height="40" fill="none"><path fill="#111" d="M13.125 15.625v-6.25c0-1.379-1.121-2.5-2.5-2.5a2.503 2.503 0 0 0-2.5 2.5v6.25h1.25v-2.5h2.5v2.5h1.25Zm-3.75-3.75v-2.5a1.251 1.251 0 0 1 2.5 0v2.5h-2.5ZM16.875 11.875c1.379 0 2.5-1.121 2.5-2.5s-1.121-2.5-2.5-2.5h-2.5v8.75h1.25v-3.75h1.25Zm-1.25-3.75h1.25a1.251 1.251 0 0 1 0 2.5h-1.25v-2.5ZM20 14.375v1.25h3.75v-1.25H22.5v-6.25h1.25v-1.25H20v1.25h1.25v6.25H20Z"/><path fill="#111" d="M39.375 26.745v-4.74l-1.647-.387a9.936 9.936 0 0 0-.863-2.083l.89-1.439-3.351-3.352-1.439.891c-.374-.207-.764-.38-1.161-.539a3.752 3.752 0 0 0-3.057-4.415c0-.02.003-.037.003-.056a6.257 6.257 0 0 0-6.25-6.25c-.788 0-1.551.145-2.278.432A8.15 8.15 0 0 0 13.125.625c-4.283 0-7.793 3.333-8.095 7.539a5.005 5.005 0 0 0-4.405 4.961c0 2.757 2.243 5 5 5h1.25v7.114l-2.5 1.25v4.136h1.25v-3.364l2.5-1.25v-9.136h-2.5a3.754 3.754 0 0 1-3.75-3.75 3.754 3.754 0 0 1 4.821-3.594l.357-1.199a5.008 5.008 0 0 0-.774-.16c.295-3.52 3.25-6.297 6.846-6.297a6.896 6.896 0 0 1 6.242 4.009l.274.593.58-.298a4.94 4.94 0 0 1 2.279-.554c2.757 0 5 2.243 5 5l-.003.054a3.72 3.72 0 0 0-1.603.681l.744 1.004a2.503 2.503 0 0 1 3.987 2.01c0 1.38-1.121 2.501-2.5 2.501h-16.25v9.136l2.5 1.25v3.364h1.25v-4.136l-2.5-1.25v-7.114h5.787l.511 1.342c-.384.68-.686 1.4-.901 2.15l-1.647.388v4.74l1.647.387c.208.726.497 1.423.863 2.083l-.89 1.439 3.351 3.352 1.439-.891c.66.366 1.357.656 2.082.863l.388 1.647h4.74l.387-1.646a9.942 9.942 0 0 0 2.083-.863l1.439.89 3.352-3.352-.891-1.438c.366-.66.656-1.358.863-2.083l1.647-.388Zm-2.67-.656-.091.372c-.21.86-.551 1.68-1.012 2.44l-.199.328.768 1.241-1.952 1.952-1.24-.768-.328.198c-.76.461-1.58.801-2.44 1.012l-.372.092-.334 1.419h-2.76l-.334-1.42-.372-.091a8.685 8.685 0 0 1-2.44-1.012l-.328-.199-1.241.768-1.952-1.952.768-1.24-.198-.328c-.46-.759-.801-1.58-1.012-2.44l-.092-.372-1.419-.334v-2.76l1.42-.334.091-.372a8.68 8.68 0 0 1 1.012-2.44l.158-.26-.557-1.464h3.74a7.497 7.497 0 0 0-3.364 6.25c0 4.136 3.364 7.5 7.5 7.5s7.5-3.364 7.5-7.5c0-3.302-2.148-6.108-5.118-7.106.34-.28.625-.62.85-1 .446.177.883.38 1.294.63l.328.198 1.242-.768 1.952 1.952-.769 1.24.2.328c.46.759.8 1.58 1.011 2.44l.091.372 1.419.334v2.76l-1.42.334Zm-8.58-7.964a6.257 6.257 0 0 1 6.25 6.25 6.257 6.257 0 0 1-6.25 6.25 6.257 6.257 0 0 1-6.25-6.25 6.257 6.257 0 0 1 6.25-6.25Z"/><path fill="#111" d="M28.125 29.375c2.757 0 5-2.243 5-5s-2.243-5-5-5-5 2.243-5 5 2.243 5 5 5Zm0-8.75a3.754 3.754 0 0 1 3.75 3.75 3.754 3.754 0 0 1-3.75 3.75 3.754 3.754 0 0 1-3.75-3.75 3.754 3.754 0 0 1 3.75-3.75ZM5.625 31.875h-1.25v1.25h1.25v-1.25ZM15.625 31.875h-1.25v1.25h1.25v-1.25ZM5.625 35.74v-1.365h-1.25v1.365a1.872 1.872 0 0 0-1.25 1.76c0 1.034.841 1.875 1.875 1.875A1.877 1.877 0 0 0 6.875 37.5c0-.814-.524-1.501-1.25-1.76ZM5 38.125a.626.626 0 0 1 0-1.25.626.626 0 0 1 0 1.25ZM15.625 35.74v-1.365h-1.25v1.365a1.872 1.872 0 0 0-1.25 1.76c0 1.034.841 1.875 1.875 1.875a1.877 1.877 0 0 0 1.875-1.875c0-.814-.524-1.501-1.25-1.76ZM15 38.125a.626.626 0 0 1 0-1.25.626.626 0 0 1 0 1.25ZM10.625 31.365v-6.99h-1.25v6.99a1.872 1.872 0 0 0-1.25 1.76C8.125 34.159 8.966 35 10 35a1.877 1.877 0 0 0 1.875-1.875c0-.814-.524-1.501-1.25-1.76ZM10 33.75a.626.626 0 0 1 0-1.25.626.626 0 0 1 0 1.25ZM10.625 16.875h-1.25v1.25h1.25v-1.25ZM10.625 19.375h-1.25v1.25h1.25v-1.25ZM10.625 21.875h-1.25v1.25h1.25v-1.25Z"/></svg>