<svg xmlns="http://www.w3.org/2000/svg" width="38" height="38" fill="none"><path stroke="#111" stroke-linecap="round" stroke-linejoin="round" stroke-miterlimit="10" stroke-width="1.25" d="M3.12 11.625c-1.064 2.259-1.728 4.916-1.728 7.574 0 7.31 4.252 13.555 10.498 16.346.399.133-8.638-24.186-8.77-23.92ZM35.013 10.96c0-.133.266-.133.266 0 .664 1.462 1.993 4.784 1.993 8.372 0 9.834-7.973 14.884-7.973 14.751 3.19-6.379 5.847-19.933 5.714-23.123ZM8.7 12.156l5.98 17.808 4.386-11.562-2.26-5.98"/><path stroke="#111" stroke-linecap="round" stroke-linejoin="round" stroke-miterlimit="10" stroke-width="1.25" d="m22.388 12.023 5.715 17.542s4.784-11.03 2.923-14.618c-4.252-8.24-.797-8.77.266-8.77 0 0-3.322-4.918-13.023-4.918S4.714 9.233 4.714 9.233h6.113"/><path stroke="#111" stroke-linecap="round" stroke-linejoin="round" stroke-miterlimit="10" stroke-width="1.25" d="m16.142 33.286 4.652-12.758L25.71 36.21s-1.86 1.196-7.043.93c-1.86-.132-3.19-1.993-2.525-3.853Z"/></svg>