<svg xmlns="http://www.w3.org/2000/svg" width="40" height="42" fill="none"><path fill="#111" d="M39.98 9.308a.467.467 0 0 0-.022-.055.679.679 0 0 0-.042-.1.474.474 0 0 0-.044-.057.752.752 0 0 0-.058-.076c-.018-.017-.042-.032-.062-.048a.711.711 0 0 0-.072-.055l-7.743-4.453a.644.644 0 0 0-.643 0L23.55 8.92a.646.646 0 0 0-.07.055.613.613 0 0 0-.064.048.646.646 0 0 0-.058.075c-.013.02-.03.036-.043.057a.791.791 0 0 0-.042.1c-.006.02-.017.036-.022.055a.646.646 0 0 0-.023.167v8.457l-6.452 3.712V5.098a.623.623 0 0 0-.023-.168c-.005-.02-.016-.036-.022-.055a.666.666 0 0 0-.042-.1c-.011-.02-.03-.037-.044-.057a.736.736 0 0 0-.057-.076.755.755 0 0 0-.063-.048.786.786 0 0 0-.07-.054L8.708.086a.644.644 0 0 0-.643 0L.323 4.54a.525.525 0 0 0-.071.055.628.628 0 0 0-.064.048.655.655 0 0 0-.057.075c-.014.02-.032.037-.044.058a.633.633 0 0 0-.041.1.519.519 0 0 0-.023.053.657.657 0 0 0-.023.169v26.494a.643.643 0 0 0 .322.558l15.483 8.907a.72.72 0 0 0 .107.043c.017.007.033.016.05.021a.638.638 0 0 0 .33 0c.016-.004.03-.013.045-.018a.696.696 0 0 0 .112-.046l15.488-8.907a.643.643 0 0 0 .322-.558v-8.459l7.42-4.267a.642.642 0 0 0 .321-.563V9.476a.698.698 0 0 0-.02-.168ZM8.388 1.388l6.45 3.71-6.451 3.71-6.45-3.71 6.45-3.71Zm7.098 4.822v16.178l-3.743 2.152-2.71 1.56V9.923l3.743-2.153 2.71-1.56Zm0 33.17L1.29 31.219V6.213L4 7.771l3.742 2.153v17.291a.553.553 0 0 0 .01.073.643.643 0 0 0 .012.095c.008.024.019.049.03.072.01.028.021.055.035.08a.68.68 0 0 0 .048.063.61.61 0 0 0 .053.067c.018.018.042.03.062.047.022.02.045.037.069.053l7.415 4.193.009 7.422Zm.643-8.532-6.44-3.641 6.764-3.89 7.421-4.268 6.445 3.707-4.73 2.696-9.46 5.396Zm14.842.368-14.196 8.168v-7.418l10.514-5.995 3.682-2.1v7.345Zm0-9.573-2.71-1.554-3.743-2.152V10.59l2.71 1.56 3.743 2.154v7.339Zm.643-8.46-6.45-3.71 6.45-3.71 6.45 3.709-6.45 3.71Zm.644 8.46v-7.34l3.75-2.154 2.71-1.559v7.344l-6.46 3.709Z"/></svg>