<svg xmlns="http://www.w3.org/2000/svg" width="40" height="36" fill="none"><path fill="#111" d="M20 14.229a3.565 3.565 0 1 0 0 7.129 3.565 3.565 0 0 0 0-7.13Zm-9.987 10.657-.786-.2C3.363 23.204 0 20.689 0 17.787c0-2.901 3.363-5.416 9.227-6.898l.786-.198.222.78a39.216 39.216 0 0 0 2.272 5.963l.168.355-.168.355a38.845 38.845 0 0 0-2.272 5.963l-.222.779ZM8.862 12.71c-4.457 1.251-7.192 3.166-7.192 5.076 0 1.909 2.735 3.823 7.192 5.077a41.586 41.586 0 0 1 1.97-5.077 41.245 41.245 0 0 1-1.97-5.076Zm21.125 12.175-.222-.782a38.935 38.935 0 0 0-2.273-5.962l-.169-.355.169-.355a39.038 39.038 0 0 0 2.273-5.963l.222-.78.788.198C36.637 12.37 40 14.884 40 17.787c0 2.904-3.363 5.417-9.225 6.899l-.788.2Zm-.819-7.099a41.21 41.21 0 0 1 1.97 5.077c4.459-1.254 7.192-3.169 7.192-5.077 0-1.91-2.735-3.823-7.192-5.076a41.308 41.308 0 0 1-1.97 5.076ZM8.85 12.702l-.222-.778C6.98 6.114 7.48 1.95 10 .497c2.472-1.427 6.44.258 10.598 4.527l.567.581-.567.582a39.255 39.255 0 0 0-4.036 4.945l-.225.322-.392.033a39.433 39.433 0 0 0-6.308 1.017l-.787.198Zm3.16-11.05c-.447 0-.842.097-1.175.288-1.657.955-1.95 4.275-.808 8.755a41.866 41.866 0 0 1 5.388-.835 41.414 41.414 0 0 1 3.42-4.24c-2.6-2.531-5.062-3.968-6.825-3.968ZM27.992 35.59c-.002 0-.002 0 0 0-2.375 0-5.425-1.788-8.59-5.038l-.567-.582.567-.582a39.22 39.22 0 0 0 4.035-4.947l.225-.321.39-.034a39.39 39.39 0 0 0 6.311-1.015l.787-.198.223.78C33.018 29.46 32.52 33.624 30 35.075a3.967 3.967 0 0 1-2.008.514Zm-6.827-5.635c2.6 2.532 5.062 3.968 6.825 3.968h.002c.445 0 .841-.096 1.173-.288 1.657-.955 1.952-4.277.808-8.757a41.69 41.69 0 0 1-5.39.835 41.125 41.125 0 0 1-3.418 4.242Zm9.985-17.252-.787-.198a39.13 39.13 0 0 0-6.311-1.017l-.39-.033-.225-.322a39.038 39.038 0 0 0-4.035-4.945l-.567-.582.567-.581C23.558.757 27.525-.928 30 .497c2.52 1.453 3.02 5.617 1.373 11.425l-.223.78ZM24.583 9.86a41.56 41.56 0 0 1 5.39.835c1.144-4.48.849-7.8-.808-8.755-1.647-.951-4.742.507-8 3.68a41.41 41.41 0 0 1 3.418 4.24ZM12.01 35.59a3.967 3.967 0 0 1-2.01-.514c-2.52-1.451-3.02-5.615-1.372-11.423l.22-.78.787.198c1.925.485 4.048.827 6.308 1.015l.392.034.223.322a39.33 39.33 0 0 0 4.037 4.946l.567.582-.567.581c-3.163 3.25-6.213 5.039-8.585 5.039Zm-1.983-10.712c-1.144 4.48-.849 7.802.808 8.757 1.645.938 4.738-.508 8-3.68a41.659 41.659 0 0 1-3.42-4.242 41.613 41.613 0 0 1-5.388-.835ZM20 25.924c-1.372 0-2.782-.06-4.193-.177l-.392-.033-.225-.322a50.65 50.65 0 0 1-2.25-3.537 50.584 50.584 0 0 1-1.943-3.713l-.167-.355.167-.355a50.504 50.504 0 0 1 1.943-3.713 50.659 50.659 0 0 1 2.25-3.537l.225-.322.392-.033a49.642 49.642 0 0 1 8.388 0l.39.033.223.322a50.01 50.01 0 0 1 4.195 7.25l.169.355-.169.355a49.313 49.313 0 0 1-4.195 7.25l-.223.322-.39.033a51.156 51.156 0 0 1-4.195.177Zm-3.662-1.807c2.467.185 4.857.185 7.325 0a48.324 48.324 0 0 0 3.66-6.33 47.638 47.638 0 0 0-3.661-6.33 48.387 48.387 0 0 0-7.324 0 47.462 47.462 0 0 0-3.661 6.33 48.528 48.528 0 0 0 3.661 6.33Z"/></svg>