<svg width="22" height="20" fill="none" xmlns="http://www.w3.org/2000/svg"><path d="M1.675 19.891h8.873a.322.322 0 0 0 .224-.09.303.303 0 0 0 0-.435.322.322 0 0 0-.224-.09H1.675a.321.321 0 0 1-.224-.09.303.303 0 0 1-.093-.218V1.109c0-.081.034-.16.093-.217.06-.058.14-.09.224-.09h13.31c.084 0 .164.032.224.09.059.057.092.136.092.217v3.08c0 .081.034.16.093.217a.322.322 0 0 0 .448 0 .303.303 0 0 0 .093-.218V1.11c0-.509-.426-.923-.95-.923H1.675c-.524 0-.95.414-.95.923v17.859c0 .509.426.923.95.923Z" fill="#009ECB"/><path d="M4.035 14.303H9.51a.192.192 0 0 0 .138-.33.197.197 0 0 0-.138-.056H4.035a.197.197 0 0 1-.138-.056.192.192 0 0 1-.057-.137V2.53c0-.05.02-.1.057-.136a.197.197 0 0 1 .138-.057h8.211c.052 0 .101.02.138.057a.192.192 0 0 1 .057.136v1.93a.197.197 0 0 0 .334.136.192.192 0 0 0 .057-.136V2.53a.584.584 0 0 0-.586-.579h-8.21a.584.584 0 0 0-.587.58v11.194c0 .32.263.58.586.58Z" fill="#009ECB"/><path d="M12.132 6.652v12.316c0 .509.427.923.951.923h6.972c.524 0 .95-.414.95-.923V6.652c0-.51-.426-.924-.95-.924h-6.972c-.524 0-.95.414-.95.924Zm8.24 0v12.316c0 .081-.034.16-.093.217a.322.322 0 0 1-.224.09h-6.972a.322.322 0 0 1-.224-.09.304.304 0 0 1-.093-.217V6.652c0-.082.034-.16.093-.218.06-.058.14-.09.224-.09h6.972c.084 0 .164.032.224.09.06.058.093.136.093.218Z" fill="#009ECB"/><path d="M13.74 7.526v7.672a.58.58 0 0 0 .584.576h4.281a.58.58 0 0 0 .584-.576V7.526a.58.58 0 0 0-.584-.576h-4.28a.58.58 0 0 0-.584.576Zm5.06 0v7.672c0 .051-.02.1-.057.136a.196.196 0 0 1-.138.056h-4.28a.196.196 0 0 1-.138-.056.19.19 0 0 1-.057-.136V7.526c0-.051.02-.1.057-.136a.196.196 0 0 1 .137-.056h4.281c.052 0 .101.02.138.056a.19.19 0 0 1 .057.136ZM8.33 18.044c.35 0 .634-.276.634-.616a.625.625 0 0 0-.634-.616.625.625 0 0 0-.634.616c0 .34.284.616.634.616ZM16.569 18.044c.35 0 .634-.276.634-.616a.625.625 0 0 0-.634-.616.625.625 0 0 0-.634.616c0 .34.284.616.634.616Z" fill="#009ECB"/></svg>