<svg width="22" height="21" fill="none" xmlns="http://www.w3.org/2000/svg"><path d="M.724.313v20.494h20.281v-.683h-2.028V6.398c.392-.142.676-.518.676-.96 0-.244-.09-.467-.232-.643l.417-.565.053.5.672-.074-.18-1.697-1.68.181.072.68.567-.062-.497.675a.978.978 0 0 0-.206-.021c-.556 0-1.014.463-1.014 1.024 0 .175.048.336.126.48l-3.473 4.717a.992.992 0 0 0-1.104.249l-3.02-1.78c.02-.08.035-.163.035-.25 0-.562-.458-1.025-1.014-1.025S8.16 8.29 8.16 8.852c0 .223.074.429.196.598L4.73 14.705a.974.974 0 0 0-.286-.046 1.019 1.019 0 0 0-.81 1.633L1.4 19.525V.313H.724Zm9.371 2.045-.025.68.338.011.565.022.08.01.335.042.084-.678-.335-.043-.098-.012h-.03l-.577-.021-.337-.01Zm-.735.072-.334.048-.226.034h-.016l-.015.006-.435.107-.33.08.16.665.328-.082.427-.102.204-.031.334-.05-.097-.675Zm2.844.123L12 3.204l.323.103.645.205.322.103.204-.651-.322-.103-.646-.205-.322-.103Zm-4.896.398-.31.14-.372.17-.014.006-.013.008-.233.133-.294.17.335.594.293-.17.22-.127.357-.161.308-.14-.277-.623Zm6.845.35-.316.604.299.16.087.045.458.302.282.186.37-.572-.283-.187-.474-.312-.013-.008-.014-.008-.097-.052-.3-.159Zm-8.707.677-.257.22-.488.42-.012.011-.011.01-.024.028-.237.244.485.476.236-.245h.002l.006-.007.48-.415.258-.222-.438-.52Zm10.45.536-.47.493.245.236.188.18.005.007.247.29.22.258.513-.447-.22-.257-.253-.297-.01-.013-.013-.01-.21-.203-.243-.237Zm2.743.58c.191 0 .338.15.338.342a.335.335 0 0 1-.338.342.335.335 0 0 1-.338-.342c0-.192.148-.341.338-.341Zm-14.692.35-.212.266-.048.06-.009.012-.01.013-.33.505-.188.284.562.379.188-.284.325-.494.037-.047.212-.265-.527-.429Zm14.305.94c.016.006.033.009.05.014v13.726h-4.057v-7.577c.392-.143.676-.52.676-.961 0-.18-.052-.35-.135-.498l3.466-4.704ZM2.83 7.256l-.133.315-.082.191-.005.013-.005.015-.146.452-.105.325.643.212.104-.325.14-.433.077-.18.133-.315-.62-.27Zm6.345 1.255c.19 0 .338.148.338.341a.335.335 0 0 1-.338.342.335.335 0 0 1-.338-.342c0-.193.147-.341.338-.341Zm-6.973.783-.046.34-.044.326-.003.013v.016l-.017.353-.014.342.674.032.016-.341.015-.34.042-.31.046-.338-.67-.093Zm7.574.379 3.125 1.84c-.002.024-.008.048-.008.073 0 .442.285.818.676.96v7.578H9.513V9.813c.094-.035.183-.08.263-.14Zm-.94.276v10.175H4.782v-3.479a1.026 1.026 0 0 0 .496-1.54l3.56-5.156Zm5.071 1.294c.19 0 .338.149.338.342a.335.335 0 0 1-.338.341.335.335 0 0 1-.338-.341c0-.193.147-.342.338-.342Zm-11.136.092-.67.096.045.338.064.467.002.014.004.016.048.206.076.332.66-.155-.079-.332-.04-.176-.002-.007-.063-.461-.045-.338Zm.383 1.916-.618.278.137.312.274.624.137.313.618-.278-.138-.312-.273-.625-.137-.312Zm1.289 2.09c.19 0 .338.15.338.343a.335.335 0 0 1-.338.341.335.335 0 0 1-.338-.341c0-.193.147-.342.338-.342Zm-.338 1.46v3.323H1.81L4.105 16.8ZM1.4 20.118l.008.005H1.4v-.005Z" fill="#009ECB"/></svg>