<svg width="44" height="32" fill="none" xmlns="http://www.w3.org/2000/svg"><path d="M1.445 25.67a.264.264 0 0 1-.19-.08.273.273 0 0 1-.079-.194V1.43a.277.277 0 0 1 .08-.194.268.268 0 0 1 .189-.079H42.94a.264.264 0 0 1 .189.079.274.274 0 0 1 .08.194v9.022a.275.275 0 0 1-.08.194.266.266 0 0 1-.378 0 .276.276 0 0 1-.08-.194V1.703H1.714v23.42h18.174c.07 0 .138.028.189.079a.275.275 0 0 1 0 .388.266.266 0 0 1-.189.08H1.445Z" fill="#fff" stroke="#fff"/><path d="M9.315 4.722a.307.307 0 0 1-.189.074.29.29 0 0 1-.183-.072.393.393 0 0 1-.06-.1l-.004-.01-.005-.01a.146.146 0 0 1-.014-.067v-.014c0-.074.03-.143.08-.194a.266.266 0 0 1 .377 0c.05.05.08.118.08.19 0 .036-.008.07-.022.102l-.001.003a.393.393 0 0 1-.059.098Zm-2.388-.448.003.001a.263.263 0 0 1 .166.3.264.264 0 0 1-.161.192l-.009.004-.008.003a.264.264 0 0 1-.097.022.268.268 0 0 1-.245-.17.28.28 0 0 1 .054-.297.282.282 0 0 1 .297-.055Zm-2.654.35-.002-.003a.277.277 0 0 1-.021-.103.276.276 0 0 1 .166-.252.264.264 0 0 1 .288.055c.05.055.08.127.082.202a.277.277 0 0 1-.021.098l-.002.003a.393.393 0 0 1-.058.098.307.307 0 0 1-.187.074.306.306 0 0 1-.187-.074.393.393 0 0 1-.058-.098Zm15.614 26.457a.264.264 0 0 1-.19-.079.274.274 0 0 1-.079-.194v-6.185a.277.277 0 0 1 .08-.194.27.27 0 0 1 .189-.079h1.283c.07 0 .138.028.189.079a.275.275 0 0 1 0 .388.266.266 0 0 1-.19.08h-1.014v5.638h4.074V27.97c0-.074.029-.144.08-.195a.266.266 0 0 1 .377 0c.05.051.08.121.08.195v2.837a.274.274 0 0 1-.167.253.263.263 0 0 1-.102.02v.5-.5h-4.61ZM42.94 4.796H12.202a.266.266 0 0 1-.188-.08.276.276 0 0 1 0-.387.266.266 0 0 1 .188-.08H42.94c.07 0 .138.029.188.08a.275.275 0 0 1 0 .388.266.266 0 0 1-.188.079Z" fill="#fff" stroke="#fff"/><mask id="a" fill="#fff"><path d="M26.034 31.58H18.35a.766.766 0 0 1-.543-.225.776.776 0 0 1 .543-1.32h7.684a.766.766 0 0 1 .769.773.766.766 0 0 1-.768.773Zm9.221-2.318h-3.842a.764.764 0 0 1-.71-.478.777.777 0 0 1-.058-.296V26.2a7.713 7.713 0 0 1-.593-.246l-1.608 1.617a.768.768 0 0 1-.837.168.768.768 0 0 1-.25-.168l-2.716-2.733a.771.771 0 0 1-.167-.842.773.773 0 0 1 .167-.251l1.607-1.618a7.663 7.663 0 0 1-.244-.596H23.73a.764.764 0 0 1-.71-.477.775.775 0 0 1-.058-.296v-3.866a.775.775 0 0 1 .474-.714.764.764 0 0 1 .294-.059h2.275c.074-.203.155-.402.244-.596l-1.607-1.618a.773.773 0 0 1-.167-.843.771.771 0 0 1 .167-.25l2.716-2.733a.767.767 0 0 1 1.087 0l1.608 1.617c.193-.09.391-.172.593-.246V9.161a.778.778 0 0 1 .474-.714.765.765 0 0 1 .294-.059h3.842a.764.764 0 0 1 .71.477.776.776 0 0 1 .059.296v2.289c.202.074.4.156.593.246l1.608-1.617a.77.77 0 0 1 .837-.168.768.768 0 0 1 .25.168l2.716 2.733a.773.773 0 0 1 .167.842.774.774 0 0 1-.167.25l-1.607 1.619c.089.194.17.393.243.596h2.276a.764.764 0 0 1 .71.477.777.777 0 0 1 .058.296v3.866a.777.777 0 0 1-.474.714.764.764 0 0 1-.294.059h-2.276a7.662 7.662 0 0 1-.243.596l1.607 1.618a.774.774 0 0 1 0 1.093l-2.716 2.733a.768.768 0 0 1-.838.168.77.77 0 0 1-.25-.168l-1.607-1.617c-.193.09-.391.172-.593.246v2.288a.775.775 0 0 1-.474.715.764.764 0 0 1-.294.059Zm-3.073-1.547h2.305v-2.077a.776.776 0 0 1 .56-.744c.467-.132.919-.32 1.343-.558a.766.766 0 0 1 .92.128l1.458 1.468 1.63-1.64-1.458-1.468a.776.776 0 0 1-.127-.924c.236-.428.422-.882.554-1.353a.773.773 0 0 1 .74-.563h2.064v-2.319h-2.065a.765.765 0 0 1-.739-.562 6.3 6.3 0 0 0-.554-1.353.777.777 0 0 1 .127-.924l1.458-1.468-1.63-1.64-1.459 1.468a.766.766 0 0 1-.919.128 6.162 6.162 0 0 0-1.344-.558.768.768 0 0 1-.559-.744V9.934h-2.305v2.078a.776.776 0 0 1-.56.744c-.468.132-.919.32-1.343.558a.766.766 0 0 1-.92-.128l-1.458-1.468-1.63 1.64 1.458 1.468a.776.776 0 0 1 .127.924 6.292 6.292 0 0 0-.554 1.353.773.773 0 0 1-.74.562h-2.065v2.32h2.066a.766.766 0 0 1 .739.562c.131.47.318.925.554 1.353a.778.778 0 0 1-.127.924l-1.458 1.468 1.63 1.64 1.458-1.468a.77.77 0 0 1 .92-.128c.424.239.875.426 1.344.558a.768.768 0 0 1 .559.744v2.077Z"/></mask><path d="M26.034 31.58H18.35a.766.766 0 0 1-.543-.225.776.776 0 0 1 .543-1.32h7.684a.766.766 0 0 1 .769.773.766.766 0 0 1-.768.773Zm9.221-2.318h-3.842a.764.764 0 0 1-.71-.478.777.777 0 0 1-.058-.296V26.2a7.713 7.713 0 0 1-.593-.246l-1.608 1.617a.768.768 0 0 1-.837.168.768.768 0 0 1-.25-.168l-2.716-2.733a.771.771 0 0 1-.167-.842.773.773 0 0 1 .167-.251l1.607-1.618a7.663 7.663 0 0 1-.244-.596H23.73a.764.764 0 0 1-.71-.477.775.775 0 0 1-.058-.296v-3.866a.775.775 0 0 1 .474-.714.764.764 0 0 1 .294-.059h2.275c.074-.203.155-.402.244-.596l-1.607-1.618a.773.773 0 0 1-.167-.843.771.771 0 0 1 .167-.25l2.716-2.733a.767.767 0 0 1 1.087 0l1.608 1.617c.193-.09.391-.172.593-.246V9.161a.778.778 0 0 1 .474-.714.765.765 0 0 1 .294-.059h3.842a.764.764 0 0 1 .71.477.776.776 0 0 1 .059.296v2.289c.202.074.4.156.593.246l1.608-1.617a.77.77 0 0 1 .837-.168.768.768 0 0 1 .25.168l2.716 2.733a.773.773 0 0 1 .167.842.774.774 0 0 1-.167.25l-1.607 1.619c.089.194.17.393.243.596h2.276a.764.764 0 0 1 .71.477.777.777 0 0 1 .058.296v3.866a.777.777 0 0 1-.474.714.764.764 0 0 1-.294.059h-2.276a7.662 7.662 0 0 1-.243.596l1.607 1.618a.774.774 0 0 1 0 1.093l-2.716 2.733a.768.768 0 0 1-.838.168.77.77 0 0 1-.25-.168l-1.607-1.617c-.193.09-.391.172-.593.246v2.288a.775.775 0 0 1-.474.715.764.764 0 0 1-.294.059Zm-3.073-1.547h2.305v-2.077a.776.776 0 0 1 .56-.744c.467-.132.919-.32 1.343-.558a.766.766 0 0 1 .92.128l1.458 1.468 1.63-1.64-1.458-1.468a.776.776 0 0 1-.127-.924c.236-.428.422-.882.554-1.353a.773.773 0 0 1 .74-.563h2.064v-2.319h-2.065a.765.765 0 0 1-.739-.562 6.3 6.3 0 0 0-.554-1.353.777.777 0 0 1 .127-.924l1.458-1.468-1.63-1.64-1.459 1.468a.766.766 0 0 1-.919.128 6.162 6.162 0 0 0-1.344-.558.768.768 0 0 1-.559-.744V9.934h-2.305v2.078a.776.776 0 0 1-.56.744c-.468.132-.919.32-1.343.558a.766.766 0 0 1-.92-.128l-1.458-1.468-1.63 1.64 1.458 1.468a.776.776 0 0 1 .127.924 6.292 6.292 0 0 0-.554 1.353.773.773 0 0 1-.74.562h-2.065v2.32h2.066a.766.766 0 0 1 .739.562c.131.47.318.925.554 1.353a.778.778 0 0 1-.127.924l-1.458 1.468 1.63 1.64 1.458-1.468a.77.77 0 0 1 .92-.128c.424.239.875.426 1.344.558a.768.768 0 0 1 .559.744v2.077Z" fill="#fff" stroke="#fff" stroke-width="2" mask="url(#a)"/><path d="M30.9 22.496c.72.485 1.567.743 2.434.743l-2.435-.743Zm0 0a4.408 4.408 0 0 1-1.616-1.981m1.615 1.981-1.615-1.981m0 0a4.443 4.443 0 0 1-.25-2.552m.25 2.552-.25-2.552m0 0a4.424 4.424 0 0 1 1.201-2.26m-1.2 2.26 1.2-2.26m0 0a4.376 4.376 0 0 1 2.245-1.208m-2.245 1.207 2.245-1.207m0 0a4.357 4.357 0 0 1 2.532.251m-2.532-.25 2.532.25m0 0c.8.334 1.486.9 1.968 1.625m-1.968-1.625 1.968 1.625m0 0c.482.726.74 1.58.74 2.453l-.74-2.453Zm.203 2.454a3.883 3.883 0 0 0-1.128-2.733 3.842 3.842 0 0 0-2.72-1.135v.5-.5c-.763 0-1.507.227-2.14.652a3.864 3.864 0 0 0-1.416 1.737 3.887 3.887 0 0 0 .834 4.213 3.83 3.83 0 0 0 4.195.839 3.853 3.853 0 0 0 1.727-1.425 3.883 3.883 0 0 0 .648-2.148Zm-.75 3.121a4.376 4.376 0 0 1-3.1 1.293l4.386-4.415a4.435 4.435 0 0 1-1.287 3.122Z" fill="#fff" stroke="#fff"/></svg>
