<svg width="19" height="20" fill="none" xmlns="http://www.w3.org/2000/svg"><path d="M12.546 7.202 6.34 12.135c-.123.103-.164.309-.04.432a.293.293 0 0 0 .246.123c.061 0 .144-.02.185-.061l6.207-4.933c.123-.103.164-.309.04-.432-.102-.144-.287-.164-.43-.062ZM8.004 9.402c.082 0 .164 0 .246-.02a1.549 1.549 0 0 0 1.295-1.789 1.585 1.585 0 0 0-.616-1.028 1.53 1.53 0 0 0-1.151-.287 1.585 1.585 0 0 0-1.028.616 1.53 1.53 0 0 0-.288 1.151c.124.802.802 1.357 1.542 1.357ZM7.86 6.915c.041 0 .103-.02.144-.02a.93.93 0 0 1 .925.8.932.932 0 0 1-.781 1.07.932.932 0 0 1-1.07-.781c-.081-.514.289-.987.782-1.07ZM11.293 10.43a1.561 1.561 0 1 0 1.562 1.561c-.021-.863-.72-1.562-1.563-1.562Zm0 2.486a.956.956 0 0 1-.946-.945c0-.514.432-.946.946-.946.513 0 .945.432.945.946-.02.534-.432.945-.945.945Z" fill="#009ECB"/><path d="M18.98 9.71c0-.02.02-.062.02-.082 0-.884-.925-1.336-1.727-1.727-.575-.287-1.192-.596-1.356-.966-.164-.39.062-1.027.288-1.623.308-.843.616-1.706.04-2.282-.575-.575-1.397-.37-2.219-.185-.575.123-1.171.267-1.562.103-.39-.164-.72-.678-1.028-1.172-.452-.698-.945-1.5-1.808-1.5-.864 0-1.357.802-1.788 1.521-.309.514-.617 1.028-1.008 1.192-.39.164-1.007.02-1.582-.123-.822-.206-1.665-.411-2.22.144-.575.575-.288 1.438-.02 2.281.205.617.39 1.233.226 1.644-.165.39-.74.679-1.295.966-.781.411-1.665.864-1.665 1.727 0 .02 0 .061.02.082 0 .02-.02.062-.02.082 0 .864.884 1.336 1.665 1.727.555.287 1.13.575 1.295.966.164.39-.042 1.027-.227 1.644-.267.843-.554 1.706.021 2.281.576.576 1.418.35 2.22.144.575-.144 1.192-.287 1.582-.123.39.164.7.678 1.008 1.192.431.72.924 1.521 1.788 1.521.863 0 1.377-.802 1.808-1.5.309-.494.637-1.007 1.028-1.172.411-.164.987-.041 1.562.103.802.185 1.644.39 2.22-.185.575-.576.267-1.439-.041-2.282-.226-.616-.452-1.233-.288-1.623.164-.39.76-.679 1.356-.966.802-.411 1.727-.864 1.727-1.727 0-.04-.02-.061-.02-.082Zm-1.994 1.254c-.678.35-1.398.699-1.645 1.295-.267.616.021 1.356.268 2.075.246.679.493 1.337.185 1.624-.33.33-.966.185-1.645.02-.678-.164-1.356-.307-1.952-.06-.576.246-.946.821-1.295 1.397-.39.616-.76 1.212-1.295 1.212-.514 0-.884-.596-1.274-1.233-.35-.596-.72-1.192-1.295-1.439-.596-.246-1.295-.082-1.973.103-.678.165-1.316.33-1.644.02-.309-.307-.103-.965.123-1.643.226-.72.473-1.46.205-2.056-.246-.596-.925-.945-1.582-1.274-.678-.35-1.316-.678-1.316-1.192 0-.02 0-.062-.02-.082 0-.021.02-.062.02-.083 0-.493.638-.822 1.316-1.192.658-.329 1.336-.678 1.582-1.274.247-.617.021-1.357-.205-2.055-.226-.7-.432-1.357-.123-1.645.328-.329.966-.164 1.644.02.678.165 1.377.35 1.973.104.575-.247.945-.843 1.295-1.44.39-.636.74-1.232 1.274-1.232.535 0 .905.596 1.295 1.212.37.576.74 1.151 1.295 1.398.596.247 1.274.082 1.952-.062.679-.164 1.316-.308 1.645.02.308.289.061.946-.185 1.625-.268.719-.535 1.459-.268 2.075.247.597.967.946 1.645 1.295.72.35 1.377.7 1.377 1.192 0 .021 0 .062.02.083 0 .02-.02.061-.02.082.02.41-.658.76-1.377 1.11Z" fill="#009ECB"/></svg>