<svg width="411" height="398" viewBox="0 0 411 398" fill="none" xmlns="http://www.w3.org/2000/svg">
<path d="M1.84442 143.898C0.278736 143.092 0.444022 140.802 2.10926 140.229L407.69 0.65735C409.337 0.0907574 410.871 1.7528 410.174 3.34861L238.581 396.453C237.876 398.067 235.58 398.048 234.902 396.423L185.633 278.377C185.098 277.095 183.452 276.735 182.431 277.677L80.8479 371.429C80.0362 372.178 78.7709 372.128 78.0217 371.316L14.3126 302.286C13.5634 301.475 13.6142 300.209 14.4259 299.46L116.009 205.708C117.03 204.766 116.803 203.096 115.568 202.46L1.84442 143.898Z" fill="#08629E"/>
</svg>
