<svg width="22" height="18" fill="none" xmlns="http://www.w3.org/2000/svg"><path d="M.724.095v17.051h20.281V.095H.725Zm19.648 16.418H1.358V.728h19.014v15.785Z" fill="#009ECB"/><path d="M2.72 1.996a.38.38 0 1 0 .001-.76.38.38 0 0 0 0 .76Zm1.114 0a.38.38 0 1 0 0-.76.38.38 0 0 0 0 .76Zm1.094 0a.38.38 0 1 0 0-.76.38.38 0 0 0 0 .76ZM3.104 15.92h15.78c.527 0 .973-.423.973-.942V2.29c0-.39-.338-.692-.733-.692h-4.128l-1.414.87H3.104a.96.96 0 0 0-.954.955v11.555c0 .519.427.942.954.942Zm-.32-12.497c0-.17.143-.321.32-.321h10.662l1.415-.87h3.943c.046 0 .099.017.099.058v12.688c0 .17-.161.309-.34.309H3.105a.315.315 0 0 1-.32-.309V3.423Z" fill="#009ECB"/><path d="M9.439 8.126H3.735v.712h5.704v-.712ZM9.439 9.59H3.735v.712h5.704V9.59ZM9.439 11.054H3.735v.712h5.704v-.712ZM17.955 6.662h-7.803v6.093h7.803V6.662Zm-7.17 5.38v-.435l1.318-1.318.818.818 2.603-2.617 1.798 1.808v1.745h-6.536Zm0-4.747h6.537V9.4L15.524 7.59l-2.602 2.618-.82-.818-1.317 1.317V7.295Z" fill="#009ECB"/><path d="M12.708 8.643a.614.614 0 0 0-.186-.451.616.616 0 0 0-.451-.186.615.615 0 0 0-.452.186.613.613 0 0 0-.185.45c0 .178.061.328.185.452a.615.615 0 0 0 .452.185.616.616 0 0 0 .451-.185.613.613 0 0 0 .186-.451Z" fill="#009ECB"/></svg>