<svg width="15" height="18" fill="none" xmlns="http://www.w3.org/2000/svg"><path d="M12.88 1.35C12.094.45 10.64 0 8.623 0h-5.6c-.336 0-.672.338-.784.675L0 15.412c0 .338.224.563.448.563H3.92l.896-5.512v.225c.112-.338.448-.676.784-.676h1.68c3.247 0 5.711-1.35 6.495-5.062v-.338c-.112 0-.112 0 0 0 .112-1.462-.112-2.362-.896-3.262Z" fill="#08629E"/><path d="M13.663 4.612v.338c-.784 3.825-3.248 5.062-6.495 5.062h-1.68c-.336 0-.672.338-.784.675l-1.12 6.863c0 .225.112.45.448.45h2.912c.336 0 .672-.225.672-.563v-.112l.56-3.487v-.225c0-.338.336-.563.671-.563h.448c2.8 0 5.04-1.125 5.6-4.5.224-1.35.112-2.588-.56-3.375a1.148 1.148 0 0 0-.672-.563Z" fill="#139AD6"/><path d="M12.88 4.275c-.113 0-.225-.113-.337-.113-.112 0-.224 0-.336-.112-.448-.112-.896-.112-1.456-.112H6.384c-.112 0-.224 0-.336.112a.62.62 0 0 0-.336.563l-.896 5.85v.225c.112-.338.448-.676.784-.676h1.68c3.247 0 5.711-1.35 6.495-5.062 0-.112 0-.225.112-.338-.224-.112-.336-.224-.56-.224-.336-.113-.336-.113-.448-.113Z" fill="#08629E"/></svg>