<svg width="19" height="18" fill="none" xmlns="http://www.w3.org/2000/svg"><path d="M8.564 10.82a.78.78 0 0 0-.776-.694H6.703v-.973a1.696 1.696 0 1 0-3.392 0v.973H2.226a.78.78 0 0 0-.776.694l-.542 4.87A1.3 1.3 0 0 0 2.2 17.133h5.595a1.315 1.315 0 0 0 1.309-1.462l-.54-4.85ZM3.757 9.153a1.25 1.25 0 1 1 2.5 0v.973h-2.5v-.973Zm4.687 7.244a.871.871 0 0 1-.649.29H2.2a.854.854 0 0 1-.85-.948l.543-4.87a.335.335 0 0 1 .333-.298H3.31v.923h.446v-.923h2.5v.923h.446v-.923h1.085a.335.335 0 0 1 .334.298l.54 4.851a.872.872 0 0 1-.218.677Z" fill="#009ECB"/><path d="M4.998 11.942a1.861 1.861 0 1 0 0 3.723 1.861 1.861 0 0 0 0-3.723Zm.136 2.574v.268H4.8v-.264h-.35v-.334h.622a.17.17 0 0 0 0-.339h-.136a.467.467 0 0 1-.1-.923v-.275h.334v.265h.387v.334h-.621a.133.133 0 0 0 0 .265h.136a.503.503 0 0 1 .062 1.003ZM18.17 15.67l-.54-4.85a.78.78 0 0 0-.776-.694h-1.086v-.973a1.696 1.696 0 0 0-3.391 0v.973H11.29a.78.78 0 0 0-.776.694l-.541 4.87a1.3 1.3 0 0 0 1.291 1.443h5.596a1.316 1.316 0 0 0 1.308-1.462Zm-5.348-6.517a1.25 1.25 0 1 1 2.5 0v.973h-2.5v-.973Zm4.688 7.244a.87.87 0 0 1-.65.29h-5.595a.854.854 0 0 1-.849-.948l.542-4.87a.334.334 0 0 1 .333-.298h1.086v.923h.445v-.923h2.5v.923h.446v-.923h1.086a.335.335 0 0 1 .333.298l.54 4.851a.872.872 0 0 1-.217.677Z" fill="#009ECB"/><path d="M14.063 11.942a1.861 1.861 0 1 0 0 3.723 1.861 1.861 0 0 0 0-3.723Zm.136 2.574v.268h-.334v-.264h-.35v-.334h.622a.17.17 0 0 0 0-.339H14a.467.467 0 0 1-.1-.923v-.275h.334v.265h.387v.334H14a.133.133 0 0 0 0 .265h.136a.503.503 0 0 1 .062 1.003ZM12.645 3.276c-.11-.089-.248-.2-.272-.272-.026-.08.021-.258.06-.4.068-.256.146-.546-.015-.767-.162-.223-.464-.239-.73-.252-.146-.008-.328-.017-.394-.065-.064-.047-.128-.215-.18-.35-.095-.251-.204-.536-.469-.622-.256-.083-.506.079-.726.222-.132.086-.282.183-.37.183-.088 0-.238-.097-.37-.183-.22-.143-.47-.305-.726-.222-.265.086-.374.37-.47.622-.05.135-.114.303-.179.35-.066.048-.247.057-.393.065-.267.013-.568.029-.73.252-.162.22-.084.511-.015.767.038.142.085.32.059.4-.024.072-.161.183-.272.272-.211.17-.45.362-.45.645 0 .284.239.476.45.646.11.089.248.2.272.272.026.08-.021.257-.06.4-.068.256-.146.546.015.767.162.223.464.239.73.252.146.008.328.017.394.065.064.047.128.215.18.35.095.251.204.536.47.622.255.083.505-.08.725-.222.132-.086.282-.183.37-.183.088 0 .238.097.37.183.178.116.376.244.582.244a.464.464 0 0 0 .144-.022c.265-.086.374-.37.47-.622.05-.135.115-.303.179-.35.066-.048.248-.057.393-.065.267-.013.569-.029.73-.252.162-.22.084-.511.015-.767-.038-.143-.085-.32-.059-.4.024-.072.162-.183.272-.272.211-.17.45-.362.45-.646 0-.283-.239-.475-.45-.645Zm-3.58 1.657a.204.204 0 0 1-.194.139h-.246a.204.204 0 0 1-.193-.139l-.623-1.822h.431l.507 1.484.502-1.484h.431l-.616 1.822Zm1.567.139h-.777v-.409h.777a.216.216 0 1 0 0-.432h-.17a.579.579 0 0 1 0-1.157h.776v.408h-.776a.17.17 0 0 0 0 .34h.17a.624.624 0 0 1 0 1.25Z" fill="#009ECB"/></svg>