<svg width="39" height="39" fill="none" xmlns="http://www.w3.org/2000/svg"><path d="M31.465 4.584h4.57a2 2 0 0 1 2 2v22.284a2 2 0 0 1-2 2H3a2 2 0 0 1-2-2V6.584a2 2 0 0 1 2-2h4.57M26.686 35.647H12.35v2.389h14.336v-2.39Z" stroke="#fff" stroke-linejoin="round"/><path d="M23.7 30.868h-8.364l-1.194 4.779h10.752l-1.195-4.78ZM1 27.284h37.036M31.465 1H7.57v26.284h23.894V1Z" stroke="#fff" stroke-linejoin="round"/><path d="M17.129 24.894v-4.779h-2.39v4.78h2.39ZM29.076 23.7v-2.39H17.129v2.39h11.947Z" stroke="#fff" stroke-linejoin="round"/><path d="M14.74 23.7v-2.39H9.96v2.39h4.78ZM24.297 17.726v-4.779h-2.39v4.779h2.39ZM29.076 16.531v-2.39h-4.779v2.39h4.779ZM21.907 16.531v-2.39H9.96v2.39h11.947ZM29.076 3.39H9.96v7.168h19.116V3.389ZM12.35 9.363V7.571M14.74 9.363V6.376M17.129 9.363V4.584M19.518 9.363V6.376M21.907 9.363V5.182M24.297 9.363V4.584M26.686 9.363V6.376" stroke="#fff" stroke-linejoin="round"/></svg>
