<svg width="22" height="23" fill="none" xmlns="http://www.w3.org/2000/svg"><path d="M17.66 6.682c.858 0 1.562-.704 1.562-1.562 0-.858-.704-1.562-1.562-1.562-.858 0-1.562.704-1.562 1.562 0 .858.704 1.562 1.562 1.562ZM6.572 6.198l4.796-4.796c.374-.374.88-.594 1.43-.594h7.128c1.122 0 2.024.902 2.024 2.024V9.96c0 .55-.22 1.078-.594 1.43l-4.774 4.796-10.01-9.988Z" fill="#009ECB"/><path d="m16.582 16.186-5.918 5.918c-.374.374-.88.594-1.452.594a2.027 2.027 0 0 1-1.43-.594L.654 14.998a2.013 2.013 0 0 1-.594-1.43c0-.572.242-1.078.594-1.452l5.918-5.918 10.01 9.988Z" fill="#009ECB"/><path d="M4.108 18.452.654 14.998a2.013 2.013 0 0 1-.594-1.43c0-.572.242-1.078.594-1.452l5.918-5.918 4.884 4.884-7.348 7.37Z" fill="#009ECB"/><path d="M21.268 1.292c-.374-.33-.836-.484-1.342-.484H12.82c-.55 0-1.078.22-1.43.594L6.572 6.198l4.884 4.884 4.994-4.994a1.518 1.518 0 0 1-.352-.99c0-.858.704-1.562 1.562-1.562.374 0 .726.132.99.352l2.618-2.596Z" fill="#009ECB"/><path d="M11.478 14.822a3.168 3.168 0 1 0 0-6.336 3.168 3.168 0 0 0 0 6.336Z" fill="#009ECB"/><path d="M15.79 10.708h-4.224v1.804h2.442c-.22 1.144-1.166 1.804-2.442 1.804-1.474 0-2.684-1.232-2.684-2.772 0-1.54 1.188-2.772 2.684-2.772.638 0 1.21.242 1.672.616l1.32-1.364a4.47 4.47 0 0 0-2.992-1.144c-2.508 0-4.532 2.09-4.532 4.686s2.024 4.686 4.532 4.686c2.266 0 4.334-1.716 4.334-4.686 0-.286-.044-.572-.11-.858Z" fill="#fff"/></svg>