<svg width="22" height="20" fill="none" xmlns="http://www.w3.org/2000/svg"><path d="M3.738 7.267h-.906a.312.312 0 0 0-.317.308c0 .17.142.308.317.308h.906a.312.312 0 0 0 .317-.308.312.312 0 0 0-.317-.308Zm2.173.308c0 .17.141.308.317.308h.905a.312.312 0 0 0 .317-.308.312.312 0 0 0-.317-.308h-.905a.312.312 0 0 0-.317.308Z" fill="#009ECB"/><path d="M20.372.186H7.062A.626.626 0 0 0 6.428.8v4.927h-5.07a.626.626 0 0 0-.634.616v12.932c0 .34.285.615.634.615h13.31c.349 0 .633-.276.633-.615v-4.927h5.07c.35 0 .634-.276.634-.616V.801a.626.626 0 0 0-.633-.615Zm-5.704 19.09H1.358V9.423h13.31v9.853Zm0-10.47H1.358V6.345h5.389l7.92-.001v2.464Zm5.704 4.927h-5.07v-7.39a.626.626 0 0 0-.634-.615H7.062V3.88h13.31v9.853Zm0-10.468H7.062V.8h13.31v2.464Z" fill="#009ECB"/><path d="M8.536 2.34h.906a.312.312 0 0 0 .317-.307.312.312 0 0 0-.317-.308h-.906a.312.312 0 0 0-.317.308c0 .17.142.308.317.308Zm3.396 0h.905a.312.312 0 0 0 .317-.307.312.312 0 0 0-.317-.308h-.905a.312.312 0 0 0-.317.308c0 .17.141.308.317.308ZM5.254 16.415a.32.32 0 0 0 .448 0 .302.302 0 0 0 0-.435l-1.36-1.322 1.36-1.322a.302.302 0 0 0 0-.435.324.324 0 0 0-.448 0l-1.585 1.54a.302.302 0 0 0 0 .435l1.585 1.54Zm5.07 0a.32.32 0 0 0 .448 0l1.585-1.54a.302.302 0 0 0 0-.435l-1.585-1.54a.323.323 0 0 0-.448 0 .302.302 0 0 0 0 .436l1.36 1.322-1.36 1.322a.302.302 0 0 0 0 .435Zm-3.867 1.628a.317.317 0 0 0 .419-.155l2.852-6.183a.304.304 0 0 0-.16-.407.32.32 0 0 0-.418.155l-2.852 6.184a.304.304 0 0 0 .16.406Z" fill="#009ECB"/></svg>