<svg width="37" height="37" fill="none" xmlns="http://www.w3.org/2000/svg"><path d="m10.557 21.708 5.513 4.97a2 2 0 0 0 2.886-.218l9.124-11.124" stroke="#fff" stroke-miterlimit="10" stroke-linecap="round" stroke-linejoin="round"/><path d="M1 12.558a2 2 0 0 1 2-2h31.045a2 2 0 0 1 2 2v21.487a2 2 0 0 1-2 2H3a2 2 0 0 1-2-2V12.558ZM1 10.558V4.593a2 2 0 0 1 2-2h31.045a2 2 0 0 1 2 2v5.965M18.523 5.779V1M28.08 5.779V1M8.965 5.779V1" stroke="#fff" stroke-miterlimit="10" stroke-linecap="round" stroke-linejoin="round"/></svg>
