<svg width="22" height="20" fill="none" xmlns="http://www.w3.org/2000/svg"><path d="M1.675 19.891h8.873a.321.321 0 0 0 .224-.09.303.303 0 0 0 0-.435.321.321 0 0 0-.224-.09H1.675a.321.321 0 0 1-.224-.09.303.303 0 0 1-.093-.218V1.109c0-.082.033-.16.093-.218.06-.057.14-.09.224-.09h13.31c.083 0 .164.033.223.09.06.058.093.136.093.218v3.08c0 .08.034.16.093.217a.321.321 0 0 0 .448 0 .304.304 0 0 0 .093-.218V1.11c0-.51-.427-.924-.95-.924H1.674c-.524 0-.95.415-.95.924v17.859c0 .509.426.923.95.923Z" fill="#009ECB"/><path d="M4.035 14.303h5.474c.051 0 .101-.02.138-.057a.192.192 0 0 0 0-.272.197.197 0 0 0-.138-.057H4.035a.197.197 0 0 1-.139-.056.192.192 0 0 1-.057-.137V2.529c0-.051.02-.1.057-.136a.197.197 0 0 1 .139-.057h8.21c.052 0 .102.02.139.057a.192.192 0 0 1 .057.136v1.93c0 .052.02.1.057.137a.197.197 0 0 0 .277 0 .192.192 0 0 0 .057-.137V2.53c0-.32-.263-.579-.587-.579h-8.21a.584.584 0 0 0-.587.58v11.194c0 .32.263.58.587.58Z" fill="#009ECB"/><path d="M12.132 6.651v12.317c0 .509.427.923.951.923h6.972c.524 0 .95-.414.95-.923V6.65c0-.509-.426-.923-.95-.923h-6.972c-.524 0-.95.414-.95.923Zm8.24 0v12.317c0 .081-.034.16-.093.217a.321.321 0 0 1-.224.09h-6.972a.322.322 0 0 1-.224-.09.303.303 0 0 1-.093-.217V6.65c0-.081.034-.16.093-.217.06-.058.14-.09.224-.09h6.972c.084 0 .164.032.224.09.06.057.093.136.093.217Z" fill="#009ECB"/><path d="M13.74 7.526v7.672a.58.58 0 0 0 .584.576h4.281a.58.58 0 0 0 .584-.576V7.526a.58.58 0 0 0-.584-.576h-4.281a.58.58 0 0 0-.584.576Zm5.06 0v7.672c0 .051-.02.1-.057.136a.196.196 0 0 1-.138.056h-4.281a.196.196 0 0 1-.138-.056.19.19 0 0 1-.057-.136V7.526c0-.051.02-.1.057-.136a.196.196 0 0 1 .138-.056h4.281c.052 0 .101.02.138.056a.19.19 0 0 1 .057.136ZM8.33 18.044c.35 0 .633-.276.633-.616a.625.625 0 0 0-.633-.616.625.625 0 0 0-.634.616c0 .34.284.616.634.616ZM16.569 18.044c.35 0 .634-.276.634-.616a.625.625 0 0 0-.634-.616.625.625 0 0 0-.634.616c0 .34.284.616.634.616Z" fill="#009ECB"/></svg>