<svg xmlns="http://www.w3.org/2000/svg" width="44" height="32" fill="none"><path fill="#fff" d="M19.887 26.17H1.445a.766.766 0 0 1-.71-.478.777.777 0 0 1-.059-.296V1.43a.777.777 0 0 1 .475-.714.764.764 0 0 1 .294-.059H42.94a.765.765 0 0 1 .71.477.778.778 0 0 1 .059.296v9.022c0 .205-.081.402-.226.547a.766.766 0 0 1-1.311-.547V2.203H2.213v22.42h17.674c.204 0 .4.081.543.226a.776.776 0 0 1-.543 1.32Z"/><path fill="#fff" d="M42.94 5.296H12.202a.766.766 0 0 1-.543-.227.775.775 0 0 1 .543-1.32H42.94a.775.775 0 0 1 0 1.546Zm-33.811 0a.79.79 0 0 1-.546-.224.893.893 0 0 1-.161-.256.646.646 0 0 1-.062-.293c0-.205.081-.402.225-.547a.766.766 0 0 1 1.25.84.893.893 0 0 1-.16.256.808.808 0 0 1-.546.224Zm-2.306 0a.768.768 0 0 1-.71-.479.78.78 0 0 1 .165-.843.782.782 0 0 1 1.289.322.766.766 0 0 1-.452.938.764.764 0 0 1-.292.062Zm-2.305 0a.806.806 0 0 1-.546-.224.893.893 0 0 1-.161-.256.776.776 0 0 1 .412-1.012.764.764 0 0 1 .84.17c.14.148.22.344.223.549a.777.777 0 0 1-.061.293.893.893 0 0 1-.162.256.808.808 0 0 1-.545.224Zm19.98 26.285h-4.611a.764.764 0 0 1-.71-.477.778.778 0 0 1-.059-.296v-6.185a.778.778 0 0 1 .475-.714.766.766 0 0 1 .294-.059h1.283c.204 0 .4.081.543.226a.776.776 0 0 1-.543 1.32h-.515v4.639h3.074V27.97c0-.205.08-.402.225-.547a.766.766 0 0 1 1.312.547v2.837a.776.776 0 0 1-.475.714.764.764 0 0 1-.294.059Z"/><path fill="#fff" d="M26.034 31.58H18.35a.766.766 0 0 1-.543-.226.776.776 0 0 1 .543-1.32h7.684a.775.775 0 0 1 0 1.546Zm9.221-2.318h-3.842a.766.766 0 0 1-.71-.478.778.778 0 0 1-.058-.296V26.2a7.753 7.753 0 0 1-.593-.246l-1.608 1.617a.767.767 0 0 1-1.087 0l-2.716-2.733a.773.773 0 0 1-.167-.842.773.773 0 0 1 .167-.251l1.607-1.618a7.663 7.663 0 0 1-.244-.596H23.73a.766.766 0 0 1-.71-.477.776.776 0 0 1-.058-.296v-3.866a.775.775 0 0 1 .474-.714.764.764 0 0 1 .294-.059h2.275a7.68 7.68 0 0 1 .244-.596l-1.607-1.618a.772.772 0 0 1-.167-.843.773.773 0 0 1 .167-.25l2.716-2.733a.767.767 0 0 1 1.087 0l1.608 1.617c.193-.09.391-.172.593-.246V9.16a.778.778 0 0 1 .474-.714.765.765 0 0 1 .294-.059h3.842a.764.764 0 0 1 .71.477.776.776 0 0 1 .059.296v2.289c.202.074.4.156.593.246l1.608-1.617a.769.769 0 0 1 .837-.168.767.767 0 0 1 .25.168l2.716 2.732a.774.774 0 0 1 0 1.094l-1.607 1.618c.089.194.17.393.243.596h2.276a.763.763 0 0 1 .71.477.777.777 0 0 1 .058.296v3.866a.778.778 0 0 1-.474.714.765.765 0 0 1-.294.059h-2.276a7.662 7.662 0 0 1-.243.596l1.607 1.618a.774.774 0 0 1 0 1.093l-2.716 2.733a.767.767 0 0 1-1.087 0l-1.608-1.617c-.193.09-.391.172-.593.246v2.288a.776.776 0 0 1-.474.715.765.765 0 0 1-.294.059Zm-3.073-1.547h2.305v-2.077a.776.776 0 0 1 .56-.744c.467-.132.919-.32 1.343-.558a.766.766 0 0 1 .92.128l1.458 1.467 1.63-1.64-1.458-1.467a.776.776 0 0 1-.127-.924 6.3 6.3 0 0 0 .554-1.353.773.773 0 0 1 .74-.563h2.064v-2.319h-2.065a.765.765 0 0 1-.739-.562 6.3 6.3 0 0 0-.554-1.353.777.777 0 0 1 .127-.924l1.458-1.468-1.63-1.64-1.459 1.468a.766.766 0 0 1-.919.128 6.157 6.157 0 0 0-1.344-.558.768.768 0 0 1-.559-.744V9.934h-2.305v2.078a.777.777 0 0 1-.56.744c-.468.132-.919.32-1.343.558a.766.766 0 0 1-.92-.128l-1.458-1.468-1.63 1.64 1.458 1.468a.776.776 0 0 1 .127.924 6.294 6.294 0 0 0-.554 1.353.773.773 0 0 1-.74.562h-2.065v2.32h2.066a.766.766 0 0 1 .739.562c.131.47.318.925.554 1.353a.778.778 0 0 1-.127.924l-1.458 1.468 1.63 1.64 1.458-1.468a.77.77 0 0 1 .92-.128c.424.239.875.426 1.344.558a.768.768 0 0 1 .559.744v2.077Z"/><path fill="#fff" d="m36.32 15.762-1.057 1.21c-.256-.279-.594-.418-1.012-.418-.41 0-.707.132-.89.396a1.575 1.575 0 0 0-.265.913v.561h1.716v1.265h-1.716v1.76h2.85V23h-5.71v-1.551h1.045v-1.76h-1.045v-1.265h1.045v-.671c0-.315.055-.627.165-.935.11-.315.272-.609.484-.88.22-.279.521-.502.902-.671a3.091 3.091 0 0 1 1.31-.264c.894 0 1.62.253 2.177.759Z"/></svg>