<svg width="18" height="17" fill="none" xmlns="http://www.w3.org/2000/svg"><path d="M6.565 6.97H1.084c-.043-.004-.035-.002.022.005-.003.004-.054-.01-.061-.013-.007-.002-.06-.013-.06-.019l.043.02A.899.899 0 0 1 .924 6.9l.037.028a.62.62 0 0 1-.035-.033c.002.001-.034-.034-.034-.036a.506.506 0 0 1-.013-.024l-.01-.023c-.018-.038-.016-.03.007.022-.006 0-.02-.066-.023-.071a.19.19 0 0 1-.01-.051l.008.049C.85 6.744.85 6.725.85 6.708V1.17c.004-.034.002-.034-.001-.002l-.004.024c.002-.017.005-.033.01-.05.001-.008.016-.072.022-.072-.023.05-.025.058-.008.023a.503.503 0 0 1 .024-.044c.004-.007.01-.013.013-.02.019-.027.019-.027 0-.002l-.015.019.034-.036.017-.017C.97.967.965.97.922 1.004c0-.007.054-.036.062-.04l.022-.01c.037-.018.03-.016-.022.007.01 0 .033-.011.046-.015.008-.002.07-.023.075-.017-.058.007-.066.01-.023.006h4.869c.204 0 .411-.004.616 0h.026c.043.003.035.001-.022-.006.003-.006.067.015.074.017l.024.007a.325.325 0 0 0-.02-.009c.004-.004.048.026.054.028.007.004.05.027.05.034L6.716.978a26.921 26.921 0 0 1 .052.05c.026.03.022.025-.011-.018.013 0 .045.073.052.085.032.05-.015-.023-.008-.023.006 0 .021.066.023.071l.005.025c.008.041.006.034-.001-.025l.001.053v3.205c0 .766.01 1.532 0 2.298v.036c-.003.043-.001.035.006-.023.006.004-.015.068-.017.075-.002.01-.033.083-.007.027.026-.059-.01.015-.013.022-.004.008-.032.062-.04.062l.029-.037-.034.035-.017.017c-.03.027-.024.023.019-.011a.194.194 0 0 1-.041.028.323.323 0 0 1-.065.036l.043-.019a.447.447 0 0 1-.047.015c-.007.002-.07.023-.074.017l.048-.007c-.019-.002-.035-.002-.054-.002-.196.004-.382.17-.372.376.009.202.163.38.372.377a1.025 1.025 0 0 0 1.006-1.017c.002-.064 0-.126 0-.19V1.998c0-.266.003-.53 0-.796A1.032 1.032 0 0 0 6.887.23 1.278 1.278 0 0 0 6.45.176H1.15C.855.176.563.28.363.51c-.182.21-.26.463-.26.738V6.61c0 .194.024.379.11.555.167.349.534.552.91.556.805.005 1.611 0 2.416 0h3.024c.196 0 .382-.173.373-.377a.378.378 0 0 0-.371-.374Zm0 2.427H1.123c-.432.004-.8.264-.957.667-.1.261-.063.598-.063.875v4.941c0 .287.09.561.294.766.205.207.477.298.762.298h4.896c.314 0 .65.034.944-.102.356-.163.568-.54.572-.928v-3.302c0-.732.013-1.464 0-2.197a1.025 1.025 0 0 0-1.006-1.018c-.196-.003-.382.177-.372.377.009.207.163.372.372.376h.026c.043.004.035.002-.022-.005.003-.006.067.015.074.017.008.001.017.005.024.007a.331.331 0 0 0-.02-.01c.004-.003.048.027.054.029.007.004.05.026.05.034-.013-.01-.024-.02-.037-.028a.621.621 0 0 1 .035.033l.017.017c.026.03.022.025-.011-.018.013 0 .045.073.052.084.032.051-.015-.022-.007-.022.005 0 .02.065.022.071l.006.024c.007.042.005.034-.002-.024.002 0 .002.053.002.053V15.16c0 .252.003.502 0 .754v.036c-.004.043-.002.036.005-.022.006.003-.015.067-.017.075-.001.01-.033.083-.007.026.026-.058-.02.034-.026.044-.004.007-.01.013-.013.02-.023.032-.019.026.013-.017.002.004-.047.05-.05.053-.054.06.069-.04 0 .002-.015.007-.028.017-.041.026l-.023.012c-.037.016-.03.014.023-.008 0 .006-.066.02-.071.022l-.024.006c-.041.008-.034.006.024-.002-.008-.004-.041.002-.052.002-.06.002-.121 0-.18 0H1.085c-.088.002.08.02-.002.002a2.531 2.531 0 0 1-.048-.011l-.024-.008a.3.3 0 0 0 .02.01.325.325 0 0 1-.065-.036c-.008-.004-.013-.01-.02-.013-.032-.023-.027-.02.016.013-.004.002-.048-.047-.052-.05-.043-.04.02.018.011.018-.013 0-.045-.073-.052-.085-.043-.07.019.08 0-.002l-.019-.073c-.016-.058.01.026.002.024-.002 0-.002-.052-.002-.052v-5.537c-.002-.077 0 .027-.005.023-.006-.004.015-.068.017-.076.001-.007.005-.016.007-.024a.334.334 0 0 0-.01.02c-.005-.005.043-.076.05-.086.036-.062-.012.02-.014.017-.002-.004.047-.049.05-.053.054-.06-.069.04 0-.002.02-.013.043-.024.064-.037.069-.043-.079.019.002 0 .016-.004.031-.01.048-.013l.024-.006c.041-.007.034-.006-.024.002 0-.002.052-.002.052-.002H6.57c.195 0 .381-.173.372-.376-.013-.205-.167-.379-.376-.379Zm2.596-6.806H16.258c.328 0 .656.009.984 0h.015c.195 0 .381-.174.372-.377-.01-.203-.164-.376-.372-.376H10.159c-.327 0-.655-.01-.983 0h-.015c-.195 0-.382.173-.372.376.009.203.163.377.372.377Zm5.17 2.717H9.16c-.195 0-.382.173-.372.376.009.204.163.377.372.377h5.17c.195 0 .382-.173.372-.377-.009-.203-.163-.376-.372-.376Zm-5.17 6.504H16.258c.328 0 .656.01.984 0h.015c.195 0 .381-.173.372-.377-.01-.203-.164-.376-.372-.376H10.159c-.327 0-.655-.01-.983 0h-.015c-.195 0-.382.173-.372.377.009.203.163.376.372.376Zm5.17 2.717H9.16c-.195 0-.382.174-.372.377.009.203.163.376.372.376h5.17c.195 0 .382-.173.372-.376-.009-.204-.163-.377-.372-.377Z" fill="#009ECB"/><path d="m2.66 3.819.804 1.045a.3.3 0 0 0 .49-.015l1.732-2.56M2.66 13.301l.804 1.046a.3.3 0 0 0 .49-.015l1.732-2.56" stroke="#009ECB" stroke-linecap="round"/></svg>