<svg width="21" height="22" fill="none" xmlns="http://www.w3.org/2000/svg"><path d="M11.298 7.752h.586a.29.29 0 0 0 .261-.167 3.507 3.507 0 0 0 2.964 1.648 3.507 3.507 0 0 0 2.965-1.648.29.29 0 0 0 .26.167h.587c.485 0 .88-.399.88-.889V5.086a.886.886 0 0 0-.595-.837C19.123 2.083 17.358.346 15.195.346h-.171c-2.164 0-3.928 1.737-4.011 3.903a.886.886 0 0 0-.595.837v1.777c0 .49.395.89.88.89Zm3.811.889c-1.616 0-2.931-1.33-2.931-2.963s1.315-2.962 2.931-2.962c1.617 0 2.932 1.329 2.932 2.962 0 1.634-1.315 2.963-2.932 2.963Zm4.105-1.778a.295.295 0 0 1-.293.297h-.293V4.79h.293c.162 0 .293.132.293.296v1.777ZM15.024.938h.171c1.823 0 3.314 1.444 3.422 3.26h-.283c-.01 0-.018.004-.028.005a3.518 3.518 0 0 0-3.197-2.08c-1.418 0-2.64.855-3.197 2.08-.01-.001-.018-.006-.028-.006h-.282c.108-1.815 1.6-3.259 3.422-3.259Zm-4.02 4.148c0-.164.132-.296.294-.296h.293v2.37h-.293a.295.295 0 0 1-.293-.297V5.086Zm6.072 4.74a.295.295 0 0 0-.294.296c0 .42-.687.889-1.673.889-.985 0-1.672-.468-1.672-.889a.295.295 0 0 0-.294-.296c-1.403 0-2.678.677-3.374 1.777H3.09a.885.885 0 0 0-.88.89v6.868a.887.887 0 0 0-.586.834c0 .104.021.203.054.296H.744a.295.295 0 0 0-.294.297c0 .163.132.296.294.296h19.935a.295.295 0 0 0 .294-.296V13.38c0-1.96-1.748-3.555-3.897-3.555Zm-13.987 2.37h9.968c.162 0 .293.133.293.296v6.814H2.796v-6.814c0-.163.131-.296.293-.296Zm-.586 8.295a.295.295 0 0 1-.293-.296c0-.163.13-.296.293-.296h11.14c.162 0 .294.133.294.296a.295.295 0 0 1-.293.296H2.502Zm17.884 0h-3.518a.59.59 0 0 1-.587-.592.59.59 0 0 1 .587-.593h1.759a.295.295 0 0 0 .293-.296v-4.74a.295.295 0 0 0-.293-.296.295.295 0 0 0-.294.296v4.444H16.87a1.18 1.18 0 0 0-1.01 1.777h-1.39a.885.885 0 0 0 .054-.296.887.887 0 0 0-.586-.834v-6.869a.885.885 0 0 0-.88-.889h-2.556c.57-.68 1.435-1.113 2.395-1.176.208.68 1.106 1.177 2.213 1.177s2.005-.497 2.214-1.177c1.71.113 3.064 1.395 3.064 2.954v7.11Z" fill="#009ECB"/><path d="M7.183 18.702c.566 0 1.026-.465 1.026-1.037 0-.572-.46-1.037-1.026-1.037-.566 0-1.026.465-1.026 1.037 0 .572.46 1.037 1.026 1.037Zm0-1.555c.283 0 .513.232.513.518 0 .286-.23.518-.513.518a.516.516 0 0 1-.513-.518c0-.286.23-.518.513-.518Zm-3.848 3.11h7.696a.258.258 0 0 0 .256-.259.258.258 0 0 0-.256-.26H3.335a.258.258 0 0 0-.257.26c0 .143.115.26.257.26Z" fill="#009ECB"/></svg>