<svg xmlns="http://www.w3.org/2000/svg" width="32" height="32" fill="none"><path fill="#fff" stroke="#139AD6" d="m15.384 2.52-.015.018-.017.017L2.476 15.33a5.19 5.19 0 0 1-.259.296l-.046.051a4.648 4.648 0 0 0-.33.392c-.201.275-.341.573-.341.93 0 .158.05.362.143.57.094.207.212.378.31.476l12 12 .026.026.021.028c.178.238.506.4 1 .4.702 0 1.14-.443 1.554-.86.03-.032.061-.062.092-.093l12.8-12.9.016-.016.018-.015c.611-.51 1.02-.873 1.02-1.616V3c0-.824-.676-1.5-1.5-1.5H17c-.743 0-1.106.409-1.616 1.02ZM27.5 7c0 1.376-1.124 2.5-2.5 2.5A2.506 2.506 0 0 1 22.5 7c0-1.376 1.124-2.5 2.5-2.5s2.5 1.124 2.5 2.5Z"/><path fill="#139AD6" d="M21.876 14.493h-4.764v2.117h2.754c-.248 1.343-1.315 2.118-2.754 2.118-1.663 0-3.028-1.446-3.028-3.254 0-1.807 1.34-3.253 3.028-3.253.72 0 1.364.284 1.886.723l1.488-1.601c-.893-.827-2.06-1.343-3.374-1.343C14.282 10 12 12.453 12 15.5s2.283 5.5 5.112 5.5C19.668 21 22 18.986 22 15.5c0-.336-.05-.671-.124-1.007Z"/></svg>