<svg xmlns="http://www.w3.org/2000/svg" width="40" height="37" fill="none"><path fill="#111" fill-rule="evenodd" d="M25.333 13.704V9.593l-8-9.593H2.67C1.196 0 0 1.231 0 2.75v31.5C0 35.767 1.188 37 2.663 37H22.67c1.471 0 2.663-1.23 2.663-2.728v-2.753h10.658c2.214 0 4.009-1.84 4.009-4.11v-9.596c0-2.27-1.781-4.11-4.01-4.11H25.334ZM24 31.518v2.75c0 .752-.597 1.362-1.333 1.362h-20c-.727 0-1.334-.611-1.334-1.364V2.735c0-.74.595-1.365 1.328-1.365H16v6.844c0 1.534 1.193 2.749 2.664 2.749H24v2.74H13.342c-2.214 0-4.009 1.84-4.009 4.11v9.596c0 2.27 1.782 4.11 4.01 4.11H24ZM17.333 2.056V8.21c0 .764.601 1.383 1.33 1.383H23.6l-6.267-7.537Zm-4.007 13.018c-1.469 0-2.66 1.234-2.66 2.73v9.614c0 1.508 1.204 2.73 2.66 2.73h22.681c1.469 0 2.66-1.233 2.66-2.73v-9.614c0-1.508-1.203-2.73-2.66-2.73h-22.68Zm.007 5.482v6.851h1.334v-4.11h2.66c1.476 0 2.673-1.217 2.673-2.741 0-1.514-1.192-2.741-2.673-2.741h-3.994v2.74Zm1.334-1.37v2.74h2.668c.735 0 1.332-.608 1.332-1.37 0-.757-.59-1.37-1.332-1.37h-2.668Zm12 2.74v-4.111H28v9.592h-1.333v-4.11h-4v4.11h-1.334v-9.592h1.334v4.11h4Zm2.666-1.37v6.851h1.334v-4.11h2.66c1.476 0 2.673-1.217 2.673-2.741 0-1.514-1.192-2.741-2.673-2.741h-3.994v2.74Zm1.334-1.37v2.74h2.668c.735 0 1.332-.608 1.332-1.37 0-.757-.59-1.37-1.332-1.37h-2.668Z" clip-rule="evenodd"/></svg>